<svg id="Layer_1" data-name="Layer 1" xmlns="http://www.w3.org/2000/svg" viewBox="0 0 69.72 68.19"><defs><style>.cls-1,.cls-13,.cls-6{opacity:0.3;}.cls-1,.cls-10,.cls-12,.cls-13,.cls-5,.cls-7,.cls-8,.cls-9{isolation:isolate;}.cls-1,.cls-3{font-size:9.76px;stroke:#ed1c24;stroke-width:0.25px;}.cls-1{fill:none;}.cls-1,.cls-10,.cls-13,.cls-3,.cls-8,.cls-9{font-family:HelveticaNeue-Bold, Helvetica Neue;font-weight:700;}.cls-12,.cls-2{opacity:0.5;}.cls-10,.cls-12,.cls-13,.cls-3,.cls-4,.cls-8,.cls-9{fill:#ed1c24;}.cls-5{fill:#fff;opacity:0.8;}.cls-10,.cls-13,.cls-8,.cls-9{font-size:3.35px;}.cls-9{letter-spacing:-0.05em;}.cls-10{letter-spacing:-0.07em;}.cls-11{opacity:0.75;}</style></defs><title>chowfun-bag-bg</title><text class="cls-1" transform="translate(7.53 15.62)">CHOW FUN</text><text class="cls-1" transform="translate(7.53 22.81)">CHOW FUN</text><text class="cls-1" transform="translate(7.53 29.9)">CHOW FUN</text><g class="cls-2"><text class="cls-3" transform="translate(7.53 37.09)">CHOW FUN</text></g><text class="cls-1" transform="translate(7.53 44.19)">CHOW FUN</text><text class="cls-1" transform="translate(7.53 51.38)">CHOW FUN</text><text class="cls-1" transform="translate(7.53 58.47)">CHOW FUN</text><g class="cls-2"><path class="cls-4" d="M57.35,48.42c-.11-.45-.22-1-.28-1.16,0-.57-.08-1.92-.27-4.29-.23-3-.51-6.8-.46-8.66a12.36,12.36,0,0,0-1.09-4.63,16.71,16.71,0,0,1-.81-2.78v-.06a3.43,3.43,0,0,1,.13-2.3A14,14,0,0,0,52.64,9.83c0-.06-.06-.07-.06-.13a5,5,0,0,0-.79-1.24c-1.12-1.37-3.53-2.08-5.38-2.13a9,9,0,0,0-3,.42c-2.2.77-2.18,4.61-2.15,8v1.6a2.29,2.29,0,0,1-.16,1,31.86,31.86,0,0,1-5.94-.23,22.84,22.84,0,0,0-4.6-.26,8,8,0,0,1-2.62-.2c-.82-.35-1.85-2.42-2.7-4.11-1.34-2.66-2.67-5.39-4.9-5.83-1-.67-2.54-.71-4.07-.76A3.37,3.37,0,0,0,13.58,7.2C12,9.07,11.5,13,12.34,17.34c.39,2.12,0,4.74-.41,7.73a44.46,44.46,0,0,0-.24,15.35c1.29,6.57.72,8.79.15,10.89a13.54,13.54,0,0,0-.62,3.63v.19c0,.26,1,6.68,5.63,6.81,1.3,0,2.61-.08,3.91-.21a31.47,31.47,0,0,1,4.55-.25,21,21,0,0,1,4.46.57,22.18,22.18,0,0,0,3.64.42,71.36,71.36,0,0,0,13.35-1.42c2.12-.32,4.05-.72,6-.92A6.05,6.05,0,0,0,57,57.82C59,55.12,57.93,50.81,57.35,48.42ZM52.5,16.16c.14-.57.22-1.15.36-1.72a11,11,0,0,1,0,8.58A9.78,9.78,0,0,1,52,19,18.1,18.1,0,0,1,52.5,16.16ZM23.26,13.68C24.41,16,25.44,18.09,27,18.77a9.06,9.06,0,0,0,3.51.36,22.9,22.9,0,0,1,4.22.18c1.12.15,2.25.25,3.38.29h.26a4.92,4.92,0,0,0-.66.63c-1.25,1.18-3.43,1.24-5.16,1.2a11,11,0,0,1-2-.12A8.82,8.82,0,0,0,29,21.2c-2.3-.07-2.81-.4-5.17-2.9-1.93-2-2.27-5.76-2.27-7.87C22.17,11.41,22.71,12.64,23.26,13.68Zm32.07,43a3.53,3.53,0,0,1-2.69,1.4c-1.92.27-3.92.59-6,.92a69.27,69.27,0,0,1-13,1.43,17.77,17.77,0,0,1-3.26-.35,25.6,25.6,0,0,0-4.85-.58,32,32,0,0,0-4.8.25,24.88,24.88,0,0,1-3.66.21c-2.68-.07-3.46-4.25-3.57-4.83A11.36,11.36,0,0,1,14,52.07c.57-2.22,1.22-4.76-.12-11.84-1.06-5.6-.41-10.38.22-14.65.47-3.19.87-6,.43-8.44-.78-4.18-.18-7.3.75-8.36a1.15,1.15,0,0,1,1-.48c3.2.09,3.19.28,3.16,1.3-.06,2.11.12,7.3,2.85,10.26,2.32,2.56,3.32,3.48,6.55,3.57.51,0,1,.05,1.53.11s1.34.1,2,.12c2.17.06,4.93-.12,6.7-1.79a12,12,0,0,1,1.84-1.42,9,9,0,0,0,1.44-1.18,4.32,4.32,0,0,0,.84-2.66V14.94a28.7,28.7,0,0,1,.18-4.15C43.63,9.19,44,9,44,9a5.58,5.58,0,0,1,2.18-.32c1.92,0,3.57.8,3.93,1.51a3.16,3.16,0,0,0,.49.72c.54,1.3.11,3.14-.26,4.92A20.44,20.44,0,0,0,49.86,19c-.07,2.62.71,4.43,1.73,6.83.24.52.48,1.1.72,1.68.23,1,.58,2,.87,3a12.58,12.58,0,0,1,.92,3.87c-.05,2,.29,5.83.52,8.91.14,1.85.28,3.59.27,4A6.74,6.74,0,0,0,55.23,49C55.75,50.94,56.64,54.67,55.33,56.68Z"/></g><path class="cls-5" d="M55.33,56.68a3.53,3.53,0,0,1-2.69,1.4c-1.92.27-3.92.59-6,.92a69.27,69.27,0,0,1-13,1.43,17.77,17.77,0,0,1-3.26-.35,25.6,25.6,0,0,0-4.85-.58,32,32,0,0,0-4.8.25,24.88,24.88,0,0,1-3.66.21c-2.68-.07-3.46-4.25-3.57-4.83A11.36,11.36,0,0,1,14,52.07c.57-2.22,1.22-4.76-.12-11.84-1.06-5.6-.41-10.38.22-14.65.47-3.19.87-6,.43-8.44-.78-4.18-.18-7.3.75-8.36a1.15,1.15,0,0,1,1-.48c3.2.09,3.19.28,3.16,1.3-.06,2.11.12,7.3,2.85,10.26,2.32,2.56,3.32,3.48,6.55,3.57.51,0,1,.05,1.53.11s1.34.1,2,.12c2.17.06,4.93-.12,6.7-1.79a12,12,0,0,1,1.84-1.42,9,9,0,0,0,1.44-1.18,4.32,4.32,0,0,0,.84-2.66V14.94a28.7,28.7,0,0,1,.18-4.15C43.63,9.19,44,9,44,9a5.58,5.58,0,0,1,2.18-.32c1.92,0,3.57.8,3.93,1.51a3.16,3.16,0,0,0,.49.72c.54,1.3.11,3.14-.26,4.92A20.44,20.44,0,0,0,49.86,19c-.07,2.62.71,4.43,1.73,6.83.24.52.48,1.1.72,1.68.23,1,.58,2,.87,3a12.58,12.58,0,0,1,.92,3.87c-.05,2,.29,5.83.52,8.91.14,1.85.28,3.59.27,4A6.74,6.74,0,0,0,55.23,49C55.75,50.94,56.64,54.67,55.33,56.68Z"/><g class="cls-6"><g class="cls-7"><text class="cls-8" transform="matrix(1, 0.03, -0.03, 1, 20.9, 54.59)">H</text><text class="cls-9" transform="matrix(1, 0.03, -0.03, 1, 23.38, 54.66)">A</text><text class="cls-8" transform="matrix(1, 0.03, -0.03, 1, 25.52, 54.72)">VE A NICE D</text><text class="cls-10" transform="matrix(1, 0.03, -0.03, 1, 45.47, 55.27)">A</text><text class="cls-8" transform="matrix(1, 0.03, -0.03, 1, 47.52, 55.33)">Y</text></g></g><g class="cls-11"><path class="cls-12" d="M32,49.48a9.07,9.07,0,1,1,11.34-8.36h0A9,9,0,0,1,32,49.48ZM36.15,33.6a7.77,7.77,0,0,0-1.51-.23,7.34,7.34,0,1,0,1.51.23Z"/><circle class="cls-12" cx="30.89" cy="39.3" r="0.63"/><circle class="cls-12" cx="37.78" cy="39.61" r="0.63"/><path class="cls-12" d="M33.48,44.06a4.75,4.75,0,0,1-2.43-1.58.44.44,0,0,1,.06-.61h0a.43.43,0,0,1,.61.07,3.78,3.78,0,0,0,2.91,1.4,3.67,3.67,0,0,0,2.56-1.15.43.43,0,0,1,.61,0,.41.41,0,0,1,0,.59v0a4.42,4.42,0,0,1-4.33,1.26Z"/></g><text class="cls-13" transform="matrix(1, 0.03, -0.03, 1, 23.88, 29.32)">THANK YOU</text><path class="cls-5" d="M23.26,13.68C24.41,16,25.44,18.09,27,18.77a9.06,9.06,0,0,0,3.51.36,22.9,22.9,0,0,1,4.22.18c1.12.15,2.25.25,3.38.29h.26a4.92,4.92,0,0,0-.66.63c-1.25,1.18-3.43,1.24-5.16,1.2a11,11,0,0,1-2-.12A8.82,8.82,0,0,0,29,21.2c-2.3-.07-2.81-.4-5.17-2.9-1.93-2-2.27-5.76-2.27-7.87C22.17,11.41,22.71,12.64,23.26,13.68Z"/><path class="cls-5" d="M52.48,16.13c.14-.57.22-1.15.36-1.72a11,11,0,0,1,0,8.58A9.78,9.78,0,0,1,52,19,19.34,19.34,0,0,1,52.48,16.13Z"/></svg>