<svg id="Layer_1" data-name="Layer 1" xmlns="http://www.w3.org/2000/svg" viewBox="0 0 2512.76 1846.37"><defs><style>.cls-1{fill:#b0ccd4;}.cls-2{fill:none;stroke:#fff;stroke-miterlimit:10;}</style></defs><title>Artboard 1 copy 16</title><rect class="cls-1" x="-50.62" y="-29" width="2617" height="1912.09"/><path class="cls-2" d="M-1639.8-257.39c21.14-8.29,79.54-17.49,116.45-10.51,91.64,17.32,169.08,114.82,251.27,126.5,67.38,9.58,142.12-29.82,182.12-26.91,46.24,3.36,57.53,122.91,112.08,137.45C-943.25-21.62-876.35,18.51-834,12.05c50.5-7.71,188.23-48.63,191.4-119.27,2.18-48.73,99.08-116.22,135.81-113.81,1.22.08,21-1.92,37.54-4.63,7.05-1.16,22.1-2.55,31.4-4.21,10.76-1.93,34.4-4.52,49.82-8.26,11.64-2.83,34.21-6.13,51-11.26,32.68-10,128.33-37.9,155.89-57.45,102.78-73,142.36-240,240.86-285.19,25.13-11.54,64.26-9.83,70.87-9.36,55.95,4,125.82,105.45,253.1,134.55,76.57,17.5,148.59,30.73,185.37,80,19.77,26.48,57.67,54.37,95.23,85.09,22.57,18.46,62.29,29.26,69.76,32.68,27.77,12.73,59.29,10.76,85.9,20.41,48,17.38,104.83,34.3,123.73,51.3,17,15.3,71.62,38.18,95,75"/><path class="cls-2" d="M-1641.83-252.75c23.78-9.33,77.76-19.67,119.29-11.82,103.1,19.49,161,129.17,253.44,142.31,75.8,10.77,141.41-33.55,186.41-30.27,52,3.78,44,138.27,105.39,154.64,39,10.39,99,55.54,146.56,48.27,56.81-8.67,187-54.71,190.6-134.18,2.45-54.82,91.63-130.75,133-128,1.37.09,19.91-2.16,38.48-5.21,7.94-1.3,21.72-2.87,32.18-4.74,12.11-2.17,33.68-5.08,51-9.3,13.1-3.18,33.29-6.89,52.12-12.66,36.77-11.26,127.59-42.63,158.59-64.64,115.63-82.08,118.1-270,228.92-320.84,28.28-13,65.13-11.06,72.57-10.53,62.94,4.46,111.55,118.64,254.73,151.36,86.15,19.69,146.2,34.57,187.58,90,22.24,29.78,51.23,61.17,93.49,95.73,25.4,20.77,62.22,32.92,70.63,36.77,31.25,14.32,57.87,12.11,87.81,23,54,19.56,104.31,38.58,125.57,57.71,19.14,17.22,67.8,43,94.06,84.4"/><path class="cls-2" d="M-1643.85-248.11c26.43-10.37,76-21.86,122.13-13.14,114.55,21.65,152.88,143.53,255.61,158.13,84.22,12,140.71-37.27,190.71-33.64,57.8,4.2,30.51,153.64,98.69,171.82,43.29,11.54,96.4,61.71,149.28,53.64,63.12-9.63,185.84-60.79,189.8-149.09,2.73-60.91,84.19-145.27,130.1-142.26,1.52.1,18.79-2.4,39.42-5.78,8.82-1.45,21.34-3.19,33-5.27,13.46-2.41,33-5.64,52.24-10.33,14.55-3.54,32.36-7.66,53.29-14.07,40.86-12.51,126.85-47.37,161.3-71.82,128.47-91.2,93.84-300,217-356.48,31.42-14.42,66-12.28,74.27-11.7,69.94,5,97.27,131.82,256.37,168.18,95.72,21.88,143.81,38.41,189.79,100,24.71,33.09,44.8,68,91.74,106.36C689-280.49,723-267,732.32-262.72,767-246.81,788.78-249.26,822-237.2c59.95,21.73,103.79,42.87,127.42,64.13,21.26,19.13,64,47.73,93.15,93.78"/><path class="cls-2" d="M-1645.87-243.48c29.07-11.4,74.21-24,125-14.45C-1394.9-234.11-1376.13-100-1263.12-84c92.65,13.17,140-41,195-37,63.58,4.62,17,169,92,189,47.62,12.7,93.83,67.88,152,59,69.43-10.6,184.65-66.87,189-164,3-67,76.74-159.8,127.25-156.49,1.68.11,17.66-2.64,40.36-6.36q14.55-2.39,33.74-5.79c14.8-2.65,32.23-6.21,53.44-11.36,16-3.89,31.44-8.43,54.46-15.48,44.94-13.77,126.11-52.11,164-79,141.32-100.32,69.58-330,205-392.13,34.56-15.87,66.88-13.51,76-12.87,76.93,5.46,83,145,258,185,105.29,24.07,141.42,42.25,192,110,27.18,36.4,38.36,74.76,90,117a344,344,0,0,0,72.37,44.94c38.19,17.5,55,14.8,91.63,28.06,65.94,23.9,103.27,47.16,129.26,70.54,23.39,21,60.14,52.5,92.24,103.15"/><path class="cls-2" d="M-38.12,706.5c48.89-16.62,122.16-32.43,195-5,82.73,31.15,90.27,90,182,130,69.64,30.39,90.35,7.42,212,25,121,17.48,117.54,42.65,254.52,72.41,113.66,24.69,262.27,57,326.48-14.41,36-40,12.34-75.2,39-111,37.54-50.42,141.14-63.23,645,95,359.66,112.95,473.55,171.89,547,214a1963.63,1963.63,0,0,1,256,175"/><path class="cls-2" d="M-39.64,736.64c10.44-3.69,23-7.56,36.67-9,30.93-3.23,54.76,4.84,88.52,5.61,21.92.5,40.18-3.76,59.35-1.44,20.7,2.47,31.73,20.82,53.62,28.59,50.57,17.94,75.14,50.07,108.32,76,20.79,16.22,45.4,31.55,81,43.62,45.13,15.3,70.62,9.84,111.95,4.9a499.74,499.74,0,0,1,92.49-3.12c29.75,1.67,52.9,3.85,72.15,9,10.38,2.78,20.9,5.4,31.56,8.43,8.69,2.47,17.12,5.35,26,8.21,12.48,4,25.72,8.31,41.61,12.56,12.66,3.44,26.75,6.84,43.84,10.3,13.05,2.64,27.85,5.3,44.62,7.72,31.49,4.55,65.71,9.18,98.37,12.33,90.37,8.71,174-.08,219.35-55.59,33.81-41.37,13.63-77.93,43.23-111.74,10.35-11.82,23.9-20.21,41.46-25.19,37.61-10.66,90.63,3,201,25.27,44.2,9,87.8,20,139.41,38.38,26.86,9.66,54.14,20.12,86.93,32.08,17.36,6.33,35.23,11.95,51.68,17.09,19.8,6.18,38.13,11.14,58.93,17.63,30.71,9.65,59.84,20.35,89.63,30.44,326.36,110.52,433.94,159.86,503.1,200.39,100.47,58.88,179.74,117.18,235.29,162.62"/><path class="cls-2" d="M-41.17,766.79c12.3-4.46,28.14-9.26,45.5-9.53,40.45-.64,63.78,20,105.45,22.45,29,1.68,50.16-7.48,72.92-5,25,2.69,30.32,35.42,57.45,44.63,50.37,17.1,77.12,51.64,112.69,74.26,22,14,48.3,26.29,83.94,34.88,44.84,10.81,71.42,2.66,108.6-7.62A367.46,367.46,0,0,1,633.67,907c29.24-1.07,53-1.53,72.63,3.46,9.54,2.42,20.61,4.38,32.44,7,8.81,1.92,17.51,4.42,26.76,6.81,12.73,3.29,26.39,6.81,42.79,10.17,13,2.66,27.22,5.23,44.91,7.72,13.23,1.87,28.41,3.64,45.48,4.92,32.38,2.43,67.67,4.45,99.61,5.23,90.4,2.18,165.6-18.38,209.37-77.33,31.65-42.63,15.36-80.43,47.46-112.48,12.53-12.51,28.12-19.88,44.91-24,41.37-10,89.86,17.21,206.69,41.24,50.31,10.52,93.21,22.1,144.67,45.54,26.92,12.27,52.62,25.48,87.23,40.58,18.76,8.18,37.95,14.67,53.75,19.87,21.7,7.15,39.82,11.5,62.2,18.67,34.23,11.07,63.92,23.66,93.59,34.45,293.36,106.71,394.32,147.81,459.2,186.78,91,54.69,163.67,107.91,214.58,150.24"/><path class="cls-2" d="M-42.69,796.93C-28.53,791.7-9.43,786,11.64,786.85c50,2,72.79,35.29,122.37,39.28,36.09,2.9,60.14-11.2,86.48-8.55,29.28,2.9,28.9,50.06,61.29,60.67,50.12,16.42,79,53.25,117.06,72.56C422,962.58,450,971.87,485.74,977c44.51,6.35,72.35-4.72,105.26-20.13a282.26,282.26,0,0,1,84.06-24.51c28.76-3.86,53-6.91,73.1-2.08,8.68,2.09,20.28,3.4,33.32,5.47,8.92,1.42,17.9,3.49,27.54,5.41,13,2.57,27,5.34,44,7.77,13.34,1.92,27.69,3.64,46,5.15,13.4,1.1,29,2,46.35,2.12,33.28.29,69.67-.33,100.84-1.88,90.52-4.49,157.27-36.61,199.38-99.07,29.54-43.82,17.38-82.72,51.69-113.22,14.8-13.16,32.38-19.44,48.36-22.72,45.22-9.31,89.1,31.41,212.39,57.21,56.42,12,98.6,24.29,149.93,52.71,27,14.93,51.08,30.88,87.54,49.07,20.15,10.05,40.66,17.43,55.82,22.66,23.59,8.14,41.52,11.87,65.47,19.71,37.76,12.5,68,26.94,97.56,38.46C2275,1060.6,2369,1094.83,2429.58,1132.26c81.64,50.44,147.6,98.63,193.86,137.87"/><path class="cls-2" d="M-44.21,827.08c16-6,38.39-12.58,63.16-10.63,59.5,4.7,81.8,50.58,139.3,56.11,43.16,4.15,70.12-14.93,100-12.11,33.57,3.12,27.46,64.75,65.13,76.71,49.84,15.83,80.9,54.9,121.43,70.87,24.3,9.58,54,15.85,89.85,17.41,44.16,1.93,73.33-12.37,101.91-32.65,16.68-11.83,43.18-26.5,79.85-35.2,28.31-6.72,53.09-12.28,73.58-7.63,7.82,1.78,19.94,2.47,34.2,4,9,1,18.28,2.58,28.31,4,13.19,1.87,27.68,3.88,45.16,5.38,13.67,1.18,28.15,2.07,47,2.57,13.57.36,29.56.29,47.22-.68,34.18-1.87,71.69-5.19,102.07-9,90.7-11.33,149-54.76,189.39-120.81,27.49-45,19.59-84.83,55.92-114,17.14-13.74,36.68-18.89,51.81-21.49,49.13-8.45,88.34,45.61,218.09,73.19,62.53,13.53,104,26.51,155.19,59.87,27,17.6,49.53,36.32,87.85,57.56,21.54,11.94,43.36,20.22,57.89,25.44,25.48,9.16,43.21,12.24,68.74,20.76,41.28,13.93,72,30.19,101.52,42.47,228.4,95,315.08,123.65,371.39,159.57,72.28,46.1,131.52,89.35,173.15,125.49"/><path class="cls-2" d="M-45.74,857.22c17.89-6.77,43.51-14.23,72-11.17,69,7.4,90.8,65.89,156.22,72.94,50.24,5.42,80.11-18.65,113.61-15.67,37.86,3.33,26,79.48,69,92.75,49.54,15.31,82.73,56.6,125.79,69.17,25.42,7.42,56.87,10.68,92.8,8.68,43.79-2.44,74.21-20.29,98.57-45.17,14.84-15.15,40.45-33.71,75.63-45.9,27.86-9.65,53.14-17.63,74.05-13.17,7,1.48,19.59,1.6,35.08,2.51,9.09.54,18.66,1.68,29.09,2.61,13.42,1.19,28.33,2.42,46.34,3,14,.44,28.6.52,48.09,0,13.73-.37,30.13-1.41,48.09-3.48,35.09-4.06,73.71-10.11,103.3-16.09,90.89-18.36,140.81-72.85,179.41-142.55,25.5-46.05,21.92-86.8,60.15-114.7,19.54-14.25,41-18.27,55.26-20.26,53.1-7.41,87.58,59.81,223.79,89.16,68.64,15,109.36,28.74,160.45,67,27.05,20.27,48,41.78,88.16,66.05,22.91,13.84,46.06,23,60,28.23,27.36,10.21,44.9,12.6,72,21.8,44.8,15.35,76,33.41,105.48,46.48,196.53,87.11,275.46,111.52,327.49,146,63,41.67,115.45,80.07,152.44,113.11"/><path class="cls-2" d="M-47.26,887.37c19.75-7.54,48.63-15.87,80.82-11.72,78.52,10.13,99.8,81.2,173.15,89.78C264,972.12,296.8,943,333.89,946.2c42.14,3.55,24.54,94.27,72.81,108.79,49.23,14.82,84.55,58.36,130.16,67.48,26.53,5.3,59.72,5.55,95.75-.05,43.42-6.75,74.89-28.36,95.22-57.69,12.88-18.58,37.69-41,71.42-56.59,27.39-12.65,53.17-23,74.53-18.71,6.08,1.21,19.33-.66,36,1,9.13.93,19,.79,29.86,1.21,13.64.52,29,1,47.53.6,14.33-.29,29.06-1,49.15-2.59,13.9-1.09,30.7-3.11,49-6.28,36-6.26,75.72-15.1,104.54-23.19,91.06-25.58,132.71-90.9,169.42-164.29,23.57-47.12,24.32-88.65,64.38-115.44,22-14.69,45.32-17.58,58.72-19,57.11-6.17,86.81,74,229.49,105.13,74.75,16.54,114.73,31,165.71,74.19,27.08,23,46.39,47.25,88.46,74.54,24.28,15.75,48.75,25.88,62,31,29.22,11.3,46.59,13,75.28,22.84,48.33,16.78,80,36.58,109.44,50.49,165.12,77.93,235.85,99.35,283.59,132.35,53.69,37.12,99.38,70.79,131.73,100.73"/><path class="cls-2" d="M-48.78,917.51C-27.16,909.2,5,900,40.87,905.25c88,12.85,108.8,96.53,190.08,106.61,64.38,8,100.07-26.1,140.74-22.78,46.43,3.76,23.06,109.1,76.65,124.83,48.91,14.36,86.37,60.18,134.53,65.78,27.64,3.22,62.57.46,98.7-8.79,43.07-11,75.37-36.48,91.88-70.21,10.79-22,34.89-48.4,67.2-67.29,26.88-15.71,53.2-28.26,75-24.25,5.2,1,18.92-1.32,36.84-.45,9.26.45,19.42-.38,30.64-.19,13.86.23,29.63-.47,48.71-1.79,14.67-1,29.52-2.52,50.21-5.17,14.07-1.8,31.27-4.82,49.82-9.08,36.88-8.47,77.71-20.14,105.77-30.3,91.15-33,124.7-108.91,159.43-186,21.69-48.16,26.75-90.39,68.61-116.17,24.45-15.06,49.65-16.84,62.17-17.8,61.13-4.67,86.05,88.21,235.19,121.11,80.85,18,120.08,33.23,171,81.35,27.11,25.64,44.8,52.74,88.77,83,25.65,17.67,51.43,28.73,64.09,33.8,31.06,12.44,48.28,13.33,78.55,23.89,51.85,18.2,83.95,39.68,113.41,54.5,134.2,67.51,196.26,87.1,239.68,118.75,44.5,32.43,83.31,61.51,111,88.35"/><path class="cls-2" d="M-50.3,947.66c23.48-9.09,58.85-19.07,98.48-12.81,97.49,15.77,117.77,112,207,123.44,71.43,9.42,110.05-29.83,154.31-26.33,50.72,4,21.57,124,80.48,140.88,48.59,13.92,88.2,62.05,138.9,64.09,28.76,1.16,65.44-4.59,101.65-17.52,42.74-15.26,75.69-44.54,88.53-82.72,8.57-25.48,32-55.83,63-78,26.31-18.82,53.22-33.51,75.48-29.79,4.32.72,18.57-.72,37.72-1.92,9.37-.59,19.8-1,31.41-1.59,14.09-.78,30.27-1.91,49.89-4.19,15-1.74,30-4,51.28-7.74,14.24-2.49,31.83-6.54,50.69-11.88,37.77-10.71,79.66-25.23,107-37.4,91.14-40.57,116.79-126.89,149.45-207.78,19.86-49.18,29.21-92.05,72.85-116.91,27-15.36,54-17.4,65.62-16.56,65.05,4.65,85.29,102.4,240.9,137.08,87,19.55,125.34,35.57,176.22,88.51,27.08,28.38,43.2,58.24,89.08,91.53,27,19.59,54.1,31.59,66.16,36.58,32.89,13.62,50,13.7,81.82,24.93,55.37,19.63,88,42.67,117.37,58.51,103.8,55.89,156.71,74.74,195.78,105.14,35.42,27.56,67.23,52.24,90.3,76"/><path class="cls-2" d="M-51.83,977.8c25.34-9.86,64-20.73,107.31-13.36,107,18.45,126.77,127.32,223.93,140.27,78.5,10.67,120-33.55,167.87-29.89,55,4.19,20.06,138.94,84.32,156.92,48.27,13.5,90.05,64,143.26,62.39,29.89-.88,68.35-9.62,104.6-26.25,42.44-19.47,75.89-52.51,85.19-95.24,6.28-28.87,29.09-63.29,58.77-88.68,25.68-22,53.22-38.65,76-35.34,3.44.5,18.25-1.4,38.6-3.4,9.47-.93,20.18-1.81,32.19-3,14.32-1.41,30.93-3.35,51.08-6.58,15.33-2.46,30.46-5.5,52.34-10.32a523.32,523.32,0,0,0,51.56-14.69c38.65-13,81.58-30.36,108.24-44.5,91-48.29,109-144.85,139.46-229.52,18.08-50.2,31.66-93.64,77.08-117.65,29.48-15.59,58.33-16.18,69.07-15.33,68.94,5.46,84.53,116.6,246.6,153.05,93.07,21.06,130.7,37.8,181.48,95.68,27.11,31.05,41.6,63.74,89.39,100a332.33,332.33,0,0,0,68.23,39.37c34.69,14.85,51.66,14.07,85.09,26,58.9,21.05,92.07,45.45,121.33,62.52,74,43.15,117.29,62.19,151.88,91.53,26.49,22.46,51.16,43,69.59,63.6"/><path class="cls-2" d="M-53.35,1007.95C-26.14,997.31,15.74,985.56,62.79,994c116.5,21.14,135.77,142.6,240.86,157.11,85.57,11.92,130-37.28,181.44-33.44,59.3,4.41,18.54,153.94,88.16,173,47.94,13.09,91.93,65.91,147.63,60.7,31-2.9,71.28-14.64,107.55-35,42.18-23.66,76-60.39,81.84-107.76,3.94-32.21,26.09-70.76,54.56-99.37,25-25.12,53.2-43.58,76.43-40.88,2.56.3,18-2,39.48-4.88,9.58-1.27,20.57-2.66,33-4.39,14.56-2,31.58-4.76,52.26-9,15.67-3.16,30.94-7,53.4-12.9,14.6-3.86,32.93-10,52.43-17.49,39.49-15.28,83.45-35.51,109.47-51.61C1471.94,912,1482.5,805.3,1510.73,716.85c16.35-51.23,34.11-95.17,81.31-118.39,32-15.76,62.6-14.39,72.52-14.1,73.1,2.11,83.76,130.8,252.3,169,99.18,22.56,136.06,40,186.74,102.84,27.15,33.73,39.93,69.31,89.69,108.51a334.43,334.43,0,0,0,70.3,42.15c36.46,16.14,53.35,14.43,88.36,27,62.42,22.48,96.54,47.65,125.3,66.53,44.77,29.38,78.2,49.27,108,77.92,17.79,17.11,35.09,33.68,48.88,51.22"/><path class="cls-2" d="M-54.87,1038.09c29.07-11.4,74.21-24,125-14.45,126,23.82,144.77,157.88,257.78,173.94,92.65,13.17,140-41,195-37,63.58,4.62,17,169,92,189,47.62,12.7,93.83,67.88,152,59,69.43-10.6,184.65-66.87,189-164,3-67,76.74-159.8,127.25-156.49,1.68.11,17.66-2.64,40.36-6.36q14.55-2.39,33.74-5.79c14.8-2.65,32.23-6.21,53.44-11.36,16-3.89,31.44-8.43,54.46-15.48,44.94-13.77,126.11-52.11,164-79,141.32-100.32,69.58-330,205-392.13,34.56-15.87,66.88-13.51,76-12.87,76.93,5.46,83,145,258,185,105.29,24.07,141.42,42.25,192,110,27.18,36.4,38.36,74.76,90,117A344,344,0,0,0,2322.5,1022c38.19,17.5,55,14.8,91.63,28.06,65.94,23.9,103.27,47.16,129.26,70.54,23.39,21,60.14,52.5,92.24,103.15"/></svg>