<svg id="Layer_1" data-name="Layer 1" xmlns="http://www.w3.org/2000/svg" viewBox="0 0 2512.76 1412.74"><defs><style>.cls-1{fill:none;stroke:#c4a69d;stroke-miterlimit:10;}</style></defs><title>Artboard 1 copy 16</title><line class="cls-1" x1="-98.87" y1="895.2" x2="2547.13" y2="895.2"/><path class="cls-1" d="M-100.89,898.9c22.45-5.09,560.46,5.2,576.77,6.24,18.86,1.21,452.15,9.53,470.22,7.66,10.55-1.09,243.32-10,251.14-11.09,23.82-3.32,391.31-25.82,402-27,11.18-1.23,388,10.07,412.32,18.18,8.88,3,280.28,4.22,288.21,7.09,14.55,5.27,243,10.2,249.35,15.79"/><path class="cls-1" d="M-102.92,902.6c44.91-10.18,550.42,10.4,583,12.49,37.73,2.42,439,19.07,475.15,15.33,21.09-2.18,235.79-20,251.43-22.18,47.65-6.65,372.88-51.64,394.33-54,22.35-2.46,364.11,20.14,412.69,36.36,17.76,5.93,275,8.43,290.89,14.18,29.09,10.55,233.84,20.39,246.56,31.58"/><path class="cls-1" d="M-104.94,906.29C-37.58,891,435.44,921.89,484.38,925c56.59,3.63,425.85,28.6,480.08,23,31.64-3.27,228.26-30,251.71-33.27,71.47-10,354.45-77.45,386.63-81,33.53-3.69,340.19,30.21,413.05,54.55,26.64,8.9,269.78,12.65,293.57,21.27,43.64,15.82,224.69,30.59,243.78,47.37"/><path class="cls-1" d="M-107,910c89.82-20.36,530.34,20.8,595.59,25,75.45,4.84,412.7,38.14,485,30.66,42.18-4.36,220.72-40,252-44.36,95.29-13.3,336-103.27,378.93-108,44.71-4.93,316.27,40.28,413.42,72.73,35.52,11.86,264.53,16.87,296.25,28.36,58.18,21.09,215.54,40.79,241,63.16"/><path class="cls-1" d="M-109,913.69c112.27-25.45,520.3,26,601.86,31.22,94.32,6,399.55,47.67,489.93,38.32,52.73-5.45,213.19-50,252.28-55.45,119.12-16.62,317.59-129.09,371.22-135,55.88-6.16,292.35,50.35,413.79,90.91,44.4,14.83,259.28,21.08,298.93,35.45,72.73,26.36,206.4,51,238.21,79"/><path class="cls-1" d="M-111,917.38c134.73-30.55,510.26,31.19,608.14,37.47,113.18,7.26,386.4,57.21,494.86,46,63.27-6.55,205.66-60,252.57-66.55,142.94-19.94,299.16-154.91,363.52-162,67.06-7.39,268.43,60.42,414.16,109.09,53.28,17.79,254,25.3,301.61,42.55,87.27,31.64,197.25,61.18,235.42,94.74"/><path class="cls-1" d="M-113,921.08c157.18-35.64,500.22,36.39,614.41,43.71,132,8.47,373.25,66.74,499.79,53.65,73.82-7.64,198.13-70,252.86-77.64,166.76-23.27,280.72-180.73,355.82-189,78.24-8.62,244.51,70.49,414.53,127.27,62.16,20.76,248.78,29.52,304.28,49.64,101.82,36.91,188.1,71.38,232.64,110.53"/><path class="cls-1" d="M-115.05,924.78c179.64-40.73,490.18,41.59,620.68,50,150.91,9.68,360.1,76.27,504.72,61.31,84.36-8.73,190.6-80,253.14-88.73,190.58-26.59,262.29-206.55,348.11-216,89.41-9.85,220.59,80.57,414.9,145.45,71,23.73,243.53,33.73,307,56.73,116.36,42.18,179,81.58,229.85,126.32"/><path class="cls-1" d="M-117.08,928.47c202.09-45.82,480.14,46.79,627,56.2,169.77,10.89,347,85.81,509.64,69,94.91-9.82,183.06-90,253.43-99.82,214.41-29.92,243.86-232.36,340.41-243,100.59-11.08,196.67,90.64,415.26,163.64,79.92,26.69,238.28,37.95,309.64,63.82,130.91,47.45,169.81,91.77,227.07,142.11"/><path class="cls-1" d="M-119.1,932.17c224.55-50.91,470.1,52,633.23,62.45,188.64,12.1,333.8,95.34,514.57,76.64,105.45-10.91,175.53-100,253.71-110.91,238.23-33.24,225.43-258.18,332.7-270,111.76-12.31,172.76,100.71,415.63,181.82,88.8,29.66,233,42.16,312.32,70.91,145.45,52.73,160.66,102,224.28,157.9"/><path class="cls-1" d="M-121.12,935.87c247-56,460.06,57.19,639.5,68.69,207.5,13.31,320.65,104.88,519.5,84.31,116-12,168-110,254-122,262.05-36.57,207-284,325-297,122.94-13.54,148.84,110.78,416,200,97.69,32.62,227.77,46.38,315,78,160,58,151.52,112.17,221.5,173.69"/></svg>