<svg id="Layer_1" data-name="Layer 1" xmlns="http://www.w3.org/2000/svg" viewBox="0 0 1056 768"><defs><style>.cls-1,.cls-10,.cls-8,.cls-9{opacity:0.5;}.cls-11,.cls-2,.cls-4,.cls-9{fill:#fff;}.cls-11,.cls-3{opacity:0.3;}.cls-11,.cls-4{font-size:41.89px;font-family:HelveticaNeue-Bold, Helvetica Neue;font-weight:700;}.cls-5{letter-spacing:-0.05em;}.cls-6{letter-spacing:-0.07em;}.cls-7{opacity:0.75;}.cls-10,.cls-8{fill:none;stroke:#fff;}.cls-8{stroke-width:15px;}.cls-10{stroke-linecap:round;stroke-miterlimit:10;stroke-width:10px;}</style></defs><title>nimaArtboard 1</title><g class="cls-1"><path class="cls-2" d="M1088.85,384.09c-3.23-4.85-6.95-11.23-8.2-12.51-2.19-6.86-8.83-22.39-20.89-49.63-15.26-34.62-34.21-78.15-41.27-100.26-5.85-18.3-18.56-34.41-32-50.27C978.23,161.44,971,152,965.31,142l-.24-.76c-5.46-9.19-9.38-18.86-8-27.7,5.85-102.71-56.13-146.77-83.23-165.85-.24-.76-1-.52-1.25-1.28-4-4.61-9.26-8-14.54-11.32-18.84-11.63-50.25-10-72.36-2.94a112.43,112.43,0,0,0-33.89,17.55C729-32.06,745.17,13.2,759.6,53.13c2.19,6.86,4.39,13.72,6.09,19.06s2.92,9.15,2.37,12.69c-12.72,4.9-41,16.45-71.15,21.89-23.09,4-41.15,10.62-55.39,16-13.48,5.15-24.16,8.56-31.75,8.46-11.13-.64-31.89-20.9-48.9-37.32C534.11,68,507.1,41.35,479,45.3c-14.63-3.73-32.93,2.12-51.23,8-12.2,3.9-21.18,12.65-26.4,25.24-11,28.72-.71,76.7,27.29,124.89,13.38,23.46,19.55,55.94,27.19,93,10,52.27,22.84,116.23,60.74,182.27,42.39,72.18,44.81,100.82,46.75,127.93.85,13.17,1.94,27.11,7.78,45.41.25.76.49,1.53.73,2.29,1.74,2.8,39.06,74.92,94.73,57.14,16-5.12,30.53-12.28,45.29-18.68,16-7.64,32.09-15.29,52.68-21.86a271.43,271.43,0,0,1,55.08-11.72,260.8,260.8,0,0,0,44.68-10.07c49.57-15.83,101.82-44.29,151.79-72,23.7-12.62,44.87-25.26,66.77-35.62,21.66-11.12,34.51-26.15,40.31-44.81C1136.29,456.32,1105.49,409.86,1088.85,384.09ZM898,23.22c-.67-7.35-2.1-14.45-2.77-21.8,19.48,21.51,36.3,53.11,34.93,101.44-12-13.82-20.42-27.09-26-44.63C901.17,49.08,899.8,36.92,898,23.22ZM542.38,115c23,22.06,44,43.09,65.51,44.62,13.66.68,27.15-4.47,42.91-10.34,14.25-5.39,30-11.27,50.57-15.32a398.16,398.16,0,0,0,41.15-10.62l3.05-1c-1.56,3-3.88,6.28-5.19,10.06-9.86,19.11-35.3,28.92-55.89,35.5a246.82,246.82,0,0,1-23.88,6.78c-6.86,2.2-14,3.63-19.31,5.33-27.45,8.77-34.76,6.91-73-12.81-31.19-16.09-50.65-58.61-59.45-83.53C520.13,92.65,531.62,105,542.38,115ZM1099.16,490c-2.93,11.87-11.9,20.61-26.42,27.77-21.66,11.12-43.84,23.25-67.54,35.86C956,581.14,905.27,609.11,858,624.21c-14.48,4.63-27.69,8-39.86,9.38a330,330,0,0,0-59.66,13.17c-22.11,7.06-39.68,15.2-55.72,22.84a284,284,0,0,1-42.25,17.7c-32,10.23-58.53-35.92-62.25-42.3-4.63-14.49-5.51-25.13-6.35-38.31-2.43-28.63-5.31-61.33-50.4-139.36-35.68-61.71-47.85-120.85-58.07-173.88-7.6-39.59-14.51-74.36-29.86-101.39-26.51-46.15-32.35-85.46-25.81-101.84,2.87-6.8,6.44-8.78,9.49-9.75,38.12-12.18,38.85-9.89,42.75,2.31,8,25.16,31.58,85.71,76.09,109.3,39.24,20.24,54.85,27,93,14.84a168,168,0,0,1,18.54-5.08c7.63-2.44,16.26-4.35,24.65-7,25.92-8.28,57.74-21.81,71.75-49,5.71-11.07,11.11-17.84,15.75-24.36s9.27-13,12.14-19.85c3.15-8.56,3.79-19.7-1.08-34.95l-6.33-19.82c-5.88-15.77-11.72-34.07-15.07-49.81-3.8-19.79-1-24.06-1-24.06a74.82,74.82,0,0,1,24.46-12.86c22.88-7.3,45.38-5.25,52.64,1.68,2.25,1.8,4.75,4.36,8.78,6.44,11.73,13.05,14.22,36.63,17.23,59.2,2.09,14.45,3.18,28.39,6.84,39.83,10,31.26,26.72,49.45,48.69,73.52,5,5.12,10.24,11,15.48,16.9,6.71,10.46,15.18,21.2,22.65,31.42C976.69,204,987.9,218,992,231c7.55,23.64,27.5,67.68,43,103.07,9.35,21.38,18.21,41.23,19.92,46.57,1.46,4.58,4.69,9.43,11.15,19.13C1080.29,420.43,1106.62,460.76,1099.16,490Z"/></g><g class="cls-3"><text class="cls-4" transform="matrix(0.95, -0.3, 0.3, 0.95, 683.97, 607.86)">H<tspan class="cls-5" x="31.04" y="0">A</tspan><tspan x="57.81" y="0">VE A NICE D</tspan><tspan class="cls-6" x="307.59" y="0">A</tspan><tspan x="333.18" y="0">Y</tspan></text></g><g class="cls-7"><circle class="cls-8" cx="784.78" cy="388.38" r="102.67"/><circle class="cls-9" cx="738.63" cy="385.79" r="7.87"/><circle class="cls-9" cx="821.33" cy="361.14" r="7.87"/><path class="cls-10" d="M756.58,418.22c2.28,1.45,21.62,13.34,44.28,5.12,19.55-7.08,27.38-24,28.72-27"/></g><text class="cls-11" transform="matrix(0.95, -0.3, 0.3, 0.95, 614.49, 297.09)">THANK YOU</text></svg>