<svg id="Layer_1" data-name="Layer 1" xmlns="http://www.w3.org/2000/svg" viewBox="0 0 1056 768"><defs><style>.cls-1,.cls-10,.cls-8,.cls-9{opacity:0.5;}.cls-11,.cls-2,.cls-4,.cls-9{fill:#fff;}.cls-11,.cls-3{opacity:0.3;}.cls-11,.cls-4{font-size:30.86px;font-family:HelveticaNeue-Bold, Helvetica Neue;font-weight:700;}.cls-5{letter-spacing:-0.05em;}.cls-6{letter-spacing:-0.07em;}.cls-7{opacity:0.75;}.cls-10,.cls-8{fill:none;stroke:#fff;}.cls-8{stroke-width:15px;}.cls-10{stroke-linecap:round;stroke-miterlimit:10;stroke-width:10px;}</style></defs><title>nimaArtboard 1</title><g class="cls-1"><path class="cls-2" d="M1098.71,263.66c-2.38-3.57-5.12-8.27-6-9.22-1.61-5.05-6.5-16.49-15.39-36.56-11.24-25.5-25.2-57.57-30.41-73.86-4.3-13.49-13.67-25.35-23.59-37-6.06-7.35-11.38-14.32-15.58-21.65l-.18-.56c-4-6.76-6.91-13.89-5.9-20.4,4.31-75.67-41.35-108.14-61.32-122.19-.18-.56-.74-.38-.92-.94-2.94-3.4-6.83-5.87-10.71-8.34-13.88-8.57-37-7.37-53.32-2.17a82.64,82.64,0,0,0-25,12.93c-16.77,13.41-4.88,46.75,5.75,76.17l4.49,14c1.26,3.94,2.15,6.75,1.75,9.35C853,46.83,832.2,55.34,810,59.35c-17,3-30.31,7.82-40.8,11.8-9.94,3.79-17.8,6.3-23.4,6.23-8.2-.48-23.49-15.4-36-27.5C690,30.8,670.12,11.15,649.38,14.06c-10.79-2.75-24.27,1.56-37.75,5.87-9,2.87-15.6,9.31-19.44,18.59-8.1,21.16-.53,56.51,20.1,92,9.86,17.28,14.4,41.21,20,68.51,7.35,38.51,16.83,85.63,44.75,134.29,31.23,53.17,33,74.27,34.44,94.25.63,9.7,1.43,20,5.74,33.45l.54,1.69c1.27,2.07,28.77,55.19,69.78,42.09,11.8-3.76,22.5-9,33.37-13.75,11.82-5.64,23.64-11.27,38.81-16.11a200,200,0,0,1,40.58-8.63,193.06,193.06,0,0,0,32.92-7.42c36.52-11.67,75-32.63,111.83-53.06,17.46-9.29,33.06-18.61,49.19-26.24,16-8.19,25.42-19.26,29.7-33C1133.67,316.88,1111,282.65,1098.71,263.66ZM958.07-2.2c-.49-5.42-1.55-10.65-2-16.07,14.35,15.85,26.74,39.13,25.73,74.74-8.82-10.18-15-20-19.17-32.88C960.44,16.85,959.43,7.89,958.07-2.2Zm-262,67.58c16.95,16.25,32.42,31.74,48.26,32.87,10.07.5,20-3.29,31.62-7.62,10.49-4,22.11-8.3,37.25-11.28a294.84,294.84,0,0,0,30.32-7.83l2.24-.72C844.66,73,843,75.43,842,78.22c-7.26,14.08-26,21.3-41.17,26.15-6.18,2-11.8,3.77-17.6,5C778.16,111,772.92,112,769,113.29c-20.23,6.46-25.62,5.09-53.78-9.44-23-11.85-37.32-43.18-43.81-61.54C679.71,49,688.18,58,696.11,65.38Zm410.2,276.34c-2.16,8.73-8.77,15.18-19.47,20.45-15.95,8.2-32.29,17.13-49.75,26.42-36.25,20.25-73.63,40.86-108.46,52-10.67,3.41-20.4,5.9-29.37,6.91a243.77,243.77,0,0,0-44,9.7c-16.29,5.21-29.23,11.2-41,16.83a209.21,209.21,0,0,1-31.13,13c-23.59,7.54-43.12-26.47-45.86-31.16-3.41-10.68-4.06-18.52-4.68-28.23-1.79-21.09-3.91-45.18-37.13-102.67-26.29-45.46-35.25-89-42.78-128.11-5.61-29.16-10.69-54.78-22-74.69-19.53-34-23.82-63-19-75,2.11-5,4.74-6.47,7-7.19,28.09-9,28.63-7.28,31.5,1.7,5.92,18.54,23.27,63.15,56.06,80.53,28.91,14.92,40.41,19.91,68.5,10.94a121.37,121.37,0,0,1,13.66-3.75c5.62-1.79,12-3.21,18.16-5.18,19.1-6.1,42.54-16.06,52.86-36.08C863.59,80,867.57,75,871,70.19s6.84-9.62,9-14.62c2.32-6.32,2.79-14.52-.79-25.75l-4.67-14.61a275.28,275.28,0,0,1-11.1-36.69c-2.8-14.59-.71-17.73-.71-17.73a55.05,55.05,0,0,1,18-9.47c16.85-5.39,33.43-3.87,38.78,1.23a34.68,34.68,0,0,0,6.47,4.74c8.64,9.62,10.48,27,12.69,43.62,1.55,10.65,2.35,20.92,5,29.34,7.36,23,19.69,36.43,35.88,54.17,3.68,3.78,7.54,8.11,11.4,12.45,4.94,7.71,11.18,15.62,16.69,23.15,8.44,10.93,16.7,21.29,19.75,30.84,5.56,17.41,20.26,49.86,31.69,75.93,6.89,15.76,13.42,30.39,14.67,34.32,1.08,3.37,3.46,6.94,8.22,14.09C1092.41,290.44,1111.8,320.15,1106.31,341.72Z"/></g><g class="cls-3"><text class="cls-4" transform="matrix(0.95, -0.3, 0.3, 0.95, 800.43, 428.52)">H<tspan class="cls-5" x="22.87" y="0">A</tspan><tspan x="42.59" y="0">VE A NICE D</tspan><tspan class="cls-6" x="226.61" y="0">A</tspan><tspan x="245.47" y="0">Y</tspan></text></g><g class="cls-7"><circle class="cls-8" cx="874.7" cy="266.83" r="75.64"/><circle class="cls-9" cx="840.69" cy="264.92" r="5.8"/><circle class="cls-9" cx="901.62" cy="246.76" r="5.8"/><path class="cls-10" d="M853.92,288.81c1.67,1.07,15.93,9.82,32.62,3.77,14.4-5.22,20.17-17.67,21.16-19.91"/></g><text class="cls-11" transform="matrix(0.95, -0.3, 0.3, 0.95, 749.23, 199.56)">THANK YOU</text><path class="cls-2" d="M362.28,438.91V459c0,52.16,40.44,87.2,100.63,87.2H570.24c60.18,0,100.62-35,100.62-87.2V438.91a20.13,20.13,0,0,0,0-40.25H656.39c-5.26-18.68-32.23-33.22-69.69-38.29l-.1-60.23,125.88-26.33a6.71,6.71,0,0,0,5.2-7.88l-5.23-26.32a6.72,6.72,0,0,0-7.89-5.27l-.07,0L586.52,259V241.31L691.43,191a6.71,6.71,0,0,0,3.15-8.95h0L683,157.88a6.71,6.71,0,0,0-8.94-3.16L559.56,209.58a20,20,0,0,0-11.06-16.73,19.69,19.69,0,0,0-20.56,1.58l-59,36.44a6.7,6.7,0,0,0-3.18,5.71v17.93l-27.71,13.26a19.92,19.92,0,0,0-10.24,24.7,20.07,20.07,0,0,0,10.5,38.68l27.55-5.76.05,40.75a53.94,53.94,0,0,0-6.38,1.68,53.46,53.46,0,0,0-33.55,0,53.44,53.44,0,0,0-16.78-2.7c-23.22,0-42.5,14.54-46.25,33.54h-.71a20.13,20.13,0,0,0,0,40.25ZM657.44,459c0,51-43.8,73.79-87.2,73.79H462.91C419.5,532.83,375.7,510,375.7,459V438.91H657.44Zm43.18-210.17L703.24,262,586.57,286.44v-13.7ZM638.81,394.7a103.23,103.23,0,0,0-58.51-16.16c-25.84,0-49.21,7.52-63.47,20.12h-45.1c8.28-13.75,40.89-26.83,85.09-26.83C596.74,371.83,627.17,382.5,638.81,394.7Zm-21,4H542.77A108.39,108.39,0,0,1,617.83,398.66ZM479.31,322.59l13.41-2.81.07,47.92a53.26,53.26,0,0,0-13.42-2.43ZM506.14,317l13.42-2.8.07,47.37q-7,1.23-13.42,2.89ZM533,311.36l13.42-2.8.07,50.09c-4.6.2-9.05.58-13.41,1Zm26.83-5.61,13.42-2.8.09,56.09q-6.55-.46-13.41-.56Zm114-136,5.8,12.08-120,57.47V224.4Zm-100.73,92.1-13.41,2.8v-10.5l13.41-6.42Zm-37.62-56.35a6.7,6.7,0,0,1,10.73,5.37l.08,56.59-13.42,2.8-.08-63.1Zm-16.1,9.95.08,57.61-13.42,2.8L506,223.71Zm-40.2,24.86L492.58,232l.06,46.64-13.41,2.81Zm-38.72,43.41a6.75,6.75,0,0,1,3.43-3.82l21.9-10.49v14.91l-24.54,5.13c-.15-.23-.39-.36-.51-.61A6.69,6.69,0,0,1,440.47,283.69ZM435.6,318a6.7,6.7,0,0,1-7.94-5.19l0-.07a6.71,6.71,0,0,1,5.21-7.87l140.28-29.35v13.7Zm37.21,60.8a37.74,37.74,0,0,0-15.57,19.84H444A32.11,32.11,0,0,1,472.81,378.82Zm-31.52-.16a38,38,0,0,0-11.22,20H410.44a32.61,32.61,0,0,1,30.85-20Zm-33.54,0a38,38,0,0,0-11.22,20H376.89a32.63,32.63,0,0,1,30.86-20Zm-45.47,33.42H670.86a6.71,6.71,0,0,1,0,13.42H362.28a6.71,6.71,0,0,1,0-13.42Z"/><path class="cls-2" d="M409.24,255.49a20.32,20.32,0,0,1,5.9-14.23l11.11-11.11a33.31,33.31,0,0,0,9.82-23.72V184H422.66v22.43a20.3,20.3,0,0,1-5.9,14.23l-11.11,11.11a33.36,33.36,0,0,0-9.83,23.72v29.14h13.42Z"/><path class="cls-2" d="M383.22,317.35a20,20,0,0,1,5.9,14.23V347.3h13.41V331.58a33.35,33.35,0,0,0-9.82-23.72L381.6,296.75a20.27,20.27,0,0,1-5.9-14.22V266.8H362.28v15.72a33.32,33.32,0,0,0,9.83,23.71Z"/><path class="cls-2" d="M640.44,348.59l11.1,11.12a15.69,15.69,0,0,1,5.9,12.12h13.42A29,29,0,0,0,661,350.22L649.92,339.1a20,20,0,0,1-5.9-14.23H630.61A33.29,33.29,0,0,0,640.44,348.59Z"/><rect class="cls-2" x="362.28" y="237.67" width="13.42" height="13.42"/><rect class="cls-2" x="422.66" y="157.17" width="13.42" height="13.42"/><rect class="cls-2" x="348.87" y="351.71" width="13.42" height="13.42"/><rect class="cls-2" x="630.61" y="298.04" width="13.42" height="13.42"/><path class="cls-2" d="M456.2,519.41H483V506H456.2c-24.82,0-53.67-20.51-53.67-46.95v-6.71H389.12V459C389.12,493.59,424.53,519.41,456.2,519.41Z"/><rect class="cls-2" x="496.45" y="505.99" width="13.42" height="13.42"/></svg>