<svg id="Layer_1" data-name="Layer 1" xmlns="http://www.w3.org/2000/svg" viewBox="0 0 15 15"><title>icon-dress</title><path d="M14.48,15a.5.5,0,0,0,.5-.5V4.32a2.17,2.17,0,0,0-1.85-2.1L11.74,2,11.34,1a1,1,0,0,0-.61-.56L10.49.41a9.51,9.51,0,0,0-6,.08A1,1,0,0,0,3.94,1l-.23.54h0L3.54,2l-1.65.26A2.16,2.16,0,0,0,0,4.33V14.5a.5.5,0,0,0,.5.5ZM4.73,1A8.87,8.87,0,0,1,10.31.93l.24.07a.44.44,0,0,1,.26.24l.22.52h0a2.65,2.65,0,0,1,.21,1v.61a4.08,4.08,0,0,1-.48,1.89l-.57,1-2-1.41A3.94,3.94,0,0,0,10,4.2L10.33,4a.66.66,0,0,0,.27-.53,3.91,3.91,0,0,0-.3-1.51L10.05,2l.25-.1a.93.93,0,0,0-.57-.51l-.16,0a6.46,6.46,0,0,0-4,0A.88.88,0,0,0,5,1.9a3.84,3.84,0,0,0-.31,1.53A.66.66,0,0,0,5,4l.32.24a3.92,3.92,0,0,0,1.61.7L5.08,6.33l-.56-1A3.9,3.9,0,0,1,4,3.41v-.6a2.65,2.65,0,0,1,.21-1l.23-.54A.38.38,0,0,1,4.73,1Zm.86,2.8-.32-.23a.21.21,0,0,1-.07-.14,3.51,3.51,0,0,1,.28-1.35.4.4,0,0,1,.23-.21,5.9,5.9,0,0,1,1.92-.32,5.71,5.71,0,0,1,1.78.28l.16,0a.39.39,0,0,1,.24.21h0a3.44,3.44,0,0,1,.27,1.33.17.17,0,0,1-.07.13l-.32.24A3.45,3.45,0,0,1,5.59,3.8ZM1.1,14.47A.5.5,0,0,1,.6,14V4.36A1.62,1.62,0,0,1,2,2.78l1.48-.24c0,.09,0,.18,0,.27v.62A4.67,4.67,0,0,0,4,5.59l.67,1.25A.45.45,0,0,0,5,7H5A.39.39,0,0,0,5.28,7l2.23-1.8L10,7a.41.41,0,0,0,.26.09h.06a.41.41,0,0,0,.29-.2l.66-1.24a4.61,4.61,0,0,0,.54-2.19v-.6a2.26,2.26,0,0,0,0-.26L13,2.76A1.63,1.63,0,0,1,14.4,4.34v9.6a.5.5,0,0,1-.5.5Z"/></svg>