<svg id="Layer_1" data-name="Layer 1" xmlns="http://www.w3.org/2000/svg" viewBox="0 0 15 15"><defs><style>.cls-1{fill:none;stroke:#000;stroke-miterlimit:10;stroke-width:0.75px;}</style></defs><title>icon-parking</title><path class="cls-1" d="M13.85,14.61H1.15a.76.76,0,0,1-.76-.76V1.15A.76.76,0,0,1,1.15.39h12.7a.76.76,0,0,1,.76.76v12.7A.76.76,0,0,1,13.85,14.61Z"/><path d="M7.88,3.83h-3a0,0,0,0,0,0,0v7.3h1V8.06s0,0,0,0H8a2.09,2.09,0,0,0,2.09-2.28A2.2,2.2,0,0,0,7.88,3.83ZM8,7H6s0,0,0,0v-2a0,0,0,0,1,0,0H8A1.05,1.05,0,1,1,8,7Z"/></svg>