<svg id="Layer_1" data-name="Layer 1" xmlns="http://www.w3.org/2000/svg" viewBox="0 0 15 15"><title>icon-reservation</title><path d="M10.81,0a.35.35,0,0,1,.35.35V2.49a1.39,1.39,0,1,1-.7,0V.35A.35.35,0,0,1,10.81,0ZM4.19,0a.35.35,0,0,1,.35.35V2.49a1.39,1.39,0,1,1-.7,0V.35A.35.35,0,0,1,4.19,0Zm9.06,1.05A1.75,1.75,0,0,1,15,2.79V13.24A1.76,1.76,0,0,1,13.25,15H1.76A1.76,1.76,0,0,1,0,13.24V2.79A1.75,1.75,0,0,1,1.76,1.05h1a.35.35,0,0,1,.36.34.36.36,0,0,1-.36.35h-1a1,1,0,0,0-1,1.05V5.92H14.3V2.79a1,1,0,0,0-1.05-1h-1a.35.35,0,0,1-.35-.35.35.35,0,0,1,.35-.34Zm-3.83,0a.35.35,0,1,1,0,.69H5.59a.35.35,0,1,1,0-.69Zm1.39,2.09a.68.68,0,0,0-.69.69.69.69,0,0,0,.69.7.7.7,0,0,0,.7-.7A.69.69,0,0,0,10.81,3.14Zm-6.62,0a.69.69,0,0,0-.7.69.7.7,0,0,0,1.4,0A.69.69,0,0,0,4.19,3.14ZM14.3,6.62H.71v6.62a1,1,0,0,0,1.05,1H13.25a1,1,0,0,0,1.05-1Z"/></svg>