<svg id="Layer_1" data-name="Layer 1" xmlns="http://www.w3.org/2000/svg" viewBox="0 0 53.7 36.59"><defs><style>.cls-1{opacity:0.6;}.cls-2{fill:#fc3;}.cls-3{font-size:12px;fill:#484848;font-family:Avenir-Black, Avenir;}</style></defs><title>nimaArtboard 1</title><g class="cls-1"><path class="cls-2" d="M53.7,25.29l-1.12-6.22a.83.83,0,0,0-.54-.61l-.07,0a7.89,7.89,0,0,0-5-9.25,7.66,7.66,0,0,0-4.14-.31c-.19-.15-.34-.2-.54-.35L44,1.36a.92.92,0,0,0-.58-1,.92.92,0,0,0-1,.58l-1.6,6.84h0a8.07,8.07,0,0,0-2.74-.48L38.31.86A.89.89,0,0,0,37.54,0a1,1,0,0,0-.86.78l-.23,6.74a8.34,8.34,0,0,0-5,3.65l-.15-.05a.8.8,0,0,0-.79.13l-4.79,4.13a.8.8,0,1,0,1.06,1.21l3-2.6-3.29,14.9a2.36,2.36,0,0,0,1.53,2.71l13.68,4.85a2.37,2.37,0,0,0,2.9-1.14l6.83-13.63.7,3.91a.82.82,0,0,0,.53.6.75.75,0,0,0,.4.06A1,1,0,0,0,53.7,25.29Zm-17-10.59h0L50,19.42l-3,2a2.38,2.38,0,0,1-2.11.33l-10.2-3.61a2.23,2.23,0,0,1-1.44-1.6l-1.1-3.46Zm1.14-2.51.07-.89.67,0A9.93,9.93,0,0,0,37.87,12.19Zm-1.57.69-.89-.32a4.64,4.64,0,0,1,.93-.75Zm11.23,4a3.13,3.13,0,0,0-2.09-3.24,3.19,3.19,0,0,0-3.67,1.2L41,14.55a3.92,3.92,0,0,1,7.24,2.58Zm-1.62-.57-2.52-.9a1.54,1.54,0,0,1,1.52-.29A1.52,1.52,0,0,1,45.91,16.29Zm4.58,1.62-.74-.26A5.46,5.46,0,0,0,39.55,14l-.74-.26a6.24,6.24,0,0,1,11.68,4.14ZM40.31,9.31l.59.21a2.81,2.81,0,0,0-.85.53h0A5.91,5.91,0,0,0,38,9.73l0-.81A7,7,0,0,1,40.31,9.31Zm-3.87-.13,0,.82a5.6,5.6,0,0,0-2.59,1.91l-.74-.26A6.13,6.13,0,0,1,36.44,9.18Zm6.73,25.36a.82.82,0,0,1-1,.4L28.6,30.12a.85.85,0,0,1-.51-.93l3.1-14.13.56,2a4,4,0,0,0,2.48,2.62l10.28,3.65a4.08,4.08,0,0,0,3.58-.48l1.66-1.16Z"/><path class="cls-2" d="M38.81,22.92a3.14,3.14,0,1,0,1.9,4A3.15,3.15,0,0,0,38.81,22.92Zm-1.58,4.44a1.57,1.57,0,1,1,2-1A1.58,1.58,0,0,1,37.23,27.36Z"/><path class="cls-2" d="M43.93,27.24l-1.47-.53a.79.79,0,1,0-.53,1.48l1.48.53a.75.75,0,0,0,1-.48A.73.73,0,0,0,43.93,27.24Z"/><path class="cls-2" d="M33.59,23.57,32.11,23a.73.73,0,0,0-1,.48.74.74,0,0,0,.47,1l1.48.52a.78.78,0,1,0,.53-1.47Z"/></g><text class="cls-3" transform="translate(0 18.77)">CHOW</text><text class="cls-3" transform="translate(0 29.94)">FUN</text></svg>