<svg id="Layer_1" data-name="Layer 1" xmlns="http://www.w3.org/2000/svg" viewBox="0 0 66.37 10.59"><defs><style>.cls-1{opacity:0.6;}.cls-2{fill:#fc3;}.cls-3{fill:#484848;}</style></defs><title>nimaArtboard 1</title><g class="cls-1"><path class="cls-2" d="M26.63,6.12l-1-1.69a.23.23,0,0,0-.22-.11h0A2.42,2.42,0,0,0,23,2.16a2.32,2.32,0,0,0-1.23.34,1.33,1.33,0,0,1-.19,0L21.34.22A.3.3,0,0,0,21.07,0a.27.27,0,0,0-.21.27l.24,2.14h0a2.64,2.64,0,0,0-.84.14L19.65.65a.27.27,0,0,0-.31-.16.3.3,0,0,0-.17.31l.64,2a2.55,2.55,0,0,0-1.06,1.57H18.7a.26.26,0,0,0-.21.12l-1,1.69a.27.27,0,0,0,.1.34.28.28,0,0,0,.34-.1l.59-1.06.6,4.64a.72.72,0,0,0,.72.62h4.45a.73.73,0,0,0,.72-.63l.56-4.65.61,1.06a.26.26,0,0,0,.22.12.19.19,0,0,0,.12,0A.28.28,0,0,0,26.63,6.12Zm-6-1.31H25l-.64.89a.8.8,0,0,1-.58.32H20.42a.69.69,0,0,1-.58-.31l-.68-.89ZM20.7,4l-.07-.26.19-.08A2.36,2.36,0,0,0,20.7,4Zm-.38.36H20A1.61,1.61,0,0,1,20.22,4Zm3.65,0A1,1,0,0,0,23,3.6a1,1,0,0,0-.93.73h-.24a1.19,1.19,0,0,1,1.17-1,1.21,1.21,0,0,1,1.18,1Zm-.53,0h-.81a.46.46,0,0,1,.4-.25A.47.47,0,0,1,23.44,4.32Zm1.5,0H24.7A1.7,1.7,0,0,0,23,2.88a1.67,1.67,0,0,0-1.65,1.45h-.25a1.92,1.92,0,0,1,3.81,0ZM21.11,2.89h.19a.75.75,0,0,0-.19.24h0a1.86,1.86,0,0,0-.63.12L20.41,3A2.23,2.23,0,0,1,21.11,2.89ZM20,3.25l.07.24a1.66,1.66,0,0,0-.55.82h-.24A1.87,1.87,0,0,1,20,3.25Zm4.57,6.63a.25.25,0,0,1-.24.21l-4.43,0a.26.26,0,0,1-.24-.22l-.57-4.4.36.51a1.24,1.24,0,0,0,1,.5h3.35a1.26,1.26,0,0,0,1-.51l.36-.51Z"/><path class="cls-2" d="M22.08,7a1,1,0,1,0,1,1A1,1,0,0,0,22.08,7Zm0,1.45a.48.48,0,0,1-.48-.48.47.47,0,0,1,.47-.48.47.47,0,0,1,.49.47A.49.49,0,0,1,22.09,8.42Z"/><path class="cls-2" d="M24,7.69h-.48a.24.24,0,0,0,0,.48H24a.24.24,0,0,0,0-.48Z"/><path class="cls-2" d="M20.64,7.7h-.48a.23.23,0,0,0-.24.24.23.23,0,0,0,.24.24h.48a.22.22,0,0,0,.24-.24A.23.23,0,0,0,20.64,7.7Z"/></g><path class="cls-3" d="M6,4.09a1.75,1.75,0,0,0-.68-.52,2.2,2.2,0,0,0-.93-.18,2.25,2.25,0,0,0-1,.21,2.19,2.19,0,0,0-.78.57A2.52,2.52,0,0,0,2.13,5a3.2,3.2,0,0,0-.19,1.09,3.26,3.26,0,0,0,.19,1.1,2.55,2.55,0,0,0,.51.86,2.49,2.49,0,0,0,.76.57,2.15,2.15,0,0,0,.94.2A2,2,0,0,0,6.1,8L7.66,9.12a3.28,3.28,0,0,1-1.37,1.11,4.23,4.23,0,0,1-1.71.36,5.17,5.17,0,0,1-1.83-.31A4.26,4.26,0,0,1,1.3,9.39,4.11,4.11,0,0,1,.34,8,4.8,4.8,0,0,1,0,6.13,4.76,4.76,0,0,1,.34,4.28a4.11,4.11,0,0,1,1-1.41A4,4,0,0,1,2.75,2a5.17,5.17,0,0,1,1.83-.32,5,5,0,0,1,.75.07,3.52,3.52,0,0,1,.77.21,3.63,3.63,0,0,1,.73.38,2.88,2.88,0,0,1,.62.59Z"/><path class="cls-3" d="M8.68,1.88h1.87V5.05h3.63V1.88h1.88v8.5H14.18V6.7H10.55v3.68H8.68Z"/><path class="cls-3" d="M26.88,1.88h2l1.36,5.45h0l1.78-5.45h1.74l1.76,5.59h0L37,1.88h1.9l-2.49,8.5H34.78L32.9,4.5h0L31,10.38H29.4Z"/><path class="cls-3" d="M42.39,2h5.7V3.72H44.26V5.44H47.8V7.17H44.26v3.31H42.39Z"/><path class="cls-3" d="M56.59,7.1a4.14,4.14,0,0,1-.22,1.39,3.23,3.23,0,0,1-.68,1.11,3.25,3.25,0,0,1-1.12.73,4.78,4.78,0,0,1-3.11,0,3.16,3.16,0,0,1-1.12-.73,3.08,3.08,0,0,1-.68-1.11,4.14,4.14,0,0,1-.23-1.39V1.88H51.3V7a1.93,1.93,0,0,0,.13.73,1.7,1.7,0,0,0,.35.58,1.67,1.67,0,0,0,.55.39,1.73,1.73,0,0,0,.69.13,1.68,1.68,0,0,0,.68-.13,1.63,1.63,0,0,0,.54-.39,1.89,1.89,0,0,0,.36-.58A2.15,2.15,0,0,0,54.72,7V1.88h1.87Z"/><path class="cls-3" d="M58.32,2h2.55l3.61,5.9h0V2h1.87v8.49H63.93l-3.71-6h0v6H58.32Z"/></svg>