<?xml version="1.0" encoding="utf-8"?>
<!-- Generator: Adobe Illustrator 22.1.0, SVG Export Plug-In . SVG Version: 6.00 Build 0)  -->
<svg version="1.1" id="Layer_1" xmlns="http://www.w3.org/2000/svg" xmlns:xlink="http://www.w3.org/1999/xlink" x="0px" y="0px"
	 viewBox="0 0 25 25" style="enable-background:new 0 0 25 25;" xml:space="preserve">
<style type="text/css">
	.st0{opacity:0.6;}
	.st1{fill:#FFCC33;}
	.st2{fill:#484848;}
</style>
<title>nimaArtboard 1</title>
<g class="st0">
	<path class="st1" d="M17.6,159.6l-2.4-4.1c-0.1-0.2-0.3-0.3-0.5-0.3h-0.1c-0.3-3-2.8-5.3-5.8-5.3c-1.1,0-2.1,0.3-3,0.8
		c-0.2-0.1-0.3-0.1-0.5-0.1l-0.7-5.5c-0.1-0.3-0.3-0.5-0.6-0.5c-0.3,0.1-0.5,0.3-0.5,0.7l0.6,5.2l0,0c-0.7,0-1.4,0.1-2.1,0.4
		l-1.5-4.6c-0.1-0.3-0.4-0.5-0.8-0.4c-0.3,0.1-0.5,0.4-0.4,0.8l1.5,4.8c-1.3,0.9-2.2,2.3-2.6,3.8h-0.1c-0.2,0-0.4,0.1-0.5,0.3
		l-2.3,4.1c-0.1,0.3,0,0.6,0.2,0.8c0.3,0.1,0.6,0,0.8-0.2l1.5-2.6l1.5,11.4c0.1,0.9,0.9,1.5,1.8,1.5H12c0.9,0,1.6-0.7,1.8-1.5
		l1.4-11.3l1.5,2.6c0.1,0.2,0.3,0.3,0.5,0.3c0.1,0,0.2,0,0.3-0.1C17.7,160.2,17.7,159.8,17.6,159.6z M3,156.3L3,156.3h10.6l-1.6,2.2
		c-0.3,0.5-0.8,0.7-1.4,0.8H2.4c-0.6,0-1.1-0.3-1.4-0.7l-1.6-2.2L3,156.3z M3.1,154.3L3,153.6l0.5-0.2C3.3,153.7,3.2,154,3.1,154.3z
		 M2.2,155.2H1.5c0.1-0.3,0.3-0.5,0.5-0.8L2.2,155.2z M11.1,155.2c-0.3-1-1.2-1.8-2.3-1.8c-1.1,0-2,0.7-2.3,1.8H6
		c0.3-1.6,1.9-2.6,3.5-2.3c1.2,0.2,2.1,1.1,2.3,2.3L11.1,155.2z M9.8,155.2h-2c0.2-0.4,0.6-0.6,1-0.6C9.3,154.6,9.6,154.8,9.8,155.2
		L9.8,155.2z M13.5,155.2h-0.6c-0.3-2.2-2.4-3.8-4.6-3.5c-1.8,0.3-3.2,1.7-3.5,3.5H4.2c0.3-2.6,2.6-4.4,5.2-4.1
		C11.5,151.3,13.2,153,13.5,155.2z M4.1,151.7h0.5c-0.2,0.2-0.3,0.4-0.5,0.6l0,0c-0.5,0-1,0.1-1.5,0.3L2.4,152
		C3,151.8,3.5,151.6,4.1,151.7L4.1,151.7z M1.4,152.6l0.2,0.6c-0.6,0.5-1.1,1.2-1.3,2h-0.6C-0.1,154.1,0.5,153.2,1.4,152.6z
		 M12.5,168.8c-0.1,0.3-0.3,0.5-0.6,0.5H1.1c-0.3,0-0.5-0.2-0.6-0.5L-0.9,158l0.9,1.2c0.6,0.8,1.5,1.2,2.4,1.2h8.2
		c1,0,1.8-0.5,2.4-1.2l0.9-1.2L12.5,168.8z"/>
	<path class="st1" d="M6.5,161.6c-1.3,0-2.4,1.1-2.4,2.4s1.1,2.4,2.4,2.4c1.3,0,2.4-1.1,2.4-2.4c0,0,0,0,0,0
		C8.9,162.7,7.8,161.6,6.5,161.6z M6.5,165.1c-0.7,0-1.2-0.5-1.2-1.2s0.5-1.2,1.2-1.2s1.2,0.5,1.2,1.2c0,0,0,0,0,0
		C7.7,164.6,7.2,165.1,6.5,165.1C6.5,165.1,6.5,165.1,6.5,165.1L6.5,165.1z"/>
	<path class="st1" d="M11.3,163.4H10c-0.3,0-0.6,0.3-0.6,0.6c0,0.3,0.3,0.6,0.6,0.6h1.2c0.3,0,0.6-0.2,0.6-0.5c0,0,0,0,0-0.1
		C11.9,163.7,11.6,163.4,11.3,163.4C11.3,163.4,11.3,163.4,11.3,163.4z"/>
	<path class="st1" d="M3,163.4H1.8c-0.3,0-0.6,0.3-0.6,0.6s0.3,0.6,0.6,0.6H3c0.3,0,0.6-0.2,0.6-0.5c0,0,0,0,0-0.1
		C3.6,163.7,3.4,163.4,3,163.4C3,163.4,3,163.4,3,163.4z"/>
</g>
<path class="st2" d="M-24.7,152.2c-0.2-0.2-0.4-0.4-0.7-0.5c-0.3-0.1-0.6-0.2-0.9-0.2c-0.3,0-0.7,0.1-1,0.2
	c-0.3,0.1-0.6,0.3-0.8,0.6c-0.2,0.3-0.4,0.5-0.5,0.9c-0.3,0.7-0.3,1.5,0,2.2c0.1,0.3,0.3,0.6,0.5,0.9c0.2,0.2,0.5,0.4,0.8,0.6
	c0.3,0.1,0.6,0.2,0.9,0.2c0.7,0,1.4-0.3,1.8-0.9l1.6,1.2c-0.3,0.5-0.8,0.9-1.4,1.1c-0.5,0.2-1.1,0.4-1.7,0.4c-0.6,0-1.2-0.1-1.8-0.3
	c-1.1-0.4-2-1.2-2.4-2.3c-0.2-0.6-0.3-1.2-0.3-1.9c0-0.6,0.1-1.3,0.3-1.9c0.4-1.1,1.3-1.9,2.4-2.3c0.6-0.2,1.2-0.3,1.8-0.3
	c0.3,0,0.5,0,0.8,0.1c0.3,0.1,0.5,0.1,0.8,0.2c0.3,0.1,0.5,0.2,0.7,0.4c0.2,0.2,0.4,0.4,0.6,0.6L-24.7,152.2z"/>
<path class="st2" d="M-22.1,150h1.9v3.2h3.6V150h1.9v8.5h-1.9v-3.7h-3.6v3.7h-1.9V150z"/>
<path class="st2" d="M-13.4,154.3c0-0.6,0.1-1.3,0.3-1.9c0.4-1.1,1.3-1.9,2.4-2.3c1.2-0.4,2.5-0.4,3.7,0c0.5,0.2,1,0.5,1.5,0.9
	c0.4,0.4,0.7,0.9,1,1.4c0.2,0.6,0.4,1.2,0.4,1.9c0,0.6-0.1,1.3-0.4,1.8c-0.2,0.5-0.5,1-1,1.4c-0.4,0.4-0.9,0.7-1.5,0.9
	c-1.2,0.4-2.5,0.4-3.7,0c-1.1-0.4-2-1.2-2.4-2.3C-13.3,155.6-13.4,154.9-13.4,154.3z M-11.5,154.3c0,0.4,0.1,0.7,0.2,1.1
	c0.1,0.3,0.3,0.6,0.5,0.9c0.2,0.3,0.5,0.4,0.8,0.6c0.3,0.1,0.7,0.2,1.1,0.2c0.4,0,0.7-0.1,1.1-0.2c0.3-0.1,0.6-0.3,0.8-0.6
	c0.2-0.2,0.4-0.5,0.5-0.9c0.2-0.7,0.2-1.5,0-2.2c-0.1-0.3-0.3-0.6-0.5-0.9c-0.2-0.2-0.5-0.4-0.8-0.6c-0.3-0.1-0.7-0.2-1.1-0.2
	c-0.4,0-0.7,0.1-1.1,0.2c-0.3,0.1-0.6,0.3-0.8,0.6c-0.2,0.2-0.4,0.5-0.5,0.9C-11.4,153.6-11.5,153.9-11.5,154.3z"/>
<path class="st2" d="M-3.9,150h2l1.4,5.4l0,0l1.8-5.4H3l1.8,5.6l0,0l1.5-5.6h1.9l-2.5,8.5H4l-1.9-5.9l0,0l-1.9,5.9h-1.6L-3.9,150z"
	/>
<path class="st2" d="M-30.2,161.2h5.7v1.7h-3.8v1.7h3.5v1.7h-3.5v3.3h-1.9V161.2z"/>
<path class="st2" d="M-16,166.4c0,0.5-0.1,0.9-0.2,1.4c-0.3,0.9-1,1.5-1.8,1.8c-0.5,0.2-1,0.3-1.5,0.3c-0.5,0-1.1-0.1-1.6-0.3
	c-0.4-0.2-0.8-0.4-1.1-0.7c-0.3-0.3-0.5-0.7-0.7-1.1c-0.2-0.4-0.2-0.9-0.2-1.4v-5.2h1.9v5.1c0,0.2,0,0.5,0.1,0.7
	c0.1,0.2,0.2,0.4,0.4,0.6c0.2,0.2,0.3,0.3,0.6,0.4c0.2,0.1,0.5,0.1,0.7,0.1c0.2,0,0.5,0,0.7-0.1c0.2-0.1,0.4-0.2,0.5-0.4
	c0.2-0.2,0.3-0.4,0.4-0.6c0.1-0.2,0.1-0.5,0.1-0.7v-5.1h1.9V166.4z"/>
<path class="st2" d="M-14.3,161.2h2.5l3.6,5.9l0,0v-5.9h1.9v8.5h-2.4l-3.7-6l0,0v6h-1.9V161.2z"/>
<g>
	<path class="st1" d="M23.1,14.5l-2.2-3.9c-0.1-0.2-0.3-0.3-0.5-0.3h-0.1c-0.3-2.8-2.7-5-5.5-5c-1,0-2,0.3-2.8,0.8
		c-0.2,0-0.3,0-0.4-0.1l-0.6-5.2c-0.1-0.3-0.3-0.5-0.6-0.5C9.9,0.3,9.7,0.6,9.7,0.9l0.6,5l0,0C9.6,5.9,9,6,8.3,6.2L6.9,1.8
		C6.8,1.5,6.5,1.3,6.2,1.4C5.9,1.5,5.8,1.8,5.8,2.1l1.5,4.6C6,7.6,5.2,8.9,4.8,10.3H4.7c-0.2,0-0.4,0.1-0.5,0.3L2,14.5
		c-0.1,0.3,0,0.6,0.2,0.8c0.3,0.1,0.6,0,0.8-0.2l1.4-2.5l1.4,10.8c0.1,0.8,0.8,1.5,1.7,1.4h10.3c0.8,0,1.6-0.6,1.7-1.5l1.3-10.7
		l1.4,2.4c0.1,0.2,0.3,0.3,0.5,0.3c0.1,0,0.2,0,0.3-0.1C23.1,15.1,23.2,14.8,23.1,14.5z M9.2,11.4L9.2,11.4h10l-1.5,2.1
		c-0.3,0.4-0.8,0.7-1.3,0.7H8.7c-0.5,0-1-0.2-1.3-0.7l-1.6-2.1L9.2,11.4z M9.4,9.5L9.2,8.9l0.4-0.2C9.5,9,9.4,9.2,9.4,9.5z
		 M8.5,10.3H7.8c0.1-0.3,0.3-0.5,0.4-0.7L8.5,10.3z M16.9,10.3c-0.3-1-1.2-1.7-2.2-1.7c-1,0-1.9,0.7-2.2,1.7H12
		c0.3-1.5,1.8-2.5,3.3-2.2c1.1,0.2,2,1.1,2.2,2.2L16.9,10.3z M15.7,10.3h-1.9c0.2-0.3,0.6-0.6,0.9-0.6C15.2,9.8,15.5,10,15.7,10.3
		L15.7,10.3z M19.2,10.3h-0.6c-0.3-2.1-2.3-3.6-4.4-3.3c-1.7,0.2-3.1,1.6-3.3,3.3h-0.6c0.3-2.4,2.5-4.2,4.9-3.9
		C17.3,6.6,18.9,8.3,19.2,10.3z M10.3,7h0.4c-0.2,0.2-0.3,0.4-0.4,0.6l0,0c-0.5,0-1,0.1-1.4,0.3L8.7,7.3C9.2,7.1,9.7,7,10.3,7
		L10.3,7z M7.7,7.9l0.2,0.5c-0.6,0.5-1,1.2-1.3,1.9H6C6.3,9.3,6.8,8.5,7.7,7.9z M18.3,23.2c0,0.3-0.3,0.5-0.6,0.5H7.4
		c-0.3,0-0.5-0.2-0.6-0.5L5.6,13l0.8,1.2c0.5,0.7,1.4,1.2,2.3,1.2h7.8c0.9,0,1.7-0.5,2.3-1.2l0.8-1.2L18.3,23.2z"/>
	<path class="st1" d="M12.6,16.4c-1.2,0-2.2,1-2.2,2.2c0,1.2,1,2.2,2.2,2.2c1.2,0,2.2-1,2.2-2.2c0,0,0,0,0,0
		C14.8,17.4,13.8,16.4,12.6,16.4z M12.6,19.8c-0.6,0-1.1-0.5-1.1-1.1s0.5-1.1,1.1-1.1s1.1,0.5,1.1,1.1c0,0,0,0,0,0
		C13.7,19.3,13.2,19.8,12.6,19.8C12.6,19.8,12.6,19.8,12.6,19.8L12.6,19.8z"/>
	<path class="st1" d="M17.1,18.1h-1.2c-0.3,0-0.6,0.3-0.6,0.6c0,0.3,0.3,0.6,0.6,0.6h1.2c0.3,0,0.5-0.2,0.5-0.5c0,0,0,0,0,0
		C17.6,18.4,17.4,18.1,17.1,18.1C17.1,18.1,17.1,18.1,17.1,18.1z"/>
	<path class="st1" d="M9.2,18.1H8.1c-0.3,0-0.6,0.3-0.6,0.6s0.3,0.6,0.6,0.6h1.1c0.3,0,0.5-0.2,0.5-0.5c0,0,0,0,0,0
		C9.8,18.4,9.6,18.1,9.2,18.1C9.3,18.1,9.2,18.1,9.2,18.1z"/>
</g>
</svg>
