<?xml version="1.0" encoding="utf-8"?>
<!-- Generator: Adobe Illustrator 22.1.0, SVG Export Plug-In . SVG Version: 6.00 Build 0)  -->
<svg version="1.1" id="Layer_1" xmlns="http://www.w3.org/2000/svg" xmlns:xlink="http://www.w3.org/1999/xlink" x="0px" y="0px"
	 viewBox="0 0 38 44" style="enable-background:new 0 0 38 44;" xml:space="preserve">
<style type="text/css">
	.st0{fill:#FFCC33;}
</style>
<g>
	<g>
		<path class="st0" d="M37.9,25.5l-4-7C33.7,18.2,33.4,18,33,18h-0.1c-0.5-5-4.8-9-9.9-9c-1.9,0-3.6,0.5-5.1,1.4
			c-0.3-0.1-0.5-0.1-0.8-0.2L16,0.9C15.9,0.4,15.4,0,14.9,0C14.4,0.1,14,0.6,14,1.1l1,8.9l0,0c-1.2,0-2.4,0.2-3.5,0.6L9,2.7
			C8.8,2.2,8.3,1.9,7.7,2C7.2,2.2,6.9,2.8,7,3.3l2.6,8.2C7.4,13,5.8,15.3,5.2,18H5c-0.4,0-0.7,0.2-0.9,0.5l-4,7
			C-0.1,26,0,26.6,0.5,26.9C1,27.1,1.6,27,1.9,26.5l2.5-4.4l2.4,19.3C7,42.9,8.3,44,9.8,44h18.5c1.5,0,2.8-1.1,3-2.6l2.4-19.3
			l2.5,4.4c0.2,0.3,0.5,0.5,0.9,0.5c0.2,0,0.3,0,0.5-0.1C38,26.6,38.1,26,37.9,25.5z M13,20C13.1,20,13.1,20,13,20
			C13.1,20,13.1,20,13,20h18l-2.7,3.7c-0.6,0.8-1.5,1.3-2.4,1.3H12.1c-1,0-1.9-0.5-2.4-1.3L6.9,20H13z M13.3,16.5L13,15.4
			c0.3-0.1,0.5-0.2,0.8-0.3C13.6,15.6,13.4,16.1,13.3,16.5z M11.7,18h-1.2c0.2-0.5,0.5-0.9,0.8-1.3L11.7,18z M26.9,18
			c-0.4-1.7-2-3-3.9-3s-3.4,1.3-3.9,3h-1c0.5-2.3,2.5-4,4.9-4s4.4,1.7,4.9,4H26.9z M24.7,18h-3.4c0.3-0.6,1-1,1.7-1
			S24.4,17.4,24.7,18z M30.9,18h-1c-0.5-3.4-3.4-6-6.9-6s-6.4,2.6-6.9,6h-1c0.5-3.9,3.9-7,7.9-7S30.4,14.1,30.9,18z M15,12
			c0.3,0,0.6,0,0.8,0c-0.3,0.3-0.6,0.6-0.8,1l0,0c-0.9,0-1.8,0.2-2.6,0.5l-0.3-1C13,12.2,14,12,15,12z M10.3,13.5l0.3,1
			c-1.1,0.9-1.9,2.1-2.3,3.4h-1C7.7,16.2,8.8,14.6,10.3,13.5z M29.2,41.1c-0.1,0.5-0.5,0.9-1,0.9H9.8c-0.5,0-0.9-0.4-1-0.9L6.5,22.8
			L8,24.9c0.9,1.3,2.5,2.1,4.1,2.1H26c1.6,0,3.1-0.8,4.1-2.1l1.5-2.1L29.2,41.1z"/>
		<path class="st0" d="M19,29c-2.2,0-4,1.8-4,4s1.8,4,4,4s4-1.8,4-4S21.2,29,19,29z M19,35c-1.1,0-2-0.9-2-2s0.9-2,2-2s2,0.9,2,2
			C21,34.1,20.1,35,19,35z"/>
		<path class="st0" d="M27,32h-2c-0.6,0-1,0.4-1,1s0.4,1,1,1h2c0.6,0,1-0.4,1-1S27.6,32,27,32z"/>
		<path class="st0" d="M13,32h-2c-0.6,0-1,0.4-1,1s0.4,1,1,1h2c0.6,0,1-0.4,1-1S13.6,32,13,32z"/>
	</g>
</g>
</svg>
