<svg id="Layer_1" data-name="Layer 1" xmlns="http://www.w3.org/2000/svg" viewBox="0 0 48.42 25.91"><defs><style>.cls-1{opacity:0.6;}.cls-2{fill:#fc3;}.cls-3{fill:#484848;}</style></defs><title>nimaArtboard 1</title><g class="cls-1"><path class="cls-2" d="M48.36,15,46,10.85a.57.57,0,0,0-.53-.29H45.4a5.91,5.91,0,0,0-5.84-5.28,5.72,5.72,0,0,0-3,.83c-.18-.05-.29-.05-.47-.11L35.42.53A.68.68,0,0,0,34.77,0a.7.7,0,0,0-.53.65l.61,5.24h0a6,6,0,0,0-2.06.36L31.3,1.6a.67.67,0,0,0-.76-.41.71.71,0,0,0-.41.77l1.55,4.82a6.29,6.29,0,0,0-2.58,3.84H29a.62.62,0,0,0-.53.29L26.12,15a.64.64,0,0,0,.23.82.66.66,0,0,0,.83-.23L28.64,13l1.45,11.35a1.78,1.78,0,0,0,1.77,1.53l10.89,0a1.76,1.76,0,0,0,1.76-1.54L45.88,13l1.49,2.58a.59.59,0,0,0,.53.29.52.52,0,0,0,.29-.06A.7.7,0,0,0,48.36,15ZM33.7,11.78h0l10.59,0-1.58,2.18a1.82,1.82,0,0,1-1.41.77l-8.12,0A1.67,1.67,0,0,1,31.76,14l-1.65-2.17Zm.17-2.06-.18-.65.47-.18A5.19,5.19,0,0,0,33.87,9.72Zm-.94.88h-.71a3.24,3.24,0,0,1,.47-.76Zm8.94,0a2.35,2.35,0,0,0-2.3-1.76,2.4,2.4,0,0,0-2.29,1.78h-.59a2.94,2.94,0,0,1,5.77,0Zm-1.29,0h-2a1.13,1.13,0,0,1,1-.59A1.14,1.14,0,0,1,40.58,10.57Zm3.65,0h-.59a4.1,4.1,0,0,0-8.12,0h-.59a4.68,4.68,0,0,1,9.3,0Zm-9.37-3.5h.47a2.44,2.44,0,0,0-.47.59h0a4.34,4.34,0,0,0-1.53.3l-.18-.59A5.39,5.39,0,0,1,34.86,7.06ZM32.09,8l.18.58a4.24,4.24,0,0,0-1.34,2h-.59A4.57,4.57,0,0,1,32.09,8Zm11.19,16.2a.64.64,0,0,1-.59.53l-10.83,0a.63.63,0,0,1-.59-.53L29.88,13.44l.88,1.23a3,3,0,0,0,2.42,1.23l8.18,0a3.08,3.08,0,0,0,2.41-1.25l.88-1.24Z"/><path class="cls-2" d="M37.25,17.06a2.36,2.36,0,1,0,2.36,2.35A2.36,2.36,0,0,0,37.25,17.06Zm0,3.53a1.18,1.18,0,1,1,1.17-1.18A1.17,1.17,0,0,1,37.26,20.59Z"/><path class="cls-2" d="M42,18.81H40.78a.59.59,0,0,0,0,1.18H42a.56.56,0,0,0,.58-.59A.55.55,0,0,0,42,18.81Z"/><path class="cls-2" d="M33.72,18.84H32.54a.59.59,0,0,0,0,1.18h1.18a.56.56,0,0,0,.58-.59A.55.55,0,0,0,33.72,18.84Z"/></g><path class="cls-3" d="M6,7.69a1.85,1.85,0,0,0-.68-.52A2.2,2.2,0,0,0,4.4,7a2.25,2.25,0,0,0-1,.21,2.19,2.19,0,0,0-.78.57,2.52,2.52,0,0,0-.52.87,3.25,3.25,0,0,0,0,2.19,2.55,2.55,0,0,0,.51.86,2.21,2.21,0,0,0,.76.57,2.15,2.15,0,0,0,.94.21,2,2,0,0,0,1.76-.92l1.56,1.17a3.28,3.28,0,0,1-1.37,1.11,4.23,4.23,0,0,1-1.71.36,5.17,5.17,0,0,1-1.83-.31,4.06,4.06,0,0,1-2.41-2.3A4.76,4.76,0,0,1,0,9.73,4.76,4.76,0,0,1,.34,7.88a4.06,4.06,0,0,1,2.41-2.3,5.17,5.17,0,0,1,1.83-.31,4.93,4.93,0,0,1,.75.06,5.16,5.16,0,0,1,.77.21,3.67,3.67,0,0,1,.73.39,2.83,2.83,0,0,1,.62.58Z"/><path class="cls-3" d="M8.68,5.48h1.87V8.65h3.63V5.48h1.88V14H14.18V10.31H10.55V14H8.68Z"/><path class="cls-3" d="M17.33,9.73a4.76,4.76,0,0,1,.34-1.85,4,4,0,0,1,2.41-2.3,5.59,5.59,0,0,1,3.67,0,4.2,4.2,0,0,1,1.45.89,4,4,0,0,1,.95,1.41,4.77,4.77,0,0,1,.35,1.85,4.77,4.77,0,0,1-.35,1.85A4,4,0,0,1,25.2,13a4.2,4.2,0,0,1-1.45.89,5.59,5.59,0,0,1-3.67,0,4,4,0,0,1-2.41-2.3A4.76,4.76,0,0,1,17.33,9.73Zm1.94,0a3,3,0,0,0,.19,1.1,2.44,2.44,0,0,0,.53.86,2.24,2.24,0,0,0,.84.57,2.67,2.67,0,0,0,1.08.21A2.75,2.75,0,0,0,23,12.26a2.28,2.28,0,0,0,.83-.57,2.62,2.62,0,0,0,.54-.86,3.42,3.42,0,0,0,0-2.19,2.56,2.56,0,0,0-.54-.87A2.28,2.28,0,0,0,23,7.2,2.75,2.75,0,0,0,21.91,7a2.67,2.67,0,0,0-1.08.21,2.24,2.24,0,0,0-.84.57,2.4,2.4,0,0,0-.53.87A3,3,0,0,0,19.27,9.73Z"/><path class="cls-3" d="M26.88,5.48h2l1.36,5.45h0l1.78-5.45h1.74l1.76,5.59h0L37,5.48h1.9L36.44,14H34.78L32.9,8.1h0L31,14H29.4Z"/><path class="cls-3" d="M.53,16.65h5.7v1.73H2.4v1.73H5.94v1.72H2.4v3.32H.53Z"/><path class="cls-3" d="M14.73,21.87a4.14,4.14,0,0,1-.22,1.39,3,3,0,0,1-1.8,1.84,4.38,4.38,0,0,1-1.55.26A4.4,4.4,0,0,1,9.6,25.1a3.16,3.16,0,0,1-1.12-.73,3.08,3.08,0,0,1-.68-1.11,4.14,4.14,0,0,1-.23-1.39V16.65H9.44V21.8a1.93,1.93,0,0,0,.13.73,1.7,1.7,0,0,0,.35.58,1.67,1.67,0,0,0,.55.39,1.73,1.73,0,0,0,.69.13,1.68,1.68,0,0,0,.68-.13,1.63,1.63,0,0,0,.54-.39,1.89,1.89,0,0,0,.36-.58,2.15,2.15,0,0,0,.12-.73V16.65h1.87Z"/><path class="cls-3" d="M16.46,16.65H19l3.61,5.9h0v-5.9h1.88v8.5H22.07l-3.71-6h0v6H16.46Z"/></svg>