<svg id="Layer_1" data-name="Layer 1" xmlns="http://www.w3.org/2000/svg" viewBox="0 0 53.79 34.52"><defs><style>.cls-1{opacity:0.6;}.cls-2{fill:#fc3;}.cls-3{fill:#484848;}</style></defs><title>nimaArtboard 1</title><g class="cls-1"><path class="cls-2" d="M53.71,19.93l-3.16-5.47a.79.79,0,0,0-.71-.39h-.08A7.88,7.88,0,0,0,42,7a7.57,7.57,0,0,0-4,1.11c-.24-.08-.4-.08-.63-.16L36.46.7a.92.92,0,0,0-.87-.7.92.92,0,0,0-.7.87l.81,7h0A8.4,8.4,0,0,0,33,8.32L31,2.13a.89.89,0,0,0-1-.54,1,1,0,0,0-.54,1L31.47,9A8.39,8.39,0,0,0,28,14.15h-.16a.82.82,0,0,0-.7.39L24.06,20a.81.81,0,1,0,1.41.78l2-3.46,1.94,15.13a2.35,2.35,0,0,0,2.36,2l14.51-.05a2.37,2.37,0,0,0,2.35-2L50.4,17.28l2,3.44a.8.8,0,0,0,.7.39.67.67,0,0,0,.39-.08A.94.94,0,0,0,53.71,19.93ZM34.16,15.69h0l14.12,0-2.11,2.91a2.45,2.45,0,0,1-1.88,1l-10.82,0a2.22,2.22,0,0,1-1.89-1l-2.2-2.89ZM34.39,13l-.24-.87.62-.23A8.54,8.54,0,0,0,34.39,13Zm-1.25,1.18h-1a4.37,4.37,0,0,1,.63-1Zm11.92-.05A3.14,3.14,0,0,0,42,11.74a3.21,3.21,0,0,0-3.05,2.37h-.79a3.93,3.93,0,0,1,7.69,0Zm-1.73,0H40.66a1.53,1.53,0,0,1,2.67,0Zm4.86,0h-.78a5.46,5.46,0,0,0-10.82,0H35.8a6.24,6.24,0,0,1,12.39,0ZM35.71,9.41h.62a3,3,0,0,0-.62.79h0a5.79,5.79,0,0,0-2,.4l-.24-.79A7.18,7.18,0,0,1,35.71,9.41ZM32,10.6l.24.79a5.54,5.54,0,0,0-1.79,2.67h-.79A6.18,6.18,0,0,1,32,10.6ZM46.93,32.19a.83.83,0,0,1-.78.71L31.71,33a.83.83,0,0,1-.78-.71L29.07,17.91l1.18,1.64a4,4,0,0,0,3.22,1.63l10.91,0a4.08,4.08,0,0,0,3.21-1.65l1.17-1.66Z"/><path class="cls-2" d="M38.89,22.73A3.14,3.14,0,1,0,42,25.86,3.15,3.15,0,0,0,38.89,22.73Zm0,4.71a1.57,1.57,0,1,1,1.56-1.57A1.57,1.57,0,0,1,38.91,27.44Z"/><path class="cls-2" d="M45.18,25.06H43.61a.79.79,0,0,0,0,1.57h1.57a.79.79,0,0,0,0-1.57Z"/><path class="cls-2" d="M34.19,25.1H32.63a.79.79,0,1,0,0,1.57H34.2a.79.79,0,0,0,0-1.57Z"/></g><path class="cls-3" d="M6,14.27a1.75,1.75,0,0,0-.68-.52,2.2,2.2,0,0,0-.93-.18,2.25,2.25,0,0,0-1,.21,2.19,2.19,0,0,0-.78.57,2.52,2.52,0,0,0-.52.87,3.2,3.2,0,0,0-.19,1.09,3.26,3.26,0,0,0,.19,1.1,2.55,2.55,0,0,0,.51.86,2.49,2.49,0,0,0,.76.57,2.15,2.15,0,0,0,.94.2,2,2,0,0,0,1.76-.91L7.66,19.3a3.28,3.28,0,0,1-1.37,1.11,4.23,4.23,0,0,1-1.71.36,5.17,5.17,0,0,1-1.83-.31,4.26,4.26,0,0,1-1.45-.89,4.11,4.11,0,0,1-1-1.41,5.2,5.2,0,0,1,0-3.7,4.11,4.11,0,0,1,1-1.41,4,4,0,0,1,1.45-.89,5.17,5.17,0,0,1,1.83-.32,5,5,0,0,1,.75.07,3.52,3.52,0,0,1,.77.21,3.63,3.63,0,0,1,.73.38,2.88,2.88,0,0,1,.62.59Z"/><path class="cls-3" d="M8.68,12.06h1.87v3.17h3.63V12.06h1.88v8.5H14.18V16.88H10.55v3.68H8.68Z"/><path class="cls-3" d="M17.33,16.31a4.76,4.76,0,0,1,.34-1.85,4.22,4.22,0,0,1,.95-1.41,4.1,4.1,0,0,1,1.46-.89,5.42,5.42,0,0,1,3.67,0,4.06,4.06,0,0,1,1.45.89,4,4,0,0,1,.95,1.41,5.06,5.06,0,0,1,0,3.7,4,4,0,0,1-.95,1.41,4.36,4.36,0,0,1-1.45.89,5.59,5.59,0,0,1-3.67,0,4.41,4.41,0,0,1-1.46-.89,4.22,4.22,0,0,1-.95-1.41A4.8,4.8,0,0,1,17.33,16.31Zm1.94,0a3,3,0,0,0,.19,1.1,2.44,2.44,0,0,0,.53.86,2.5,2.5,0,0,0,.84.57,2.67,2.67,0,0,0,1.08.2,2.75,2.75,0,0,0,1.09-.2,2.56,2.56,0,0,0,.83-.57,2.62,2.62,0,0,0,.54-.86,3.25,3.25,0,0,0,.18-1.1,3.2,3.2,0,0,0-.18-1.09,2.56,2.56,0,0,0-.54-.87,2.28,2.28,0,0,0-.83-.57,2.75,2.75,0,0,0-1.09-.21,2.67,2.67,0,0,0-1.08.21,2.24,2.24,0,0,0-.84.57,2.4,2.4,0,0,0-.53.87A3,3,0,0,0,19.27,16.31Z"/><path class="cls-3" d="M26.88,12.06h2l1.36,5.45h0l1.78-5.45h1.74l1.76,5.59h0L37,12.06h1.9l-2.49,8.5H34.78L32.9,14.68h0L31,20.56H29.4Z"/><path class="cls-3" d="M.53,23.23h5.7V25H2.4v1.72H5.94v1.73H2.4v3.31H.53Z"/><path class="cls-3" d="M14.73,28.45a4.14,4.14,0,0,1-.22,1.39,3.18,3.18,0,0,1-.68,1.1,3.13,3.13,0,0,1-1.12.74,4.38,4.38,0,0,1-1.55.26,4.4,4.4,0,0,1-1.56-.26,3.07,3.07,0,0,1-1.8-1.84,4.14,4.14,0,0,1-.23-1.39V23.23H9.44v5.15a2,2,0,0,0,.13.73,1.7,1.7,0,0,0,.35.58,1.64,1.64,0,0,0,.55.38,1.58,1.58,0,0,0,.69.14,1.53,1.53,0,0,0,.68-.14,1.6,1.6,0,0,0,.54-.38,1.89,1.89,0,0,0,.36-.58,2.19,2.19,0,0,0,.12-.73V23.23h1.87Z"/><path class="cls-3" d="M16.46,23.23H19l3.61,5.9h0v-5.9h1.88v8.49H22.07l-3.71-6h0v6H16.46Z"/></svg>