<svg id="Layer_1" data-name="Layer 1" xmlns="http://www.w3.org/2000/svg" viewBox="0 0 51.23 34.29"><defs><style>.cls-1{opacity:0.8;}.cls-2{fill:#fc3;}.cls-3{font-size:12px;fill:#484848;font-family:Avenir-Black, Avenir;}</style></defs><title>nimaArtboard 1</title><g class="cls-1"><path class="cls-2" d="M51.23,23.71l-1-5.84a.77.77,0,0,0-.5-.57l-.07,0A7.38,7.38,0,0,0,45,8.61a7.1,7.1,0,0,0-3.88-.28c-.18-.15-.32-.2-.5-.34l1.52-6.71a.87.87,0,0,0-.54-.9.88.88,0,0,0-.9.55L39.18,7.34h0a7.6,7.6,0,0,0-2.57-.45L36.82.8a.85.85,0,0,0-.73-.8.9.9,0,0,0-.81.73l-.21,6.32a7.87,7.87,0,0,0-4.65,3.42l-.14-.05a.76.76,0,0,0-.74.13l-4.49,3.86A.81.81,0,0,0,25,15.48a.82.82,0,0,0,1.07.07l2.81-2.44-3.08,14a2.22,2.22,0,0,0,1.44,2.54L40,34.16a2.21,2.21,0,0,0,2.71-1.06l6.41-12.78L49.81,24a.78.78,0,0,0,.5.57.66.66,0,0,0,.37.05A.88.88,0,0,0,51.23,23.71ZM35.34,13.77h0L47.81,18.2,45,20.1a2.31,2.31,0,0,1-2,.31L33.48,17a2.09,2.09,0,0,1-1.34-1.49l-1-3.26Zm1.06-2.35.07-.83c.23,0,.39,0,.62,0A8.9,8.9,0,0,0,36.4,11.42Zm-1.47.65-.83-.3a4.11,4.11,0,0,1,.87-.7ZM45.46,15.8a2.93,2.93,0,0,0-2-3,3,3,0,0,0-3.44,1.12l-.69-.25a3.68,3.68,0,0,1,6.79,2.41Zm-1.53-.54-2.35-.83a1.42,1.42,0,0,1,2.35.83Zm4.3,1.53-.69-.25A5.13,5.13,0,0,0,38,13.15l-.69-.25a5.85,5.85,0,0,1,10.95,3.89ZM38.69,8.72l.55.2a2.82,2.82,0,0,0-.8.5h0a5.32,5.32,0,0,0-1.92-.3l0-.76A6.9,6.9,0,0,1,38.69,8.72Zm-3.63-.11,0,.76a5.24,5.24,0,0,0-2.43,1.79l-.7-.24A5.74,5.74,0,0,1,35.06,8.61Zm6.31,23.76a.77.77,0,0,1-.91.38L27.71,28.23a.78.78,0,0,1-.47-.87l2.9-13.24.53,1.82A3.7,3.7,0,0,0,33,18.4l9.63,3.42A3.83,3.83,0,0,0,46,21.37l1.55-1.08Z"/><path class="cls-2" d="M37.28,21.48a2.94,2.94,0,1,0,1.79,3.76A3,3,0,0,0,37.28,21.48ZM35.8,25.64a1.47,1.47,0,1,1,1.88-.89A1.47,1.47,0,0,1,35.8,25.64Z"/><path class="cls-2" d="M42.08,25.53,40.7,25a.73.73,0,1,0-.49,1.38l1.38.49a.73.73,0,1,0,.49-1.38Z"/><path class="cls-2" d="M32.39,22.09,31,21.6A.73.73,0,1,0,30.51,23l1.38.49a.73.73,0,0,0,.5-1.38Z"/></g><text class="cls-3" transform="translate(0 16.07)">CHOW</text><text class="cls-3" transform="translate(0 27.24)">FUN</text></svg>