<svg id="Layer_1" data-name="Layer 1" xmlns="http://www.w3.org/2000/svg" viewBox="0 0 66.37 15.44"><defs><style>.cls-1{opacity:0.6;}.cls-2{fill:#fc3;}.cls-3{fill:#484848;}</style></defs><title>nimaArtboard 1</title><g class="cls-1"><path class="cls-2" d="M28.28,8.92,26.86,6.46a.37.37,0,0,0-.31-.17h0A3.52,3.52,0,0,0,23,3.15a3.48,3.48,0,0,0-1.79.49L21,3.58,20.56.31A.41.41,0,0,0,20.18,0a.41.41,0,0,0-.32.39l.36,3.12h0A3.56,3.56,0,0,0,19,3.72L18.11,1a.4.4,0,0,0-.46-.24.42.42,0,0,0-.24.46L18.33,4A3.71,3.71,0,0,0,16.8,6.33h-.07a.38.38,0,0,0-.32.17L15,9a.36.36,0,0,0,.63.35l.87-1.54.87,6.76a1.06,1.06,0,0,0,1.05.91l6.49,0A1.07,1.07,0,0,0,26,14.5l.82-6.77.88,1.54a.38.38,0,0,0,.32.17.34.34,0,0,0,.17,0A.43.43,0,0,0,28.28,8.92ZM19.54,7h0l6.31,0L24.91,8.3a1.13,1.13,0,0,1-.84.46H19.23a1,1,0,0,1-.85-.45L17.4,7Zm.1-1.23-.11-.39.28-.1A3.2,3.2,0,0,0,19.64,5.79Zm-.56.53h-.42a2.06,2.06,0,0,1,.27-.46Zm5.33,0a1.4,1.4,0,0,0-1.37-1,1.44,1.44,0,0,0-1.37,1.06h-.35a1.76,1.76,0,0,1,3.44,0Zm-.77,0h-1.2A.67.67,0,0,1,23,6,.7.7,0,0,1,23.64,6.3Zm2.17,0h-.35a2.44,2.44,0,0,0-4.84,0h-.35a2.79,2.79,0,0,1,5.54,0ZM20.23,4.21h.28a1.2,1.2,0,0,0-.28.35h0a2.5,2.5,0,0,0-.91.18l-.11-.35A3.17,3.17,0,0,1,20.23,4.21Zm-1.65.53.11.35a2.5,2.5,0,0,0-.81,1.2h-.35A2.73,2.73,0,0,1,18.58,4.74Zm6.66,9.66a.38.38,0,0,1-.35.32l-6.45,0a.37.37,0,0,1-.35-.32L17.26,8l.53.73a1.73,1.73,0,0,0,1.44.73H24.1a1.85,1.85,0,0,0,1.44-.75L26.06,8Z"/><path class="cls-2" d="M21.65,10.17a1.4,1.4,0,1,0,1.41,1.4A1.41,1.41,0,0,0,21.65,10.17Zm0,2.1a.7.7,0,1,1,.7-.7A.71.71,0,0,1,21.66,12.27Z"/><path class="cls-2" d="M24.46,11.21h-.7a.35.35,0,1,0,0,.7h.7a.35.35,0,1,0,0-.7Z"/><path class="cls-2" d="M19.55,11.23h-.7a.35.35,0,0,0,0,.7h.7a.35.35,0,0,0,0-.7Z"/></g><path class="cls-3" d="M6,7.56A1.75,1.75,0,0,0,5.33,7a2.2,2.2,0,0,0-.93-.18,2.4,2.4,0,0,0-1,.2,2.46,2.46,0,0,0-.78.57,2.72,2.72,0,0,0-.52.87,3.26,3.26,0,0,0-.19,1.1,3.15,3.15,0,0,0,.19,1.09,2.6,2.6,0,0,0,.51.87,2.49,2.49,0,0,0,.76.57,2.3,2.3,0,0,0,.94.2,2,2,0,0,0,1.76-.91l1.56,1.16A3.23,3.23,0,0,1,6.29,13.7a4.23,4.23,0,0,1-1.71.36,5.17,5.17,0,0,1-1.83-.31,4.13,4.13,0,0,1-1.45-.9,3.92,3.92,0,0,1-1-1.41A4.71,4.71,0,0,1,0,9.6,4.76,4.76,0,0,1,.34,7.75,4.12,4.12,0,0,1,2.75,5.44a5.41,5.41,0,0,1,1.83-.31,4,4,0,0,1,.75.07,3.52,3.52,0,0,1,.77.21,3.18,3.18,0,0,1,.73.38,2.88,2.88,0,0,1,.62.59Z"/><path class="cls-3" d="M8.68,5.35h1.87V8.52h3.63V5.35h1.88v8.49H14.18V10.17H10.55v3.67H8.68Z"/><path class="cls-3" d="M26.88,5.35h2l1.36,5.45h0l1.78-5.45h1.74l1.76,5.59h0L37,5.35h1.9l-2.49,8.49H34.78L32.9,8h0L31,13.84H29.4Z"/><path class="cls-3" d="M42.39,5.46h5.7V7.18H44.26V8.91H47.8v1.73H44.26V14H42.39Z"/><path class="cls-3" d="M56.59,10.57A4.14,4.14,0,0,1,56.37,12a3.18,3.18,0,0,1-.68,1.1,3.13,3.13,0,0,1-1.12.74,4.78,4.78,0,0,1-3.11,0A3.07,3.07,0,0,1,49.66,12a4.14,4.14,0,0,1-.23-1.39V5.35H51.3V10.5a2,2,0,0,0,.13.73,1.7,1.7,0,0,0,.35.58,1.64,1.64,0,0,0,.55.38,1.58,1.58,0,0,0,.69.14,1.53,1.53,0,0,0,.68-.14,1.6,1.6,0,0,0,.54-.38,1.89,1.89,0,0,0,.36-.58,2.19,2.19,0,0,0,.12-.73V5.35h1.87Z"/><path class="cls-3" d="M58.32,5.46h2.55l3.61,5.9h0V5.46h1.87V14H63.93l-3.71-6h0v6H58.32Z"/></svg>