<svg id="Layer_1" data-name="Layer 1" xmlns="http://www.w3.org/2000/svg" viewBox="0 0 68.65 34.29"><defs><style>.cls-1{opacity:0.8;}.cls-2{fill:#fc3;}.cls-3{font-size:12px;fill:#484848;font-family:Avenir-Black, Avenir;}</style></defs><title>nimaArtboard 1</title><g class="cls-1"><path class="cls-2" d="M48.05,23.71l-1-5.84a.82.82,0,0,0-.5-.57l-.07,0a7.4,7.4,0,0,0-4.65-8.67,7.1,7.1,0,0,0-3.88-.28c-.18-.15-.32-.2-.5-.34l1.52-6.71a.86.86,0,0,0-.54-.9.86.86,0,0,0-.89.55L36,7.34h0a7.6,7.6,0,0,0-2.57-.45L33.63.8A.85.85,0,0,0,32.9,0a.89.89,0,0,0-.8.73l-.22,6.32a7.85,7.85,0,0,0-4.64,3.42l-.14-.05a.77.77,0,0,0-.75.13l-4.49,3.86a.76.76,0,0,0,1,1.14l2.81-2.44-3.08,14A2.22,2.22,0,0,0,24,29.61l12.82,4.55a2.22,2.22,0,0,0,2.72-1.06L46,20.32,46.62,24a.8.8,0,0,0,.5.57.66.66,0,0,0,.37.05A.88.88,0,0,0,48.05,23.71Zm-15.9-9.94h0L44.62,18.2l-2.78,1.9a2.29,2.29,0,0,1-2,.31L30.3,17A2.08,2.08,0,0,1,29,15.53l-1-3.26Zm1.07-2.35.06-.83c.23,0,.39,0,.63,0A7.57,7.57,0,0,0,33.22,11.42Zm-1.48.65-.83-.3a4.38,4.38,0,0,1,.87-.7ZM42.27,15.8a2.93,2.93,0,0,0-2-3,3,3,0,0,0-3.44,1.12l-.7-.25A3.68,3.68,0,0,1,43,16.05Zm-1.52-.54-2.36-.83a1.43,1.43,0,0,1,2.36.83ZM45,16.79l-.69-.25a5.12,5.12,0,0,0-9.56-3.39l-.7-.25A5.85,5.85,0,0,1,45,16.79ZM35.5,8.72l.55.2a2.82,2.82,0,0,0-.8.5h0a5.32,5.32,0,0,0-1.92-.3l0-.76A6.85,6.85,0,0,1,35.5,8.72Zm-3.62-.11,0,.76a5.29,5.29,0,0,0-2.43,1.79l-.69-.24A5.71,5.71,0,0,1,31.88,8.61Zm6.3,23.76a.77.77,0,0,1-.91.38L24.52,28.23a.79.79,0,0,1-.47-.87L27,14.12l.52,1.82A3.72,3.72,0,0,0,29.8,18.4l9.63,3.42a3.83,3.83,0,0,0,3.36-.45l1.56-1.08Z"/><path class="cls-2" d="M34.09,21.48a2.94,2.94,0,1,0,1.79,3.76A3,3,0,0,0,34.09,21.48Zm-1.47,4.16a1.47,1.47,0,1,1,1.87-.89A1.48,1.48,0,0,1,32.62,25.64Z"/><path class="cls-2" d="M38.9,25.53,37.51,25A.73.73,0,1,0,37,26.42l1.39.49a.68.68,0,0,0,.93-.44A.69.69,0,0,0,38.9,25.53Z"/><path class="cls-2" d="M29.2,22.09l-1.39-.49a.7.7,0,0,0-.94.44.71.71,0,0,0,.45.94l1.39.49a.73.73,0,1,0,.49-1.38Z"/></g><text class="cls-3" transform="translate(0 25.76)">CHOW FUN</text></svg>