<svg id="Layer_1" data-name="Layer 1" xmlns="http://www.w3.org/2000/svg" xmlns:xlink="http://www.w3.org/1999/xlink" viewBox="0 0 2512.76 1412.74"><defs><style>.cls-1,.cls-10,.cls-11,.cls-12,.cls-3,.cls-4,.cls-5,.cls-6,.cls-7,.cls-8,.cls-9{fill:none;}.cls-2{clip-path:url(#clip-path);}.cls-10,.cls-11,.cls-12,.cls-3,.cls-4,.cls-5,.cls-6,.cls-7,.cls-8,.cls-9{stroke:#c4a69d;stroke-miterlimit:10;}.cls-3{stroke-width:0.25px;}.cls-4{stroke-width:0.31px;}.cls-5{stroke-width:0.36px;}.cls-6{stroke-width:0.42px;}.cls-7{stroke-width:0.47px;}.cls-8{stroke-width:0.53px;}.cls-9{stroke-width:0.58px;}.cls-10{stroke-width:0.64px;}.cls-11{stroke-width:0.69px;}.cls-12{stroke-width:0.75px;}</style><clipPath id="clip-path"><rect class="cls-1" x="9.38" y="4.16" width="2498" height="1403.41"/></clipPath></defs><title>Artboard 1 copy 15</title><g class="cls-2"><path class="cls-3" d="M106.66,957.13c430.89-163.5,778-196.27,1016.73-195.53,240.16.75,299.28,35.19,508.37,12.79C2077,726.7,2188,529.91,2470.3,509.43c197.18-14.31,480.15,57.22,862.13,425.77"/><path class="cls-4" d="M2972.85,953.27c-308.9-331.21-527.67-397.69-668.21-386.79C2086.47,583,2019.45,757.3,1653.89,800c-167.18,20.08-201.57-10.6-397.44-9.91-172.27.61-443.66,33.44-792.82,182.71"/><path class="cls-5" d="M2613.26,971.34c-235.82-293.86-390.35-355-474.3-347.81C1985,636.65,1961.68,786.48,1676,825.54c-125.36,17.14-135-9.65-286.51-7-105.8,1.82-301.48,34.85-568.9,169.89"/><path class="cls-6" d="M2253.68,989.41c-162.74-256.51-253-312.17-280.39-308.82-89.57,10.93-69.46,135.2-275.15,170.53-83.56,14.35-68.55-11.62-175.58-4.15-39.47,2.75-159.29,36.25-345,157.06"/><path class="cls-7" d="M1894.1,1007.48c-89.66-219.16-115.82-270.51-86.47-269.84-25.66,4.51,37.68,105.68-87.35,139.05-42,11.21-1.66-4-64.66-1.27,27.22,6.68-17.11,37.66-121.07,144.24"/><path class="cls-8" d="M1534.51,1025.55C1517.93,843.74,1556,791.61,1642,794.7c38.48,1.38,147.16,85,100.45,107.57.45,10.81,65-2,46.27,1.61,93.72,8.54,125.07,39.07,102.85,131.42"/><path class="cls-9" d="M1174.93,1043.62c56.49-144.47,158.72-186.38,301.35-191.87,102.65-4,253,63.5,288.25,76.1,40.68,14.55,131.41,1.42,157.2,4.49,159.44,18.94,267.26,40.48,326.77,118.6"/><path class="cls-10" d="M815.34,1061.7c129.57-107.12,296-143.33,495.26-152.89,166.84-7.48,363.12,34.2,476,44.62,84.14,7.76,198.19,2.82,268.12,7.36,226.57,14.71,409.44,41.89,550.69,105.78"/><path class="cls-11" d="M455.76,1079.77C658.41,1010,889.07,978.83,1144.94,965.86c231-11.47,471.39,6.43,663.85,13.14,126.16,4.4,264.86,4.41,379.05,10.24,293.18,15,551.62,43.3,774.6,93"/><path class="cls-12" d="M96.18,1097.84c275.72-32.42,570.59-58.55,883.09-74.92,891.32-46.7,1683.87-1.38,2340.15,74.92"/></g></svg>