<svg id="Layer_1" data-name="Layer 1" xmlns="http://www.w3.org/2000/svg" viewBox="0 0 84.6 81.25"><defs><style>.cls-1,.cls-14,.cls-2,.cls-3,.cls-7{opacity:0.3;}.cls-1,.cls-3{font-size:13.81px;}.cls-1,.cls-2{fill:none;stroke:#ed1c24;stroke-width:0.25px;}.cls-1,.cls-14,.cls-2,.cls-3,.cls-8{font-family:HelveticaNeue-Bold, Helvetica Neue;font-weight:700;}.cls-2{font-size:13.81px;}.cls-13,.cls-14,.cls-3,.cls-5,.cls-8{fill:#ed1c24;}.cls-13,.cls-4{opacity:0.5;}.cls-6{fill:#fff;opacity:0.8;}.cls-14,.cls-8{font-size:3.35px;}.cls-9{letter-spacing:-0.05em;}.cls-10{letter-spacing:-0.07em;}.cls-11{letter-spacing:0em;}.cls-12{opacity:0.75;}</style></defs><title>nimaArtboard 1</title><text class="cls-1" transform="translate(1.31 35.26) rotate(0.13)">THANK YOU</text><text class="cls-1" transform="translate(1.31 25.17) rotate(0.13)">THANK YOU</text><text class="cls-2" transform="translate(1.32 15.11) rotate(0.13)">THANK YOU</text><text class="cls-3" transform="translate(1.31 45.21) rotate(0.13)">THANK YOU</text><text class="cls-1" transform="translate(1.31 75.08) rotate(0.13)">THANK YOU</text><text class="cls-1" transform="translate(1.31 65) rotate(0.13)">THANK YOU</text><text class="cls-1" transform="translate(1.31 55.04) rotate(0.13)">THANK YOU</text><g class="cls-4"><path class="cls-5" d="M64.39,53.23c-.12-.45-.23-1-.29-1.16,0-.57-.07-1.92-.26-4.29-.24-3-.52-6.8-.46-8.65a12.31,12.31,0,0,0-1.09-4.64,17.25,17.25,0,0,1-.82-2.78v-.06a3.48,3.48,0,0,1,.13-2.3c3.16-7.59-.35-12.55-1.89-14.71,0-.06-.06-.07-.06-.13a5.35,5.35,0,0,0-.8-1.24c-1.11-1.37-3.52-2.08-5.38-2.13a8.87,8.87,0,0,0-3,.43c-2.2.77-2.17,4.61-2.14,8l-.05,1.6a2.38,2.38,0,0,1-.15,1,32.11,32.11,0,0,1-6-.23,23.08,23.08,0,0,0-4.6-.26,8,8,0,0,1-2.62-.2c-.82-.34-1.85-2.42-2.7-4.11-1.33-2.66-2.66-5.38-4.89-5.83-1-.67-2.54-.71-4.07-.75A3.34,3.34,0,0,0,20.62,12c-1.59,1.88-2.08,5.77-1.25,10.14.39,2.12,0,4.74-.4,7.73a44.51,44.51,0,0,0-.24,15.36c1.29,6.56.71,8.78.14,10.88a13.84,13.84,0,0,0-.61,3.63v.19c.06.26,1,6.68,5.64,6.81a35.89,35.89,0,0,0,3.91-.21,31.82,31.82,0,0,1,4.55-.25,21.8,21.8,0,0,1,4.46.57,21.32,21.32,0,0,0,3.64.42A71,71,0,0,0,53.8,65.86c2.12-.32,4.05-.71,6-.92A6,6,0,0,0,64,62.63C66.06,59.94,65,55.62,64.39,53.23ZM59.53,21c.15-.57.23-1.14.37-1.72a11.06,11.06,0,0,1,0,8.58,9.76,9.76,0,0,1-.78-4.06A18.32,18.32,0,0,1,59.53,21ZM30.29,18.49c1.15,2.27,2.18,4.41,3.76,5.1a8.89,8.89,0,0,0,3.51.35,23.59,23.59,0,0,1,4.22.18,32.39,32.39,0,0,0,3.38.29h.26a5.36,5.36,0,0,0-.66.62c-1.25,1.18-3.42,1.25-5.15,1.2-.7,0-1.34,0-2-.12S36.48,26,36,26c-2.3-.07-2.8-.4-5.16-2.9-1.93-2-2.27-5.76-2.28-7.87C29.2,16.22,29.74,17.45,30.29,18.49Zm32.08,43a3.54,3.54,0,0,1-2.73,1.39c-1.93.27-3.92.6-6,.92a69,69,0,0,1-13,1.43,16.42,16.42,0,0,1-3.25-.35,26.09,26.09,0,0,0-4.85-.58,34.54,34.54,0,0,0-4.81.25,23.1,23.1,0,0,1-3.65.22c-2.69-.08-3.47-4.26-3.58-4.84A11.57,11.57,0,0,1,21,56.88c.57-2.22,1.22-4.76-.12-11.84-1.06-5.6-.41-10.38.22-14.65.47-3.18.87-6,.43-8.43-.78-4.19-.18-7.3.74-8.37a1.2,1.2,0,0,1,1-.48c3.2.09,3.2.28,3.17,1.3-.06,2.11.11,7.3,2.85,10.26,2.42,2.56,3.42,3.49,6.62,3.58a12.73,12.73,0,0,1,1.53.1c.64,0,1.34.1,2,.12,2.18.06,4.93-.11,6.71-1.79A13.58,13.58,0,0,1,48,25.26a8.48,8.48,0,0,0,1.44-1.18,4.11,4.11,0,0,0,.84-2.66l.05-1.67a29.86,29.86,0,0,1,.18-4.15c.24-1.59.56-1.84.56-1.84a6,6,0,0,1,2.19-.32c1.92.05,3.56.8,3.92,1.51a4,4,0,0,0,.5.72c.54,1.3.1,3.14-.27,4.92a22.39,22.39,0,0,0-.54,3.19c-.07,2.62.71,4.43,1.73,6.83.24.52.48,1.1.72,1.68.23,1,.59,2,.88,3a12.85,12.85,0,0,1,.92,3.87c-.06,2,.28,5.83.51,8.91.14,1.86.29,3.59.28,4a6.62,6.62,0,0,0,.33,1.73C62.78,55.75,63.7,59.49,62.37,61.5Z"/></g><path class="cls-6" d="M62.37,61.5a3.54,3.54,0,0,1-2.73,1.39c-1.93.27-3.92.6-6,.92a69,69,0,0,1-13,1.43,16.42,16.42,0,0,1-3.25-.35,26.09,26.09,0,0,0-4.85-.58,34.54,34.54,0,0,0-4.81.25,23.1,23.1,0,0,1-3.65.22c-2.69-.08-3.47-4.26-3.58-4.84A11.57,11.57,0,0,1,21,56.88c.57-2.22,1.22-4.76-.12-11.84-1.06-5.6-.41-10.38.22-14.65.47-3.18.87-6,.43-8.43-.78-4.19-.18-7.3.74-8.37a1.2,1.2,0,0,1,1-.48c3.2.09,3.2.28,3.17,1.3-.06,2.11.11,7.3,2.85,10.26,2.42,2.56,3.42,3.49,6.62,3.58a12.73,12.73,0,0,1,1.53.1c.64,0,1.34.1,2,.12,2.18.06,4.93-.11,6.71-1.79A13.58,13.58,0,0,1,48,25.26a8.48,8.48,0,0,0,1.44-1.18,4.11,4.11,0,0,0,.84-2.66l.05-1.67a29.86,29.86,0,0,1,.18-4.15c.24-1.59.56-1.84.56-1.84a6,6,0,0,1,2.19-.32c1.92.05,3.56.8,3.92,1.51a4,4,0,0,0,.5.72c.54,1.3.1,3.14-.27,4.92a22.39,22.39,0,0,0-.54,3.19c-.07,2.62.71,4.43,1.73,6.83.24.52.48,1.1.72,1.68.23,1,.59,2,.88,3a12.85,12.85,0,0,1,.92,3.87c-.06,2,.28,5.83.51,8.91.14,1.86.29,3.59.28,4a6.62,6.62,0,0,0,.33,1.73C62.78,55.75,63.7,59.49,62.37,61.5Z"/><g class="cls-7"><text class="cls-8" transform="translate(27.94 59.41) rotate(1.6)">H<tspan class="cls-9" x="2.48" y="0">A</tspan><tspan x="4.62" y="0">VE A NICE D</tspan><tspan class="cls-10" x="24.58" y="0">A</tspan><tspan class="cls-11" x="26.63" y="0">Y</tspan></text></g><g class="cls-12"><path class="cls-13" d="M39.05,54.29a9.07,9.07,0,1,1,11.34-8.36h0a9.07,9.07,0,0,1-9.47,8.65A8.89,8.89,0,0,1,39.05,54.29Zm4.14-15.88a7.53,7.53,0,0,0-1.52-.22,7.28,7.28,0,1,0,1.52.22Z"/><circle class="cls-13" cx="37.93" cy="44.1" r="0.63" transform="translate(-7.86 79.98) rotate(-87.38)"/><circle class="cls-13" cx="44.81" cy="44.43" r="0.63" transform="translate(-1.62 87.17) rotate(-87.38)"/><path class="cls-13" d="M40.51,48.88a4.87,4.87,0,0,1-2.43-1.59.44.44,0,0,1,.08-.61.42.42,0,0,1,.6.08,3.82,3.82,0,0,0,2.86,1.39A3.69,3.69,0,0,0,44.19,47a.44.44,0,0,1,.61,0,.45.45,0,0,1,0,.62A4.6,4.6,0,0,1,41.63,49,4.41,4.41,0,0,1,40.51,48.88Z"/></g><text class="cls-14" transform="translate(30.91 34.13) rotate(1.6)">THANK YOU</text><path class="cls-6" d="M30.29,18.49c1.15,2.27,2.18,4.41,3.76,5.1a8.89,8.89,0,0,0,3.51.35,23.59,23.59,0,0,1,4.22.18,32.39,32.39,0,0,0,3.38.29h.26a5.36,5.36,0,0,0-.66.62c-1.25,1.18-3.42,1.25-5.15,1.2-.7,0-1.34,0-2-.12S36.48,26,36,26c-2.3-.07-2.8-.4-5.16-2.9-1.93-2-2.27-5.76-2.28-7.87C29.2,16.22,29.74,17.45,30.29,18.49Z"/></svg>