<svg id="Layer_1" data-name="Layer 1" xmlns="http://www.w3.org/2000/svg" viewBox="0 0 69.72 68.19"><defs><style>.cls-1,.cls-14,.cls-2,.cls-3,.cls-7{opacity:0.3;}.cls-1,.cls-3{font-size:9.93px;}.cls-1,.cls-2{fill:none;stroke:#ed1c24;stroke-width:0.25px;}.cls-1,.cls-14,.cls-2,.cls-3,.cls-8{font-family:HelveticaNeue-Bold, Helvetica Neue;font-weight:700;}.cls-2{font-size:9.93px;}.cls-13,.cls-14,.cls-3,.cls-5,.cls-8{fill:#ed1c24;}.cls-13,.cls-4{opacity:0.5;}.cls-6{fill:#fff;opacity:0.8;}.cls-14,.cls-8{font-size:3.35px;}.cls-9{letter-spacing:-0.05em;}.cls-10{letter-spacing:-0.07em;}.cls-11{letter-spacing:0em;}.cls-12{opacity:0.75;}</style></defs><title>nimaArtboard 1</title><text class="cls-1" transform="matrix(1, 0, 0, 1, 5.24, 29.53)">THANK YOU</text><text class="cls-1" transform="matrix(1, 0, 0, 1, 5.24, 22.28)">THANK YOU</text><text class="cls-2" transform="matrix(1, 0, 0, 1, 5.25, 15.05)">THANK YOU</text><text class="cls-3" transform="matrix(1, 0, 0, 1, 5.24, 36.69)">THANK YOU</text><text class="cls-1" transform="matrix(1, 0, 0, 1, 5.24, 58.16)">THANK YOU</text><text class="cls-1" transform="matrix(1, 0, 0, 1, 5.24, 50.91)">THANK YOU</text><text class="cls-1" transform="matrix(1, 0, 0, 1, 5.24, 43.75)">THANK YOU</text><g class="cls-4"><path class="cls-5" d="M56.71,47.42c-.11-.45-.22-1-.28-1.16,0-.57-.08-1.92-.27-4.29-.23-3-.51-6.8-.46-8.66a12.3,12.3,0,0,0-1.09-4.63,17.18,17.18,0,0,1-.81-2.78v-.06a3.48,3.48,0,0,1,.13-2.3A14,14,0,0,0,52,8.83c0-.06-.06-.07-.06-.13a5.1,5.1,0,0,0-.79-1.24c-1.12-1.37-3.53-2.08-5.38-2.13a9.08,9.08,0,0,0-3,.42c-2.2.77-2.18,4.61-2.15,8l0,1.6a2.27,2.27,0,0,1-.16,1,32,32,0,0,1-5.94-.23,23.12,23.12,0,0,0-4.6-.26,7.94,7.94,0,0,1-2.62-.2c-.82-.35-1.85-2.42-2.7-4.11-1.34-2.66-2.67-5.39-4.9-5.83-1-.67-2.54-.71-4.07-.76A3.38,3.38,0,0,0,12.94,6.2C11.35,8.07,10.86,12,11.7,16.34c.39,2.12,0,4.74-.41,7.73a44.46,44.46,0,0,0-.24,15.35c1.29,6.57.72,8.79.15,10.89a13.8,13.8,0,0,0-.62,3.63v.19c.05.26,1,6.68,5.63,6.81a38.44,38.44,0,0,0,3.91-.21,31.82,31.82,0,0,1,4.55-.25,21.72,21.72,0,0,1,4.46.57,21.56,21.56,0,0,0,3.64.42,70.88,70.88,0,0,0,13.35-1.42c2.12-.32,4.05-.72,6-.92a6,6,0,0,0,4.22-2.31C58.38,54.12,57.29,49.81,56.71,47.42ZM51.86,15.16c.14-.57.22-1.15.36-1.72a11,11,0,0,1,0,8.58A9.77,9.77,0,0,1,51.39,18,18.49,18.49,0,0,1,51.86,15.16ZM22.62,12.68c1.15,2.27,2.18,4.41,3.76,5.09a8.84,8.84,0,0,0,3.51.36,23.62,23.62,0,0,1,4.22.18,32.16,32.16,0,0,0,3.38.29h.26a6.39,6.39,0,0,0-.66.63c-1.25,1.18-3.43,1.24-5.16,1.2-.7,0-1.34,0-2-.12s-1.14-.1-1.59-.11c-2.3-.07-2.81-.4-5.17-2.9-1.93-2-2.27-5.76-2.27-7.87C21.53,10.41,22.07,11.64,22.62,12.68Zm32.07,43A3.51,3.51,0,0,1,52,57.08c-1.92.27-3.92.59-6,.92a68.93,68.93,0,0,1-13,1.43,17.32,17.32,0,0,1-3.26-.35,26,26,0,0,0-4.85-.58,33,33,0,0,0-4.8.25,23.23,23.23,0,0,1-3.66.21c-2.68-.07-3.46-4.25-3.57-4.83a11.5,11.5,0,0,1,.53-3.06c.57-2.22,1.22-4.76-.12-11.84-1.06-5.6-.41-10.38.22-14.65.47-3.19.87-6,.43-8.44-.78-4.18-.18-7.3.75-8.36a1.17,1.17,0,0,1,1-.48c3.2.09,3.19.28,3.16,1.3-.06,2.11.12,7.3,2.85,10.26C24,21.42,25,22.34,28.23,22.43a15.26,15.26,0,0,1,1.53.11c.64,0,1.34.1,2,.12,2.17.06,4.93-.12,6.7-1.79a12.8,12.8,0,0,1,1.84-1.42,8.89,8.89,0,0,0,1.44-1.18,4.25,4.25,0,0,0,.84-2.66l0-1.67a28.39,28.39,0,0,1,.18-4.15c.23-1.6.56-1.84.56-1.84a5.77,5.77,0,0,1,2.18-.32c1.92,0,3.57.8,3.93,1.51a3.41,3.41,0,0,0,.49.72c.54,1.3.11,3.14-.26,4.92A21.06,21.06,0,0,0,49.22,18c-.07,2.62.71,4.43,1.73,6.83.24.52.48,1.1.72,1.68.23,1,.58,2,.87,3a12.56,12.56,0,0,1,.92,3.87c-.05,2,.29,5.83.52,8.91.14,1.85.28,3.59.27,4A6.75,6.75,0,0,0,54.59,48C55.11,49.94,56,53.67,54.69,55.68Z"/></g><path class="cls-6" d="M54.69,55.68A3.51,3.51,0,0,1,52,57.08c-1.92.27-3.92.59-6,.92a68.93,68.93,0,0,1-13,1.43,17.32,17.32,0,0,1-3.26-.35,26,26,0,0,0-4.85-.58,33,33,0,0,0-4.8.25,23.23,23.23,0,0,1-3.66.21c-2.68-.07-3.46-4.25-3.57-4.83a11.5,11.5,0,0,1,.53-3.06c.57-2.22,1.22-4.76-.12-11.84-1.06-5.6-.41-10.38.22-14.65.47-3.19.87-6,.43-8.44-.78-4.18-.18-7.3.75-8.36a1.17,1.17,0,0,1,1-.48c3.2.09,3.19.28,3.16,1.3-.06,2.11.12,7.3,2.85,10.26C24,21.42,25,22.34,28.23,22.43a15.26,15.26,0,0,1,1.53.11c.64,0,1.34.1,2,.12,2.17.06,4.93-.12,6.7-1.79a12.8,12.8,0,0,1,1.84-1.42,8.89,8.89,0,0,0,1.44-1.18,4.25,4.25,0,0,0,.84-2.66l0-1.67a28.39,28.39,0,0,1,.18-4.15c.23-1.6.56-1.84.56-1.84a5.77,5.77,0,0,1,2.18-.32c1.92,0,3.57.8,3.93,1.51a3.41,3.41,0,0,0,.49.72c.54,1.3.11,3.14-.26,4.92A21.06,21.06,0,0,0,49.22,18c-.07,2.62.71,4.43,1.73,6.83.24.52.48,1.1.72,1.68.23,1,.58,2,.87,3a12.56,12.56,0,0,1,.92,3.87c-.05,2,.29,5.83.52,8.91.14,1.85.28,3.59.27,4A6.75,6.75,0,0,0,54.59,48C55.11,49.94,56,53.67,54.69,55.68Z"/><g class="cls-7"><text class="cls-8" transform="translate(20.26 53.59) rotate(1.6)">H<tspan class="cls-9" x="2.48" y="0">A</tspan><tspan x="4.62" y="0">VE A NICE D</tspan><tspan class="cls-10" x="24.58" y="0">A</tspan><tspan class="cls-11" x="26.63" y="0">Y</tspan></text></g><g class="cls-12"><path class="cls-13" d="M31.38,48.48a9.07,9.07,0,1,1,11.34-8.36h0a9.09,9.09,0,0,1-9.47,8.65A8.79,8.79,0,0,1,31.38,48.48ZM35.51,32.6A8.2,8.2,0,0,0,34,32.37a7.34,7.34,0,1,0,1.51.23Z"/><circle class="cls-13" cx="30.25" cy="38.29" r="0.63" transform="translate(-9.38 66.77) rotate(-87.38)"/><circle class="cls-13" cx="37.14" cy="38.62" r="0.63" transform="translate(-3.14 73.95) rotate(-87.38)"/><path class="cls-13" d="M32.84,43.06a4.75,4.75,0,0,1-2.43-1.58.43.43,0,0,1,.07-.61.44.44,0,0,1,.61.07A3.79,3.79,0,0,0,34,42.34a3.64,3.64,0,0,0,2.56-1.15.44.44,0,0,1,.61,0,.42.42,0,0,1,0,.61A4.53,4.53,0,0,1,34,43.2,4.35,4.35,0,0,1,32.84,43.06Z"/></g><text class="cls-14" transform="translate(23.24 28.32) rotate(1.6)">THANK YOU</text><path class="cls-6" d="M22.62,12.68c1.15,2.27,2.18,4.41,3.76,5.09a8.84,8.84,0,0,0,3.51.36,23.62,23.62,0,0,1,4.22.18,32.16,32.16,0,0,0,3.38.29h.26a6.39,6.39,0,0,0-.66.63c-1.25,1.18-3.43,1.24-5.16,1.2-.7,0-1.34,0-2-.12s-1.14-.1-1.59-.11c-2.3-.07-2.81-.4-5.17-2.9-1.93-2-2.27-5.76-2.27-7.87C21.53,10.41,22.07,11.64,22.62,12.68Z"/></svg>