<svg id="Layer_1" data-name="Layer 1" xmlns="http://www.w3.org/2000/svg" viewBox="0 0 74.94 59.77"><defs><style>.cls-1,.cls-14,.cls-2,.cls-3,.cls-7{opacity:0.3;}.cls-1,.cls-3{font-size:10.17px;}.cls-1,.cls-2{fill:none;stroke:#ed1c24;stroke-width:0.25px;}.cls-1,.cls-14,.cls-2,.cls-3,.cls-8{font-family:HelveticaNeue-Bold, Helvetica Neue;font-weight:700;}.cls-2{font-size:10.16px;}.cls-13,.cls-14,.cls-3,.cls-5,.cls-8{fill:#ed1c24;}.cls-13,.cls-4{opacity:0.5;}.cls-6{fill:#fff;opacity:0.8;}.cls-14,.cls-8{font-size:3.35px;}.cls-9{letter-spacing:-0.05em;}.cls-10{letter-spacing:-0.07em;}.cls-11{letter-spacing:0em;}.cls-12{opacity:0.75;}</style></defs><title>nimaArtboard 1</title><text class="cls-1" transform="translate(8.84 33.4) rotate(-21.58)">THANK YOU</text><text class="cls-1" transform="translate(6.09 26.5) rotate(-21.58)">THANK YOU</text><text class="cls-2" transform="translate(3.37 19.62) rotate(-21.58)">THANK YOU</text><text class="cls-3" transform="translate(11.55 40.2) rotate(-21.58)">THANK YOU</text><text class="cls-1" transform="translate(19.69 60.63) rotate(-21.58)">THANK YOU</text><text class="cls-1" transform="translate(16.94 53.73) rotate(-21.58)">THANK YOU</text><text class="cls-1" transform="translate(14.23 46.93) rotate(-21.58)">THANK YOU</text><g class="cls-4"><path class="cls-5" d="M60.41,39c-.12-.45-.23-1-.29-1.16,0-.57-.07-1.92-.26-4.29-.24-3-.52-6.8-.46-8.65a12.31,12.31,0,0,0-1.09-4.64,17.25,17.25,0,0,1-.82-2.78v-.06a3.48,3.48,0,0,1,.13-2.3C60.78,7.56,57.27,2.6,55.73.44c0-.06-.06-.06-.06-.13a5.35,5.35,0,0,0-.8-1.24C53.76-2.3,51.35-3,49.49-3.06a8.87,8.87,0,0,0-3,.43c-2.2.77-2.18,4.61-2.14,8l0,1.6a2.38,2.38,0,0,1-.15,1,31.24,31.24,0,0,1-6-.23,23.08,23.08,0,0,0-4.6-.26A8,8,0,0,1,31,7.3c-.82-.34-1.85-2.42-2.7-4.11C26.93.53,25.6-2.19,23.37-2.64c-1-.67-2.54-.71-4.08-.75a3.34,3.34,0,0,0-2.65,1.2C15.05-.31,14.56,3.58,15.39,8c.39,2.12,0,4.74-.4,7.73-.63,4.21-1.36,9.37-.24,15.36,1.29,6.56.71,8.78.14,10.88a14,14,0,0,0-.61,3.63v.19c.06.26,1,6.68,5.63,6.81a35.62,35.62,0,0,0,3.91-.21,32,32,0,0,1,4.56-.25,21.8,21.8,0,0,1,4.46.57,21.32,21.32,0,0,0,3.64.42,71.05,71.05,0,0,0,13.35-1.42c2.12-.32,4-.71,6-.92A6,6,0,0,0,60,48.43C62.08,45.74,61,41.42,60.41,39ZM55.55,6.77c.15-.57.23-1.14.37-1.72a11.06,11.06,0,0,1-.05,8.58,9.73,9.73,0,0,1-.78-4.06A18.32,18.32,0,0,1,55.55,6.77ZM26.31,4.29c1.15,2.27,2.18,4.41,3.76,5.1a8.87,8.87,0,0,0,3.51.35,23.59,23.59,0,0,1,4.22.18,32.39,32.39,0,0,0,3.38.29h.26a5.36,5.36,0,0,0-.66.62C39.53,12,37.36,12.09,35.63,12c-.7,0-1.34,0-2-.12s-1.15-.1-1.6-.11c-2.3-.06-2.8-.4-5.16-2.9C25,6.88,24.62,3.15,24.61,1,25.22,2,25.76,3.25,26.31,4.29Zm32.08,43a3.54,3.54,0,0,1-2.73,1.39c-1.93.27-3.92.6-6,.92a69.12,69.12,0,0,1-13,1.43,16.42,16.42,0,0,1-3.25-.35,26.09,26.09,0,0,0-4.85-.58,34.54,34.54,0,0,0-4.81.25,23.1,23.1,0,0,1-3.65.22c-2.69-.08-3.47-4.26-3.58-4.84a11.57,11.57,0,0,1,.54-3.06c.57-2.22,1.22-4.76-.12-11.84-1.06-5.6-.41-10.38.22-14.65.47-3.18.87-6,.42-8.43-.77-4.18-.17-7.3.75-8.37a1.2,1.2,0,0,1,1-.48c3.2.09,3.2.28,3.17,1.3-.06,2.11.11,7.3,2.85,10.26C27.73,13,28.73,14,31.93,14.05a12.85,12.85,0,0,1,1.53.1c.64,0,1.34.1,2,.12,2.18.06,4.93-.11,6.71-1.79A13.58,13.58,0,0,1,44,11.06a8.48,8.48,0,0,0,1.44-1.18,4.11,4.11,0,0,0,.84-2.66l0-1.67a29.92,29.92,0,0,1,.18-4.15c.24-1.59.56-1.84.56-1.84A6,6,0,0,1,49.3-.76c1.92.05,3.56.8,3.92,1.51a4,4,0,0,0,.5.72c.54,1.3.1,3.14-.27,4.92a22.39,22.39,0,0,0-.54,3.19c-.07,2.62.71,4.43,1.73,6.83.24.52.48,1.1.72,1.68.23,1,.59,2,.88,3a12.85,12.85,0,0,1,.92,3.87c-.06,2,.28,5.83.51,8.91.14,1.86.29,3.59.28,4a6.62,6.62,0,0,0,.33,1.73C58.8,41.55,59.72,45.29,58.39,47.3Z"/></g><path class="cls-6" d="M58.39,47.3a3.54,3.54,0,0,1-2.73,1.39c-1.93.27-3.92.6-6,.92a69.12,69.12,0,0,1-13,1.43,16.42,16.42,0,0,1-3.25-.35,26.09,26.09,0,0,0-4.85-.58,34.54,34.54,0,0,0-4.81.25,23.1,23.1,0,0,1-3.65.22c-2.69-.08-3.47-4.26-3.58-4.84a11.57,11.57,0,0,1,.54-3.06c.57-2.22,1.22-4.76-.12-11.84-1.06-5.6-.41-10.38.22-14.65.47-3.18.87-6,.42-8.43-.77-4.18-.17-7.3.75-8.37a1.2,1.2,0,0,1,1-.48c3.2.09,3.2.28,3.17,1.3-.06,2.11.11,7.3,2.85,10.26C27.73,13,28.73,14,31.93,14.05a12.85,12.85,0,0,1,1.53.1c.64,0,1.34.1,2,.12,2.18.06,4.93-.11,6.71-1.79A13.58,13.58,0,0,1,44,11.06a8.48,8.48,0,0,0,1.44-1.18,4.11,4.11,0,0,0,.84-2.66l0-1.67a29.92,29.92,0,0,1,.18-4.15c.24-1.59.56-1.84.56-1.84A6,6,0,0,1,49.3-.76c1.92.05,3.56.8,3.92,1.51a4,4,0,0,0,.5.72c.54,1.3.1,3.14-.27,4.92a22.39,22.39,0,0,0-.54,3.19c-.07,2.62.71,4.43,1.73,6.83.24.52.48,1.1.72,1.68.23,1,.59,2,.88,3a12.85,12.85,0,0,1,.92,3.87c-.06,2,.28,5.83.51,8.91.14,1.86.29,3.59.28,4a6.62,6.62,0,0,0,.33,1.73C58.8,41.55,59.72,45.29,58.39,47.3Z"/><g class="cls-7"><text class="cls-8" transform="translate(23.96 45.21) rotate(1.6)">H<tspan class="cls-9" x="2.48" y="0">A</tspan><tspan x="4.62" y="0">VE A NICE D</tspan><tspan class="cls-10" x="24.58" y="0">A</tspan><tspan class="cls-11" x="26.63" y="0">Y</tspan></text></g><g class="cls-12"><path class="cls-13" d="M35.07,40.1a9.07,9.07,0,1,1,11.34-8.37h0a9.07,9.07,0,0,1-9.47,8.65A9.59,9.59,0,0,1,35.07,40.1Zm4.14-15.89A7.63,7.63,0,0,0,37.69,24a7.28,7.28,0,1,0,1.52.22Z"/><circle class="cls-13" cx="33.95" cy="29.9" r="0.63" transform="translate(2.53 62.45) rotate(-87.38)"/><circle class="cls-13" cx="40.83" cy="30.23" r="0.63" transform="translate(8.77 69.64) rotate(-87.38)"/><path class="cls-13" d="M36.53,34.68a4.87,4.87,0,0,1-2.43-1.59.44.44,0,0,1,.08-.61.43.43,0,0,1,.6.08A3.82,3.82,0,0,0,37.64,34a3.74,3.74,0,0,0,2.57-1.14.42.42,0,0,1,.61,0,.44.44,0,0,1,0,.61,4.6,4.6,0,0,1-3.19,1.41A4.41,4.41,0,0,1,36.53,34.68Z"/></g><text class="cls-14" transform="translate(26.93 19.93) rotate(1.6)">THANK YOU</text><path class="cls-6" d="M26.31,4.29c1.15,2.27,2.18,4.41,3.76,5.1a8.87,8.87,0,0,0,3.51.35,23.59,23.59,0,0,1,4.22.18,32.39,32.39,0,0,0,3.38.29h.26a5.36,5.36,0,0,0-.66.62C39.53,12,37.36,12.09,35.63,12c-.7,0-1.34,0-2-.12s-1.15-.1-1.6-.11c-2.3-.06-2.8-.4-5.16-2.9C25,6.88,24.62,3.15,24.61,1,25.22,2,25.76,3.25,26.31,4.29Z"/></svg>