<svg id="Layer_1" data-name="Layer 1" xmlns="http://www.w3.org/2000/svg" viewBox="0 0 48.13 50.14"><defs><style>.cls-1,.cls-10{opacity:0.5;}.cls-10,.cls-11,.cls-12,.cls-2,.cls-4{fill:#ed1c24;}.cls-11,.cls-3{opacity:0.3;}.cls-11,.cls-4{font-size:2.72px;}.cls-11,.cls-12,.cls-4{font-family:HelveticaNeue-Bold, Helvetica Neue;font-weight:700;}.cls-5{letter-spacing:-0.05em;}.cls-6{letter-spacing:0em;}.cls-7{letter-spacing:-0.07em;}.cls-8{letter-spacing:0em;}.cls-9{opacity:0.75;}.cls-12{opacity:0.8;font-size:2px;}</style></defs><title>nimaArtboard 1</title><g class="cls-1"><path class="cls-2" d="M46.17,31.09c-.18-.33-.39-.77-.46-.86-.1-.45-.45-1.49-1.09-3.32-.8-2.33-1.8-5.25-2.14-6.72a10,10,0,0,0-1.8-3.43,14.59,14.59,0,0,1-1.22-2V14.7a2.88,2.88,0,0,1-.37-1.84A11.39,11.39,0,0,0,34.57,1.67s-.06,0-.07-.09a4,4,0,0,0-.88-.81A6.23,6.23,0,0,0,29,.19a7.18,7.18,0,0,0-2.29,1c-1.58,1.06-.77,4.07-.05,6.74l.29,1.27A1.84,1.84,0,0,1,27,10a25.08,25.08,0,0,1-4.73,1,19.45,19.45,0,0,0-3.67.74,6.42,6.42,0,0,1-2.1.38c-.72-.1-2-1.53-3-2.68-1.6-1.82-3.21-3.69-5-3.59a6.61,6.61,0,0,0-3.36.24,2.77,2.77,0,0,0-1.85,1.5c-.86,1.8-.45,5,1.1,8.24A21.48,21.48,0,0,1,5.63,22a36.24,36.24,0,0,0,3,12.13C11,39.06,11,40.93,10.94,42.7a11.09,11.09,0,0,0,.26,3l0,.15c.1.19,2.13,5.07,5.84,4.21a29,29,0,0,0,3-1,24.91,24.91,0,0,1,3.53-1.13,17.85,17.85,0,0,1,3.63-.47,16,16,0,0,0,2.95-.41A57.87,57.87,0,0,0,40.43,43.2c1.6-.69,3-1.39,4.51-2a4.83,4.83,0,0,0,2.85-2.68C48.86,36,47.12,32.85,46.17,31.09ZM35.73,6.69c0-.48,0-1-.06-1.43A9,9,0,0,1,37.39,12a8,8,0,0,1-1.45-3A15.22,15.22,0,0,1,35.73,6.69Zm-23.52,4c1.37,1.56,2.62,3,4,3.24a7.12,7.12,0,0,0,2.84-.44,19.27,19.27,0,0,1,3.36-.72,25.58,25.58,0,0,0,2.72-.47l.2,0a5.59,5.59,0,0,0-.39.62c-.74,1.19-2.44,1.69-3.81,2a14.17,14.17,0,0,1-1.58.31c-.46.11-.93.16-1.28.25-1.83.42-2.29.26-4.66-1.22-1.94-1.21-3-4.07-3.41-5.73C10.88,9.17,11.56,10,12.21,10.73ZM46.28,38a2.89,2.89,0,0,1-1.86,1.66c-1.47.6-3,1.27-4.57,2a55.23,55.23,0,0,1-9.91,3.78,13.78,13.78,0,0,1-2.64.4,21.32,21.32,0,0,0-3.93.53,27.5,27.5,0,0,0-3.73,1.19,19.65,19.65,0,0,1-2.84.92c-2.13.49-3.6-2.64-3.8-3.08a8.82,8.82,0,0,1-.21-2.51c0-1.87,0-4-2.52-9.3A34.27,34.27,0,0,1,7.43,22,22,22,0,0,0,6,15.26C4.57,12.12,4.4,9.55,4.91,8.52a1,1,0,0,1,.67-.58c2.54-.59,2.57-.44,2.76.38C8.72,10,9.93,14,12.68,15.8c2.44,1.53,3.41,2.05,5.95,1.46A12.46,12.46,0,0,1,19.86,17c.5-.12,1.07-.19,1.63-.32,1.72-.4,3.86-1.11,4.91-2.79a12.12,12.12,0,0,1,1.15-1.5,6.33,6.33,0,0,0,.89-1.22,3.37,3.37,0,0,0,.12-2.27l-.3-1.32a23.47,23.47,0,0,1-.71-3.3c-.14-1.31.06-1.57.06-1.57A4.86,4.86,0,0,1,29.27,2c1.52-.35,3-.1,3.4.39a2.56,2.56,0,0,0,.53.46c.69.91.73,2.45.8,3.93a18.25,18.25,0,0,0,.23,2.62,12.23,12.23,0,0,0,2.76,5c.3.36.61.77.92,1.18.38.71.87,1.46,1.3,2.16a10.45,10.45,0,0,1,1.51,2.85c.36,1.57,1.42,4.53,2.24,6.91.49,1.43,1,2.77,1,3.12a5.47,5.47,0,0,0,.62,1.3C45.43,33.4,46.92,36.15,46.28,38Z"/></g><g class="cls-3"><text class="cls-4" transform="translate(18.75 43.42) rotate(-13)">H<tspan class="cls-5" x="2.02" y="0">A</tspan><tspan class="cls-6" x="3.76" y="0">VE A NICE D</tspan><tspan class="cls-7" x="20" y="0">A</tspan><tspan class="cls-8" x="21.66" y="0">Y</tspan></text></g><g class="cls-9"><path class="cls-10" d="M26.45,37.12a7.38,7.38,0,1,1,7.21-8.91h0A7.38,7.38,0,0,1,28,37,7.3,7.3,0,0,1,26.45,37.12Zm0-13.35a6.53,6.53,0,0,0-1.24.13,6,6,0,1,0,1.24-.13Z"/><circle class="cls-10" cx="23.47" cy="29.33" r="0.51" transform="translate(-5.58 5.52) rotate(-11.99)"/><circle class="cls-10" cx="28.96" cy="28.17" r="0.51" transform="translate(-5.22 6.63) rotate(-11.99)"/><path class="cls-10" d="M26.49,32.56a3.92,3.92,0,0,1-2.24-.75.37.37,0,0,1-.07-.5.36.36,0,0,1,.5-.06,3.07,3.07,0,0,0,2.53.51A3,3,0,0,0,29,30.33a.35.35,0,1,1,.61.34,3.69,3.69,0,0,1-2.22,1.76A3.26,3.26,0,0,1,26.49,32.56Z"/></g><text class="cls-11" transform="translate(15.91 22.92) rotate(-13)">THANK YOU</text><text class="cls-12" transform="translate(0.92 18.3) rotate(73.27)">L</text><text class="cls-12" transform="matrix(0.24, 0.97, -0.97, 0.24, 1.24, 19.42)">E</text><text class="cls-12" transform="translate(1.55 20.67) rotate(79.12)">T</text><text class="cls-12" transform="translate(1.77 21.84) rotate(80.95)">’</text><text class="cls-12" transform="translate(1.85 22.38) rotate(81.9)">S</text><text class="cls-12" transform="translate(2.03 23.68) rotate(81.98)"> </text><text class="cls-12" transform="matrix(0.15, 0.99, -0.99, 0.15, 2.1, 24.23)">G</text><text class="cls-12" transform="translate(2.32 25.71) rotate(80.81)">O</text><text class="cls-12" transform="matrix(0.17, 0.99, -0.99, 0.17, 2.57, 27.25)"> </text><text class="cls-12" transform="translate(2.66 27.84) rotate(78.23)">G</text><text class="cls-12" transform="matrix(0.27, 0.96, -0.96, 0.27, 2.99, 29.4)">E</text><text class="cls-12" transform="translate(3.35 30.71) rotate(70.41)">T</text><text class="cls-12" transform="translate(3.79 31.9) rotate(68.51)"> </text><text class="cls-12" transform="matrix(0.38, 0.93, -0.93, 0.38, 4.02, 32.41)">S</text><text class="cls-12" transform="matrix(0.37, 0.93, -0.93, 0.37, 4.53, 33.62)">O</text><text class="cls-12" transform="translate(5.08 35.03) rotate(70.17)">M</text><text class="cls-12" transform="translate(5.69 36.73) rotate(71.6)">E</text><text class="cls-12" transform="translate(6.1 37.96) rotate(72.38)"> </text><text class="cls-12" transform="translate(6.27 38.48) rotate(73.77)">C</text><text class="cls-12" transform="translate(6.68 39.88) rotate(76.85)">H</text><text class="cls-12" transform="matrix(0.16, 0.99, -0.99, 0.16, 7.03, 41.29)">O</text><text class="cls-12" transform="matrix(0.03, 1, -1, 0.03, 7.35, 42.78)">W</text></svg>