<svg id="Layer_1" data-name="Layer 1" xmlns="http://www.w3.org/2000/svg" viewBox="0 0 84.6 81.25"><defs><style>.cls-1,.cls-15,.cls-2,.cls-3,.cls-7{opacity:0.3;}.cls-1,.cls-3{font-size:11.4px;}.cls-1,.cls-2{fill:none;stroke:#ed1c24;stroke-width:0.25px;}.cls-1,.cls-15,.cls-2,.cls-3,.cls-8{font-family:HelveticaNeue-Bold, Helvetica Neue;font-weight:700;}.cls-2{font-size:10.99px;}.cls-14,.cls-15,.cls-3,.cls-5,.cls-8{fill:#ed1c24;}.cls-14,.cls-4{opacity:0.5;}.cls-6{fill:#fff;opacity:0.8;}.cls-15,.cls-8{font-size:2.72px;}.cls-9{letter-spacing:-0.05em;}.cls-10{letter-spacing:0em;}.cls-11{letter-spacing:-0.07em;}.cls-12{letter-spacing:0em;}.cls-13{opacity:0.75;}</style></defs><title>nimaArtboard 1</title><text class="cls-1" transform="matrix(0.95, -0.3, 0.3, 0.95, 7.98, 44.54)">THANK YOU</text><text class="cls-1" transform="matrix(0.95, -0.3, 0.3, 0.95, 5.45, 36.61)">THANK YOU</text><text class="cls-2" transform="matrix(0.95, -0.3, 0.3, 0.95, 3.02, 29.07)">THANK YOU</text><text class="cls-3" transform="matrix(0.95, -0.3, 0.3, 0.95, 10.48, 52.37)">THANK YOU</text><text class="cls-1" transform="matrix(0.95, -0.3, 0.3, 0.95, 17.99, 75.86)">THANK YOU</text><text class="cls-1" transform="matrix(0.95, -0.3, 0.3, 0.95, 15.45, 67.93)">THANK YOU</text><text class="cls-1" transform="matrix(0.95, -0.3, 0.3, 0.95, 12.95, 60.1)">THANK YOU</text><g class="cls-4"><path class="cls-5" d="M60.89,43.4c-.18-.33-.39-.76-.46-.85-.11-.46-.46-1.5-1.09-3.33-.81-2.32-1.8-5.25-2.14-6.72a10,10,0,0,0-1.81-3.42,13.64,13.64,0,0,1-1.21-2v0a2.8,2.8,0,0,1-.37-1.84A11.42,11.42,0,0,0,49.29,14c0-.05-.06,0-.07-.09a4.32,4.32,0,0,0-.89-.81,6.27,6.27,0,0,0-4.67-.57,7,7,0,0,0-2.29,1c-1.57,1.06-.77,4.08,0,6.74l.29,1.27a1.82,1.82,0,0,1,.08.83,25.13,25.13,0,0,1-4.72,1,19.41,19.41,0,0,0-3.68.74,6.42,6.42,0,0,1-2.1.38c-.72-.1-1.95-1.52-3-2.68C26.64,20,25,18.09,23.18,18.2a6.63,6.63,0,0,0-3.36.24A2.69,2.69,0,0,0,18,19.93c-.87,1.8-.46,5,1.1,8.24a21.58,21.58,0,0,1,1.26,6.17,36,36,0,0,0,3,12.13c2.36,4.91,2.36,6.77,2.34,8.54a11.49,11.49,0,0,0,.26,3l0,.16c.1.19,2.13,5.06,5.83,4.2a30.64,30.64,0,0,0,3-1,26.69,26.69,0,0,1,3.53-1.14A17.18,17.18,0,0,1,42,59.79a16.89,16.89,0,0,0,2.94-.42,57.52,57.52,0,0,0,10.22-3.85c1.61-.69,3-1.4,4.52-2a4.9,4.9,0,0,0,2.85-2.69C63.58,48.33,61.83,45.16,60.89,43.4ZM50.45,19c0-.48-.06-.95-.06-1.43a9.05,9.05,0,0,1,1.72,6.76,7.81,7.81,0,0,1-1.45-3A15.22,15.22,0,0,1,50.45,19ZM26.92,23.05c1.38,1.55,2.62,3,4,3.24a7.45,7.45,0,0,0,2.83-.44,19.62,19.62,0,0,1,3.36-.73c.94-.11,1.91-.28,2.72-.46l.21-.05a4.11,4.11,0,0,0-.39.62c-.74,1.19-2.44,1.69-3.81,2-.56.13-1.07.25-1.59.32s-.92.16-1.28.24c-1.82.42-2.29.26-4.66-1.22-1.93-1.21-3-4.07-3.4-5.73C25.6,21.48,26.28,22.34,26.92,23.05ZM61,50.32A2.87,2.87,0,0,1,59.13,52c-1.46.6-3,1.27-4.56,2a56.45,56.45,0,0,1-9.92,3.79,13.62,13.62,0,0,1-2.63.39,20.59,20.59,0,0,0-3.94.54,27.58,27.58,0,0,0-3.73,1.18,19.92,19.92,0,0,1-2.83.92c-2.13.49-3.6-2.64-3.81-3.07a9.71,9.71,0,0,1-.21-2.52c0-1.87,0-4-2.52-9.3A34.19,34.19,0,0,1,22.15,34.3a22,22,0,0,0-1.39-6.73c-1.47-3.13-1.64-5.71-1.13-6.74a1,1,0,0,1,.66-.58c2.54-.58,2.58-.43,2.76.38.39,1.67,1.59,5.72,4.35,7.49,2.43,1.52,3.41,2,5.94,1.45.36-.08.76-.17,1.23-.23s1.08-.19,1.64-.32c1.72-.4,3.85-1.1,4.91-2.79a9.74,9.74,0,0,1,1.15-1.49,7.57,7.57,0,0,0,.89-1.22,3.44,3.44,0,0,0,.12-2.27L43,19.93a25.12,25.12,0,0,1-.71-3.31c-.14-1.3.07-1.56.07-1.56A4.83,4.83,0,0,1,44,14.35c1.52-.35,3-.09,3.4.39a3.41,3.41,0,0,0,.54.47c.69.91.72,2.45.8,3.92A16.92,16.92,0,0,0,49,21.75a12.21,12.21,0,0,0,2.76,5c.3.35.6.76.91,1.17.38.72.87,1.46,1.3,2.16A10.51,10.51,0,0,1,55.44,33c.36,1.58,1.42,4.54,2.23,6.91.49,1.44,1,2.77,1,3.13a6.14,6.14,0,0,0,.62,1.29C60.14,45.71,61.63,48.46,61,50.32Z"/></g><path class="cls-6" d="M61,50.32A2.87,2.87,0,0,1,59.13,52c-1.46.6-3,1.27-4.56,2a56.45,56.45,0,0,1-9.92,3.79,13.62,13.62,0,0,1-2.63.39,20.59,20.59,0,0,0-3.94.54,27.58,27.58,0,0,0-3.73,1.18,19.92,19.92,0,0,1-2.83.92c-2.13.49-3.6-2.64-3.81-3.07a9.71,9.71,0,0,1-.21-2.52c0-1.87,0-4-2.52-9.3A34.19,34.19,0,0,1,22.15,34.3a22,22,0,0,0-1.39-6.73c-1.47-3.13-1.64-5.71-1.13-6.74a1,1,0,0,1,.66-.58c2.54-.58,2.58-.43,2.76.38.39,1.67,1.59,5.72,4.35,7.49,2.43,1.52,3.41,2,5.94,1.45.36-.08.76-.17,1.23-.23s1.08-.19,1.64-.32c1.72-.4,3.85-1.1,4.91-2.79a9.74,9.74,0,0,1,1.15-1.49,7.57,7.57,0,0,0,.89-1.22,3.44,3.44,0,0,0,.12-2.27L43,19.93a25.12,25.12,0,0,1-.71-3.31c-.14-1.3.07-1.56.07-1.56A4.83,4.83,0,0,1,44,14.35c1.52-.35,3-.09,3.4.39a3.41,3.41,0,0,0,.54.47c.69.91.72,2.45.8,3.92A16.92,16.92,0,0,0,49,21.75a12.21,12.21,0,0,0,2.76,5c.3.35.6.76.91,1.17.38.72.87,1.46,1.3,2.16A10.51,10.51,0,0,1,55.44,33c.36,1.58,1.42,4.54,2.23,6.91.49,1.44,1,2.77,1,3.13a6.14,6.14,0,0,0,.62,1.29C60.14,45.71,61.63,48.46,61,50.32Z"/><g class="cls-7"><text class="cls-8" transform="translate(33.46 55.74) rotate(-13)">H<tspan class="cls-9" x="2.02" y="0">A</tspan><tspan class="cls-10" x="3.76" y="0">VE A NICE D</tspan><tspan class="cls-11" x="20" y="0">A</tspan><tspan class="cls-12" x="21.66" y="0">Y</tspan></text></g><g class="cls-13"><path class="cls-14" d="M41.16,49.44a7.38,7.38,0,1,1,7.21-8.91h0a7.37,7.37,0,0,1-5.68,8.74A7.25,7.25,0,0,1,41.16,49.44Zm0-13.35a5.87,5.87,0,0,0-1.24.13,6,6,0,1,0,1.24-.13Z"/><circle class="cls-14" cx="38.19" cy="41.64" r="0.51" transform="translate(-7.82 8.84) rotate(-11.99)"/><circle class="cls-14" cx="43.67" cy="40.49" r="0.51" transform="translate(-7.46 9.96) rotate(-11.99)"/><path class="cls-14" d="M41.2,44.87A3.88,3.88,0,0,1,39,44.12a.35.35,0,0,1-.06-.49.34.34,0,0,1,.49-.07,3.09,3.09,0,0,0,2.53.51,3,3,0,0,0,1.79-1.43.35.35,0,1,1,.62.34,3.54,3.54,0,0,1-3.13,1.89Z"/></g><text class="cls-15" transform="translate(30.62 35.23) rotate(-13)">THANK YOU</text><path class="cls-6" d="M26.92,23.05c1.38,1.55,2.62,3,4,3.24a7.45,7.45,0,0,0,2.83-.44,19.62,19.62,0,0,1,3.36-.73c.94-.11,1.91-.28,2.72-.46l.21-.05a4.11,4.11,0,0,0-.39.62c-.74,1.19-2.44,1.69-3.81,2-.56.13-1.07.25-1.59.32s-.92.16-1.28.24c-1.82.42-2.29.26-4.66-1.22-1.93-1.21-3-4.07-3.4-5.73C25.6,21.48,26.28,22.34,26.92,23.05Z"/></svg>