<svg id="Layer_1" data-name="Layer 1" xmlns="http://www.w3.org/2000/svg" viewBox="0 0 62.12 64.41"><defs><style>.cls-1,.cls-14,.cls-2,.cls-3,.cls-7{opacity:0.3;}.cls-1,.cls-3{font-size:9.93px;}.cls-1,.cls-2{fill:none;stroke:#ed1c24;stroke-width:0.25px;}.cls-1,.cls-14,.cls-2,.cls-3,.cls-8{font-family:HelveticaNeue-Bold, Helvetica Neue;font-weight:700;}.cls-2{font-size:9.93px;}.cls-13,.cls-14,.cls-3,.cls-5,.cls-8{fill:#ed1c24;}.cls-13,.cls-4{opacity:0.5;}.cls-6{fill:#fff;opacity:0.8;}.cls-14,.cls-8{font-size:3.35px;}.cls-9{letter-spacing:-0.05em;}.cls-10{letter-spacing:-0.07em;}.cls-11{letter-spacing:0em;}.cls-12{opacity:0.75;}</style></defs><title>nimaArtboard 1</title><text class="cls-1" transform="matrix(1, 0, 0, 1, 2.57, 27.43)">THANK YOU</text><text class="cls-1" transform="matrix(1, 0, 0, 1, 2.57, 20.18)">THANK YOU</text><text class="cls-2" transform="matrix(1, 0, 0, 1, 2.58, 12.95)">THANK YOU</text><text class="cls-3" transform="matrix(1, 0, 0, 1, 2.57, 34.59)">THANK YOU</text><text class="cls-1" transform="matrix(1, 0, 0, 1, 2.57, 56.06)">THANK YOU</text><text class="cls-1" transform="matrix(1, 0, 0, 1, 2.57, 48.81)">THANK YOU</text><text class="cls-1" transform="matrix(1, 0, 0, 1, 2.57, 41.66)">THANK YOU</text><g class="cls-4"><path class="cls-5" d="M58,33.14c-.31-.34-.68-.81-.79-.89-.26-.52-1-1.67-2.23-3.68-1.61-2.56-3.62-5.78-4.43-7.45a12.43,12.43,0,0,0-3.12-3.6,17.06,17.06,0,0,1-2-2.08l0,0a3.52,3.52,0,0,1-1-2.1A14,14,0,0,0,36,1.15c0-.06-.09,0-.12-.09A5,5,0,0,0,34.55.33c-1.62-.7-4.09-.2-5.75.61a9.13,9.13,0,0,0-2.48,1.79c-1.58,1.7.22,5.09,1.82,8.08l.71,1.44a2.18,2.18,0,0,1,.33,1,30.44,30.44,0,0,1-5.37,2.56,23.45,23.45,0,0,0-4.19,1.91,7.83,7.83,0,0,1-2.41,1c-.89.08-2.77-1.28-4.3-2.38-2.42-1.74-4.87-3.53-7-2.89a8.12,8.12,0,0,0-3.95,1.23A3.37,3.37,0,0,0,.11,17c-.53,2.4.84,6.07,3.62,9.56,1.33,1.69,2.19,4.19,3.23,7a44.53,44.53,0,0,0,6.92,13.7c4.2,5.22,4.72,7.45,5.19,9.57a13.94,13.94,0,0,0,1.14,3.5l.09.18c.17.2,4,5.46,8.15,3.41,1.21-.59,2.27-1.33,3.37-2a32,32,0,0,1,3.91-2.35A21.6,21.6,0,0,1,40,58a21.52,21.52,0,0,0,3.41-1.32,71.87,71.87,0,0,0,11.16-7.46c1.73-1.28,3.26-2.52,4.87-3.6a6,6,0,0,0,2.66-4C62.62,38.3,59.65,35,58,33.14ZM38.73,6.83c-.13-.57-.33-1.11-.47-1.69a11,11,0,0,1,3.94,7.62,9.83,9.83,0,0,1-2.57-3.23A18,18,0,0,1,38.73,6.83Zm-27,11.4c2.08,1.47,4,2.89,5.7,2.76a8.76,8.76,0,0,0,3.27-1.32,23.38,23.38,0,0,1,3.82-1.79c1.09-.4,2.21-.87,3.13-1.32l.23-.12a6.19,6.19,0,0,0-.29.86c-.56,1.63-2.46,2.7-4,3.46a17.72,17.72,0,0,1-1.81.81c-.51.25-1.06.45-1.46.65-2.07,1-2.67,1-5.92-.17-2.65-.9-4.69-4-5.67-5.91C9.67,16.72,10.72,17.56,11.69,18.23ZM60.08,41.4a3.48,3.48,0,0,1-1.77,2.5c-1.58,1.13-3.19,2.35-4.92,3.62a69,69,0,0,1-10.81,7.3,17.4,17.4,0,0,1-3,1.2A25.92,25.92,0,0,0,35,57.76a33.09,33.09,0,0,0-4.14,2.45A22.82,22.82,0,0,1,27.7,62.1c-2.42,1.18-5.05-2.16-5.42-2.62a11.61,11.61,0,0,1-1-2.95c-.52-2.24-1.13-4.79-5.6-10.43-3.54-4.47-5.2-9-6.62-13.07-1.06-3-2-5.71-3.54-7.67C2.93,22,2,19,2.34,17.61A1.19,1.19,0,0,1,3,16.73c2.87-1.41,2.95-1.24,3.4-.32.93,1.9,3.5,6.41,7.29,7.76,3.34,1.14,4.65,1.49,7.53.09a11.84,11.84,0,0,1,1.4-.62c.58-.28,1.24-.53,1.87-.84,2-1,4.31-2.4,5.1-4.71a15.16,15.16,0,0,1,1-2.11,8.37,8.37,0,0,0,.73-1.71,4.2,4.2,0,0,0-.49-2.75L30,10a29.11,29.11,0,0,1-1.77-3.76c-.53-1.52-.36-1.89-.36-1.89a6,6,0,0,1,1.79-1.3c1.72-.84,3.52-.94,4.18-.48a4.07,4.07,0,0,0,.77.41c1.08.89,1.55,2.73,2.05,4.48a21.15,21.15,0,0,0,1,3.06c1.16,2.36,2.69,3.6,4.71,5.25.45.35.94.75,1.42,1.16.65.75,1.45,1.5,2.16,2.22a13.09,13.09,0,0,1,2.6,3c.88,1.78,3,5,4.6,7.65,1,1.58,1.92,3.05,2.12,3.45a6.83,6.83,0,0,0,1.11,1.38C57.78,36.11,60.33,39,60.08,41.4Z"/></g><path class="cls-6" d="M60.08,41.4a3.48,3.48,0,0,1-1.77,2.5c-1.58,1.13-3.19,2.35-4.92,3.62a69,69,0,0,1-10.81,7.3,17.4,17.4,0,0,1-3,1.2A25.92,25.92,0,0,0,35,57.76a33.09,33.09,0,0,0-4.14,2.45A22.82,22.82,0,0,1,27.7,62.1c-2.42,1.18-5.05-2.16-5.42-2.62a11.61,11.61,0,0,1-1-2.95c-.52-2.24-1.13-4.79-5.6-10.43-3.54-4.47-5.2-9-6.62-13.07-1.06-3-2-5.71-3.54-7.67C2.93,22,2,19,2.34,17.61A1.19,1.19,0,0,1,3,16.73c2.87-1.41,2.95-1.24,3.4-.32.93,1.9,3.5,6.41,7.29,7.76,3.34,1.14,4.65,1.49,7.53.09a11.84,11.84,0,0,1,1.4-.62c.58-.28,1.24-.53,1.87-.84,2-1,4.31-2.4,5.1-4.71a15.16,15.16,0,0,1,1-2.11,8.37,8.37,0,0,0,.73-1.71,4.2,4.2,0,0,0-.49-2.75L30,10a29.11,29.11,0,0,1-1.77-3.76c-.53-1.52-.36-1.89-.36-1.89a6,6,0,0,1,1.79-1.3c1.72-.84,3.52-.94,4.18-.48a4.07,4.07,0,0,0,.77.41c1.08.89,1.55,2.73,2.05,4.48a21.15,21.15,0,0,0,1,3.06c1.16,2.36,2.69,3.6,4.71,5.25.45.35.94.75,1.42,1.16.65.75,1.45,1.5,2.16,2.22a13.09,13.09,0,0,1,2.6,3c.88,1.78,3,5,4.6,7.65,1,1.58,1.92,3.05,2.12,3.45a6.83,6.83,0,0,0,1.11,1.38C57.78,36.11,60.33,39,60.08,41.4Z"/><g class="cls-7"><text class="cls-8" transform="translate(28.63 55.55) rotate(-26.1)">H<tspan class="cls-9" x="2.48" y="0">A</tspan><tspan x="4.62" y="0">VE A NICE D</tspan><tspan class="cls-10" x="24.58" y="0">A</tspan><tspan class="cls-11" x="26.63" y="0">Y</tspan></text></g><g class="cls-12"><path class="cls-13" d="M36.09,45.86a9.07,9.07,0,1,1,6.15-12.68h0a9.08,9.08,0,0,1-4.36,12.06A9.51,9.51,0,0,1,36.09,45.86Zm-3.72-16a7.34,7.34,0,1,0,8.31,4A7.33,7.33,0,0,0,32.37,29.88Z"/><circle class="cls-13" cx="30.36" cy="37.36" r="0.63" transform="translate(-12.97 16.39) rotate(-25.08)"/><circle class="cls-13" cx="36.6" cy="34.45" r="0.63" transform="translate(-11.15 18.77) rotate(-25.08)"/><path class="cls-13" d="M34.86,40.38A4.75,4.75,0,0,1,32,40.11a.44.44,0,0,1-.22-.58.43.43,0,0,1,.57-.21,3.81,3.81,0,0,0,3.18-.1A3.69,3.69,0,0,0,37.25,37a.43.43,0,1,1,.83.23A4.54,4.54,0,0,1,35.92,40,4.32,4.32,0,0,1,34.86,40.38Z"/></g><text class="cls-14" transform="translate(19.51 31.79) rotate(-26.1)">THANK YOU</text><path class="cls-6" d="M11.69,18.23c2.08,1.47,4,2.89,5.7,2.76a8.76,8.76,0,0,0,3.27-1.32,23.38,23.38,0,0,1,3.82-1.79c1.09-.4,2.21-.87,3.13-1.32l.23-.12a6.19,6.19,0,0,0-.29.86c-.56,1.63-2.46,2.7-4,3.46a17.72,17.72,0,0,1-1.81.81c-.51.25-1.06.45-1.46.65-2.07,1-2.67,1-5.92-.17-2.65-.9-4.69-4-5.67-5.91C9.67,16.72,10.72,17.56,11.69,18.23Z"/></svg>