<svg id="Layer_1" data-name="Layer 1" xmlns="http://www.w3.org/2000/svg" viewBox="0 0 69.72 68.19"><defs><style>.cls-1,.cls-13,.cls-6{opacity:0.3;}.cls-1,.cls-10,.cls-12,.cls-13,.cls-2,.cls-5,.cls-7,.cls-8,.cls-9{isolation:isolate;}.cls-1,.cls-2{font-size:9.93px;stroke:#ed1c24;stroke-width:0.25px;}.cls-1{fill:none;}.cls-1,.cls-10,.cls-13,.cls-2,.cls-8,.cls-9{font-family:HelveticaNeue-Bold, Helvetica Neue;font-weight:700;}.cls-12,.cls-2,.cls-3{opacity:0.5;}.cls-10,.cls-12,.cls-13,.cls-2,.cls-4,.cls-8,.cls-9{fill:#ed1c24;}.cls-5{fill:#fff;opacity:0.8;}.cls-10,.cls-13,.cls-8,.cls-9{font-size:3.35px;}.cls-9{letter-spacing:-0.05em;}.cls-10{letter-spacing:-0.07em;}.cls-11{opacity:0.75;}</style></defs><title>thankyou-bag-bg</title><text class="cls-1" transform="translate(5.26 15.58)">THANK YOU</text><text class="cls-1" transform="translate(5.26 58.2)">THANK YOU</text><text class="cls-1" transform="translate(5.26 22.68)">THANK YOU</text><text class="cls-1" transform="translate(5.26 29.79)">THANK YOU</text><text class="cls-2" transform="translate(5.26 36.89)">THANK YOU</text><text class="cls-1" transform="translate(5.26 43.99)">THANK YOU</text><text class="cls-1" transform="translate(5.26 51.1)">THANK YOU</text><g class="cls-3"><path class="cls-4" d="M57.57,48.23c-.11-.45-.22-1-.28-1.16,0-.57-.08-1.92-.27-4.29-.23-3-.51-6.8-.46-8.66a12.31,12.31,0,0,0-1.09-4.63,18.37,18.37,0,0,1-.81-2.78v-.06a3.49,3.49,0,0,1,.13-2.3A14,14,0,0,0,52.86,9.64c0-.06-.06-.07-.06-.13A4.75,4.75,0,0,0,52,8.27c-1.12-1.37-3.53-2.08-5.38-2.13a9,9,0,0,0-3,.42c-2.2.77-2.18,4.61-2.15,8v1.6a2.15,2.15,0,0,1-.16,1,32.78,32.78,0,0,1-5.94-.23,22.84,22.84,0,0,0-4.6-.26,8,8,0,0,1-2.62-.2c-.82-.35-1.85-2.42-2.7-4.11C24.12,9.7,22.79,7,20.56,6.53c-1-.67-2.54-.71-4.07-.76A3.35,3.35,0,0,0,13.8,7c-1.59,1.87-2.08,5.8-1.24,10.14.39,2.12,0,4.74-.41,7.73a44.46,44.46,0,0,0-.24,15.35c1.29,6.57.72,8.79.15,10.89a14.3,14.3,0,0,0-.62,3.63v.19c.05.26,1,6.68,5.63,6.81,1.31,0,2.61-.08,3.91-.21a31.47,31.47,0,0,1,4.55-.25,20.88,20.88,0,0,1,4.46.57,22.31,22.31,0,0,0,3.64.42A71.19,71.19,0,0,0,47,60.86c2.12-.32,4.05-.72,6-.92a6,6,0,0,0,4.22-2.31C59.24,54.93,58.15,50.62,57.57,48.23ZM52.72,16c.14-.57.22-1.15.36-1.72a11,11,0,0,1,0,8.58,10,10,0,0,1-.83-4A19.34,19.34,0,0,1,52.72,16ZM23.48,13.49c1.15,2.27,2.18,4.41,3.76,5.09a9.08,9.08,0,0,0,3.51.36,22.9,22.9,0,0,1,4.22.18c1.12.15,2.25.25,3.38.29h.26A6.5,6.5,0,0,0,38,20c-1.25,1.18-3.43,1.24-5.16,1.2a11,11,0,0,1-2-.12A8.82,8.82,0,0,0,29.2,21c-2.3-.07-2.81-.4-5.17-2.9-1.93-2-2.27-5.76-2.27-7.87C22.39,11.22,22.93,12.45,23.48,13.49Zm32.07,43a3.51,3.51,0,0,1-2.69,1.4c-1.92.27-3.92.59-6,.92a70,70,0,0,1-13,1.43,18,18,0,0,1-3.26-.35,25.5,25.5,0,0,0-4.85-.58,32.18,32.18,0,0,0-4.8.25,24.81,24.81,0,0,1-3.66.21c-2.68-.07-3.46-4.25-3.57-4.83a11.76,11.76,0,0,1,.53-3.06c.57-2.22,1.22-4.76-.12-11.84-1.06-5.6-.41-10.38.22-14.65.47-3.19.87-6,.43-8.44-.78-4.18-.18-7.3.75-8.36a1.16,1.16,0,0,1,1-.48c3.2.09,3.19.28,3.16,1.3-.06,2.11.12,7.3,2.85,10.26,2.32,2.56,3.32,3.48,6.55,3.57a13,13,0,0,1,1.53.11c.64,0,1.34.1,2,.12,2.17.06,4.93-.12,6.7-1.79a12.54,12.54,0,0,1,1.84-1.42,8.62,8.62,0,0,0,1.44-1.18,4.26,4.26,0,0,0,.84-2.66V14.75a28.7,28.7,0,0,1,.18-4.15c.23-1.6.56-1.84.56-1.84a5.58,5.58,0,0,1,2.18-.32c1.92,0,3.57.8,3.93,1.51a4,4,0,0,0,.49.72c.54,1.3.11,3.14-.26,4.92a21.68,21.68,0,0,0-.44,3.22c-.07,2.62.71,4.43,1.73,6.83.24.52.48,1.1.72,1.68.23,1,.58,2,.87,3a12.58,12.58,0,0,1,.92,3.87c0,2,.29,5.83.52,8.91.14,1.85.28,3.59.27,4a7.2,7.2,0,0,0,.34,1.71C56,50.75,56.86,54.48,55.55,56.49Z"/></g><path class="cls-5" d="M55.55,56.49a3.51,3.51,0,0,1-2.69,1.4c-1.92.27-3.92.59-6,.92a70,70,0,0,1-13,1.43,18,18,0,0,1-3.26-.35,25.5,25.5,0,0,0-4.85-.58,32.18,32.18,0,0,0-4.8.25,24.81,24.81,0,0,1-3.66.21c-2.68-.07-3.46-4.25-3.57-4.83a11.76,11.76,0,0,1,.53-3.06c.57-2.22,1.22-4.76-.12-11.84-1.06-5.6-.41-10.38.22-14.65.47-3.19.87-6,.43-8.44-.78-4.18-.18-7.3.75-8.36a1.16,1.16,0,0,1,1-.48c3.2.09,3.19.28,3.16,1.3-.06,2.11.12,7.3,2.85,10.26,2.32,2.56,3.32,3.48,6.55,3.57a13,13,0,0,1,1.53.11c.64,0,1.34.1,2,.12,2.17.06,4.93-.12,6.7-1.79a12.54,12.54,0,0,1,1.84-1.42,8.62,8.62,0,0,0,1.44-1.18,4.26,4.26,0,0,0,.84-2.66V14.75a28.7,28.7,0,0,1,.18-4.15c.23-1.6.56-1.84.56-1.84a5.58,5.58,0,0,1,2.18-.32c1.92,0,3.57.8,3.93,1.51a4,4,0,0,0,.49.72c.54,1.3.11,3.14-.26,4.92a21.68,21.68,0,0,0-.44,3.22c-.07,2.62.71,4.43,1.73,6.83.24.52.48,1.1.72,1.68.23,1,.58,2,.87,3a12.58,12.58,0,0,1,.92,3.87c0,2,.29,5.83.52,8.91.14,1.85.28,3.59.27,4a7.2,7.2,0,0,0,.34,1.71C56,50.75,56.86,54.48,55.55,56.49Z"/><g class="cls-6"><g class="cls-7"><text class="cls-8" transform="matrix(1, 0.03, -0.03, 1, 21.12, 54.4)">H</text><text class="cls-9" transform="matrix(1, 0.03, -0.03, 1, 23.6, 54.47)">A</text><text class="cls-8" transform="matrix(1, 0.03, -0.03, 1, 25.74, 54.53)">VE A NICE D</text><text class="cls-10" transform="matrix(1, 0.03, -0.03, 1, 45.69, 55.08)">A</text><text class="cls-8" transform="matrix(1, 0.03, -0.03, 1, 47.74, 55.14)">Y</text></g></g><g class="cls-11"><path class="cls-12" d="M32.24,49.29a9.07,9.07,0,1,1,11.34-8.36h0a9,9,0,0,1-11.34,8.36Zm4.13-15.88a7.65,7.65,0,0,0-1.51-.23,7.34,7.34,0,1,0,1.51.23Z"/><circle class="cls-12" cx="31.12" cy="39.11" r="0.63"/><circle class="cls-12" cx="38" cy="39.42" r="0.63"/><path class="cls-12" d="M33.7,43.87a4.83,4.83,0,0,1-2.43-1.58.43.43,0,0,1,.07-.61h0a.43.43,0,0,1,.61.07,3.83,3.83,0,0,0,2.91,1.4A3.63,3.63,0,0,0,37.42,42,.43.43,0,0,1,38,42a.41.41,0,0,1,0,.59l0,0a4.42,4.42,0,0,1-4.33,1.26Z"/></g><text class="cls-13" transform="matrix(1, 0.03, -0.03, 1, 24.1, 29.13)">THANK YOU</text><path class="cls-5" d="M23.48,13.49c1.15,2.27,2.18,4.41,3.76,5.09a9.08,9.08,0,0,0,3.51.36,22.9,22.9,0,0,1,4.22.18c1.12.15,2.25.25,3.38.29h.26A6.5,6.5,0,0,0,38,20c-1.25,1.18-3.43,1.24-5.16,1.2a11,11,0,0,1-2-.12A8.82,8.82,0,0,0,29.2,21c-2.3-.07-2.81-.4-5.17-2.9-1.93-2-2.27-5.76-2.27-7.87C22.39,11.22,22.93,12.45,23.48,13.49Z"/><path class="cls-5" d="M52.71,15.94c.14-.57.22-1.15.36-1.72a11,11,0,0,1,0,8.58,9.78,9.78,0,0,1-.83-4A18.1,18.1,0,0,1,52.71,15.94Z"/></svg>