<svg id="Layer_1" data-name="Layer 1" xmlns="http://www.w3.org/2000/svg" viewBox="0 0 45.31 50.14"><defs><style>.cls-1,.cls-10{opacity:0.5;}.cls-10,.cls-11,.cls-2,.cls-4{fill:#fff;}.cls-11,.cls-3{opacity:0.3;}.cls-11,.cls-4{font-size:2.72px;font-family:HelveticaNeue-Bold, Helvetica Neue;font-weight:700;}.cls-5{letter-spacing:-0.05em;}.cls-6{letter-spacing:0em;}.cls-7{letter-spacing:-0.07em;}.cls-8{letter-spacing:0em;}.cls-9{opacity:0.75;}</style></defs><title>nimaArtboard 1</title><g class="cls-1"><path class="cls-2" d="M43.36,31.09c-.19-.33-.39-.77-.47-.86-.1-.45-.45-1.49-1.09-3.32-.8-2.33-1.79-5.25-2.13-6.72a10,10,0,0,0-1.81-3.43,13.57,13.57,0,0,1-1.21-2l0-.05a3,3,0,0,1-.37-1.84,11.4,11.4,0,0,0-4.5-11.19s-.07,0-.08-.09A3.79,3.79,0,0,0,30.8.77,6.23,6.23,0,0,0,26.13.19a7.28,7.28,0,0,0-2.29,1c-1.57,1.06-.77,4.07-.05,6.74l.3,1.27a1.81,1.81,0,0,1,.08.83,25.13,25.13,0,0,1-4.72,1,19.41,19.41,0,0,0-3.68.74,6.42,6.42,0,0,1-2.1.38c-.72-.1-2-1.53-3-2.68-1.6-1.82-3.2-3.69-5-3.59a6.62,6.62,0,0,0-3.36.24A2.73,2.73,0,0,0,.45,7.62c-.87,1.8-.46,5,1.1,8.24A21.85,21.85,0,0,1,2.81,22a36.24,36.24,0,0,0,3,12.13c2.36,4.9,2.37,6.77,2.35,8.54a11.09,11.09,0,0,0,.26,3l0,.15c.09.19,2.13,5.07,5.83,4.21a29,29,0,0,0,3-1,24.91,24.91,0,0,1,3.53-1.13,17.85,17.85,0,0,1,3.63-.47,15.9,15.9,0,0,0,2.95-.41A57.58,57.58,0,0,0,37.61,43.2c1.6-.69,3-1.39,4.52-2A4.88,4.88,0,0,0,45,38.57C46.05,36,44.3,32.85,43.36,31.09ZM32.92,6.69c0-.48-.06-1-.07-1.43A9,9,0,0,1,34.57,12a7.93,7.93,0,0,1-1.44-3A14,14,0,0,1,32.92,6.69Zm-23.53,4c1.37,1.56,2.62,3,4,3.24a7.08,7.08,0,0,0,2.83-.44,19.48,19.48,0,0,1,3.36-.72,25.15,25.15,0,0,0,2.72-.47l.2,0a5.59,5.59,0,0,0-.39.62c-.74,1.19-2.44,1.69-3.81,2a13.74,13.74,0,0,1-1.58.31c-.46.11-.92.16-1.28.25-1.82.42-2.29.26-4.66-1.22-1.93-1.21-3-4.07-3.41-5.73C8.07,9.17,8.75,10,9.39,10.73ZM43.46,38a2.87,2.87,0,0,1-1.86,1.66c-1.46.6-3,1.27-4.57,2a55.23,55.23,0,0,1-9.91,3.78,13.69,13.69,0,0,1-2.63.4,21.43,21.43,0,0,0-3.94.53,27.5,27.5,0,0,0-3.73,1.19,19.92,19.92,0,0,1-2.83.92c-2.13.49-3.6-2.64-3.81-3.08A9.6,9.6,0,0,1,10,42.86c0-1.87,0-4-2.52-9.3A34.24,34.24,0,0,1,4.62,22a22,22,0,0,0-1.4-6.72C1.75,12.12,1.58,9.55,2.1,8.52a1,1,0,0,1,.66-.58c2.54-.59,2.57-.44,2.76.38C5.91,10,7.11,14,9.87,15.8c2.43,1.53,3.41,2.05,5.94,1.46.36-.08.76-.17,1.23-.23s1.08-.19,1.63-.32c1.73-.4,3.86-1.11,4.91-2.79a12.12,12.12,0,0,1,1.15-1.5,6.84,6.84,0,0,0,.9-1.22,3.38,3.38,0,0,0,.11-2.27l-.3-1.32a23.47,23.47,0,0,1-.71-3.3c-.14-1.31.07-1.57.07-1.57A4.81,4.81,0,0,1,26.45,2c1.52-.35,3-.1,3.4.39a2.86,2.86,0,0,0,.53.46c.69.91.73,2.45.8,3.93a16.84,16.84,0,0,0,.24,2.62,12.11,12.11,0,0,0,2.76,5c.29.36.6.77.91,1.18.38.71.87,1.46,1.3,2.16a10.45,10.45,0,0,1,1.51,2.85c.37,1.57,1.42,4.53,2.24,6.91.49,1.43,1,2.77,1,3.12A5.47,5.47,0,0,0,41.8,32C42.61,33.4,44.1,36.15,43.46,38Z"/></g><g class="cls-3"><text class="cls-4" transform="translate(15.93 43.42) rotate(-13)">H<tspan class="cls-5" x="2.02" y="0">A</tspan><tspan class="cls-6" x="3.76" y="0">VE A NICE D</tspan><tspan class="cls-7" x="20" y="0">A</tspan><tspan class="cls-8" x="21.66" y="0">Y</tspan></text></g><g class="cls-9"><path class="cls-10" d="M23.63,37.12a7.37,7.37,0,1,1,7.21-8.91h0A7.38,7.38,0,0,1,25.16,37,7.23,7.23,0,0,1,23.63,37.12Zm0-13.35a6.61,6.61,0,0,0-1.24.13,6,6,0,1,0,1.24-.13Z"/><circle class="cls-10" cx="20.66" cy="29.33" r="0.51" transform="translate(-5.64 4.93) rotate(-11.99)"/><circle class="cls-10" cx="26.14" cy="28.17" r="0.51" transform="translate(-5.28 6.05) rotate(-11.99)"/><path class="cls-10" d="M23.67,32.56a3.92,3.92,0,0,1-2.24-.75.36.36,0,0,1-.06-.5.35.35,0,0,1,.49-.06,3.09,3.09,0,0,0,2.53.51,3,3,0,0,0,1.79-1.43.35.35,0,0,1,.62.34,3.72,3.72,0,0,1-2.22,1.76A3.39,3.39,0,0,1,23.67,32.56Z"/></g><text class="cls-11" transform="translate(13.09 22.92) rotate(-13)">THANK YOU</text></svg>