<svg id="Layer_1" data-name="Layer 1" xmlns="http://www.w3.org/2000/svg" viewBox="0 0 32 32"><defs><style>.cls-1{fill:#fff;}.cls-2{fill:#9cf;}</style></defs><title>spraypaintbottle</title><rect class="cls-1" x="14.3" y="0.71" width="3.4" height="2.35"/><path d="M17,1.41v.94H15V1.41h2M17.93,0H14.07a.47.47,0,0,0-.47.47V3.76h4.8V.47A.47.47,0,0,0,17.93,0Z"/><path class="cls-1" d="M7.29,31.29V11.17c0-4.33,3.77-8,8.41-8.11H16c4.8,0,8.71,3.53,8.71,7.89V31.29Z"/><path d="M16,3.76c4.41,0,8,3.23,8,7.19V30.59H8V11.17c0-3.95,3.46-7.27,7.72-7.41H16m0-1.41h-.32a9.13,9.13,0,0,0-9.09,8.82v20.4a.47.47,0,0,0,.47.43H24.94a.47.47,0,0,0,.47-.43V11C25.41,6.2,21.2,2.35,16,2.35Z"/><rect class="cls-1" x="7.29" y="11.65" width="17.41" height="19.64"/><path d="M24,12.36V30.59H8V12.36H24M25.41,11H6.61V31.53a.47.47,0,0,0,.47.47H24.94a.47.47,0,0,0,.47-.47V11h0Z"/><rect class="cls-2" x="9.71" y="14.59" width="1.41" height="14.12"/></svg>