<svg id="Layer_1" data-name="Layer 1" xmlns="http://www.w3.org/2000/svg" viewBox="0 0 2512.76 1412.74"><defs><style>.cls-1{fill:#bcccd4;}.cls-2{fill:none;stroke:#fff;stroke-miterlimit:10;}</style></defs><title>Artboard 1 copy 16</title><rect class="cls-1" x="-50.62" y="-20.72" width="2617" height="1470.18"/><line class="cls-2" x1="-85.62" y1="823.36" x2="2560.38" y2="823.36"/><path class="cls-2" d="M-87.64,828c2.64-1,92-2.19,96.58-1.31C20.39,828.85,234.73,841,245,842.49c8.42,1.2,147.07-3.73,152.07-3.36,5.78.42,152.11,15.36,158.93,17.18,4.33,1.15,119.51,6.17,124.8,5.36,6.31-1,196.59-6.08,197-14.91.27-6.09,151.2-14.53,155.8-14.23.15,0,28.91-.24,31-.58.88-.14,24.77-.32,25.93-.53,1.35-.24,39.45-.56,41.37-1,1.46-.35,40.68-.77,42.78-1.41,4.09-1.25,133.51-4.74,137-7.18,12.85-9.12,312.17-30,324.48-35.65,3.14-1.44,58.15-1.23,59-1.17,7,.5,225.75,13.18,241.66,16.82,9.57,2.19,165.3,3.84,169.9,10,2.47,3.31,102.74,6.8,107.43,10.64,2.82,2.31,62.74,3.66,63.68,4.09,3.47,1.59,69.21,1.35,72.53,2.55,6,2.17,108.48,4.29,110.84,6.41,2.13,1.91,98.41,4.77,101.32,9.38"/><path class="cls-2" d="M-89.67,832.63c5.29-2.07,90.19-4.37,99.42-2.63,22.91,4.33,217.7,28.71,238.24,31.63,16.84,2.39,146.37-7.45,156.37-6.73,11.56.84,138.6,30.73,152.23,34.36,8.66,2.31,116.94,12.34,127.52,10.73,12.62-1.93,195.4-12.16,196.19-29.82.55-12.18,143.76-29.05,152.94-28.45.3,0,27.78-.48,31.91-1.16,1.76-.29,24.39-.64,26.71-1.05,2.69-.48,38.73-1.13,42.58-2.07,2.91-.71,39.76-1.53,43.95-2.81,8.17-2.5,132.77-9.47,139.66-14.36,25.69-18.24,287.91-60,312.54-71.3,6.28-2.88,59-2.46,60.67-2.34,14,1,211.47,26.36,243.29,33.64,19.14,4.38,162.92,7.68,172.11,20,4.94,6.62,96.3,13.59,105.69,21.27,5.64,4.62,62.68,7.31,64.55,8.17,6.94,3.18,67.79,2.69,74.44,5.1,12,4.35,108,8.57,112.68,12.83,4.25,3.83,94.58,9.55,100.42,18.76"/><path class="cls-2" d="M-91.69,837.27c7.93-3.11,88.41-6.56,102.26-3.94,34.37,6.5,209.59,43.06,240.41,47.44,25.27,3.59,145.66-11.18,160.66-10.09,17.34,1.26,125.09,46.09,145.54,51.55,13,3.46,114.37,18.51,130.24,16.09,18.94-2.89,194.2-18.24,195.39-44.73.82-18.27,136.31-43.58,150.09-42.68.46,0,26.66-.72,32.85-1.74,2.65-.43,24-1,27.49-1.58,4-.72,38-1.69,43.79-3.1,4.37-1.06,38.83-2.3,45.11-4.22,12.26-3.75,132-14.21,142.36-21.55,38.54-27.36,263.65-90,300.59-106.95,9.43-4.33,59.89-3.69,62.37-3.51,21,1.49,197.2,39.55,244.92,50.45,28.72,6.56,160.53,11.52,174.32,30,7.41,9.93,89.86,20.39,103.94,31.91,8.47,6.92,62.61,11,65.41,12.26,10.42,4.77,66.37,4,76.35,7.65,18,6.52,107.43,12.86,114.52,19.24,6.38,5.74,90.75,14.32,99.51,28.13"/><path class="cls-2" d="M-93.71,841.91c10.57-4.15,86.64-8.74,105.09-5.26C57.2,845.32,212.87,894.07,254,899.91c33.69,4.79,145-14.91,165-13.45,23.12,1.68,111.58,61.45,138.85,68.73,17.32,4.62,111.81,24.68,133,21.45,25.25-3.85,193-24.31,194.59-59.64,1.09-24.36,128.87-58.11,147.23-56.9.61,0,25.53-1,33.79-2.31,3.53-.58,23.63-1.28,28.27-2.11,5.38-1,37.28-2.26,45-4.13,5.82-1.41,37.91-3.06,46.28-5.63,16.34-5,131.29-18.95,145.07-28.73,51.39-36.48,239.39-120,288.65-142.59,12.57-5.77,60.77-4.91,64.07-4.68,28,2,182.92,52.73,246.56,67.27,38.29,8.75,158.14,15.36,176.53,40,9.88,13.24,83.42,27.19,102.2,42.55,11.29,9.23,62.55,14.63,66.28,16.34,13.89,6.36,65,5.38,78.26,10.2,24,8.69,106.91,17.15,116.36,25.65,8.5,7.65,86.93,19.09,98.6,37.51"/><path class="cls-2" d="M-95.74,846.55c13.21-5.18,84.86-10.93,107.93-6.57C69.47,850.81,205.59,911.74,257,919c42.11,6,144.24-18.64,169.24-16.82,28.9,2.1,98.06,76.82,132.16,85.91C580,993.91,667.59,1019,694,1015c31.56-4.82,191.82-30.39,193.79-74.55,1.36-30.45,121.42-72.64,144.38-71.13.76,0,24.41-1.2,34.72-2.89,4.41-.72,23.25-1.59,29.05-2.63,6.73-1.2,36.56-2.82,46.2-5.16,7.28-1.77,37-3.83,47.45-7,20.43-6.26,130.55-23.68,147.77-35.91,64.24-45.6,215.13-150,276.7-178.24,15.71-7.21,61.64-6.14,65.77-5.85,35,2.48,168.65,65.91,248.19,84.09,47.86,10.94,155.75,19.21,178.74,50,12.35,16.55,77,34,100.46,53.18,14.11,11.54,62.48,18.29,67.15,20.43,17.36,8,63.54,6.73,80.17,12.76,30,10.87,106.39,21.43,118.21,32.06,10.63,9.56,83.1,23.86,97.69,46.89"/><path class="cls-2" d="M-97.76,851.19C-81.9,845-14.67,838.07,13,843.3c68.73,13,185.29,86.12,246.93,94.88,50.53,7.18,143.54-22.36,173.54-20.18,34.68,2.52,84.55,92.18,125.46,103.09,26,6.93,106.67,37,138.4,32.18,37.87-5.78,190.62-36.47,193-89.45,1.64-36.55,114-87.16,141.52-85.36.91.06,23.29-1.44,35.66-3.47,5.29-.87,22.86-1.91,29.83-3.16,8.07-1.45,35.84-3.39,47.41-6.2,8.73-2.12,36.06-4.6,48.62-8.44,24.51-7.51,129.81-28.42,150.48-43.09,77.08-54.72,190.87-180,264.76-213.89,18.85-8.65,62.51-7.37,67.47-7,42,3,154.37,79.09,249.83,100.91,57.43,13.13,153.36,23,181,60,14.82,19.86,70.55,40.78,98.71,63.82,16.93,13.85,62.42,21.94,68,24.51,20.83,9.55,62.12,8.07,82.08,15.31,36,13,105.87,25.72,120,38.48,12.76,11.48,79.28,28.64,96.78,56.27"/><path class="cls-2" d="M-99.78,855.83c18.5-7.26,81.31-15.3,113.61-9.2C94,861.79,191,947.1,262.93,957.32c59,8.38,142.83-26.09,177.83-23.55,40.46,2.94,71,107.55,118.77,120.27,30.3,8.08,104.1,43.2,141.12,37.55,44.19-6.74,189.43-42.55,192.2-104.36,1.91-42.64,106.53-101.69,138.67-99.58,1.07.07,22.16-1.68,36.6-4,6.17-1,22.48-2.23,30.62-3.69,9.42-1.69,35.12-4,48.62-7.23,10.19-2.48,35.14-5.36,49.79-9.85,28.6-8.76,129.07-33.16,153.18-50.27,89.93-63.84,166.62-210,252.81-249.54,22-10.1,63.38-8.6,69.17-8.19,49,3.47,140.1,92.27,251.46,117.73,67,15.31,151,26.89,183.16,70,17.29,23.17,64.11,47.58,97,74.45,19.75,16.16,62.35,25.6,68.89,28.6,24.3,11.14,60.71,9.42,84,17.86,42,15.21,105.35,30,121.89,44.89,14.88,13.39,75.45,33.41,95.87,65.64"/><path class="cls-2" d="M-101.8,860.47C-80.66,852.17-22.27,843,14.65,850c91.64,17.32,169.08,114.82,251.27,126.5C333.29,986,408,946.64,448,949.55c46.24,3.36,57.53,122.91,112.08,137.45,34.63,9.23,101.54,49.37,143.84,42.91,50.5-7.71,188.23-48.63,191.4-119.27,2.18-48.73,99.08-116.22,135.81-113.81,1.22.08,21-1.92,37.54-4.63,7.05-1.16,22.1-2.55,31.4-4.21,10.76-1.93,34.4-4.52,49.82-8.26,11.64-2.83,34.21-6.13,51-11.26,32.68-10,128.33-37.9,155.89-57.45,102.78-73,142.36-240,240.86-285.19,25.13-11.54,64.26-9.83,70.87-9.36,55.95,4,125.82,105.45,253.1,134.55,76.57,17.5,148.59,30.73,185.37,80,19.77,26.48,57.67,54.37,95.23,85.09,22.57,18.46,62.29,29.26,69.76,32.68,27.77,12.73,59.29,10.76,85.9,20.41,48,17.38,104.83,34.3,123.73,51.3,17,15.3,71.62,38.18,95,75"/><path class="cls-2" d="M-103.83,865.1c23.78-9.33,77.76-19.67,119.29-11.82,103.1,19.49,161,129.17,253.44,142.31,75.8,10.77,141.41-33.55,186.41-30.27,52,3.78,44,138.27,105.39,154.64,39,10.39,99,55.54,146.56,48.27,56.81-8.67,187-54.71,190.6-134.18,2.45-54.82,91.63-130.75,133-128,1.37.09,19.91-2.16,38.48-5.21,7.94-1.3,21.72-2.87,32.18-4.74,12.11-2.17,33.68-5.08,51-9.3,13.1-3.18,33.29-6.89,52.12-12.66,36.77-11.26,127.59-42.63,158.59-64.64,115.63-82.08,118.1-270,228.92-320.84,28.28-13,65.13-11.06,72.57-10.53,62.94,4.46,111.55,118.64,254.73,151.36,86.15,19.69,146.2,34.57,187.58,90,22.24,29.78,51.23,61.17,93.49,95.73,25.4,20.77,62.22,32.92,70.63,36.77,31.25,14.32,57.87,12.11,87.81,23,54,19.56,104.31,38.58,125.57,57.71,19.14,17.22,67.8,43,94.06,84.4"/><path class="cls-2" d="M-105.85,869.74c26.43-10.37,76-21.86,122.13-13.14,114.55,21.65,152.88,143.53,255.61,158.13,84.22,12,140.71-37.27,190.71-33.64,57.8,4.2,30.51,153.64,98.69,171.82,43.29,11.54,96.4,61.71,149.28,53.64,63.12-9.63,185.84-60.79,189.8-149.09,2.73-60.91,84.19-145.27,130.1-142.26,1.52.1,18.79-2.4,39.42-5.78,8.82-1.45,21.34-3.19,33-5.27,13.46-2.41,33-5.64,52.24-10.33,14.55-3.54,32.36-7.66,53.29-14.07,40.86-12.51,126.85-47.37,161.3-71.82,128.47-91.2,93.84-300,217-356.48,31.42-14.42,66-12.28,74.27-11.7,69.94,5,97.27,131.82,256.37,168.18,95.72,21.88,143.81,38.41,189.79,100,24.71,33.09,44.8,68,91.74,106.36,28.22,23.08,62.16,36.57,71.5,40.85C2305,871,2326.78,868.59,2360,880.65c59.95,21.73,103.79,42.87,127.42,64.13,21.26,19.13,64,47.73,93.15,93.78"/><path class="cls-2" d="M-107.87,874.38c29.07-11.4,74.21-24,125-14.45,126,23.82,144.77,157.88,257.78,173.94,92.65,13.17,140-41,195-37,63.58,4.62,17,169,92,189,47.62,12.7,93.83,67.88,152,59,69.43-10.6,184.65-66.87,189-164,3-67,76.74-159.8,127.25-156.49,1.68.11,17.66-2.64,40.36-6.36q14.55-2.39,33.74-5.79c14.8-2.65,32.23-6.21,53.44-11.36,16-3.89,31.44-8.43,54.46-15.48,44.94-13.77,126.11-52.11,164-79,141.32-100.32,69.58-330,205-392.13,34.56-15.87,66.88-13.51,76-12.87,76.93,5.46,83,145,258,185,105.29,24.07,141.42,42.25,192,110,27.18,36.4,38.36,74.76,90,117a344,344,0,0,0,72.37,44.94c38.19,17.5,55,14.8,91.63,28.06,65.94,23.9,103.27,47.16,129.26,70.54,23.39,21,60.14,52.5,92.24,103.15"/></svg>