<svg id="Layer_1" data-name="Layer 1" xmlns="http://www.w3.org/2000/svg" viewBox="0 0 1440 900"><defs><style>.cls-1{fill:#b0ccd4;}.cls-2{opacity:0.23;}.cls-3{fill:none;stroke:#fff;stroke-miterlimit:10;}</style></defs><title>Artboard 27</title><rect class="cls-1" x="-24.58" y="-34.76" width="1480.57" height="1081.76"/><g class="cls-2"><path class="cls-3" d="M-55.5,566.5c101.88,49.93,229.39,92.65,311,37,67.38-45.95,56.69-127.06,118-150,99-37.06,187.8,151.83,299,133,166.78-28.24,224.08-455.77,316-445,46.88,5.49,58.4,121,108,121,43.92,0,47.81-109.81,112-130,27.68-8.71,66.12-1.07,139,59,61.07,50.34,159.79,148.59,239,327"/><path class="cls-3" d="M-56.88,573.45C41.24,622,167.28,666.73,250.61,613.15a125.26,125.26,0,0,0,17.21-13.3c48.19-44.43,47.24-110,102.37-131,23.2-8.81,45.71-5.38,68.16,4.09,72.39,30.53,138.48,127.44,221,111.21a112,112,0,0,0,13.22-3.47c152.26-49.81,213.12-429.06,308.54-420.45,30,2.71,45.88,48.6,66.23,80.93,11.57,18.39,24.58,32.62,42.21,32.18,36.65-.92,45.9-73.33,83.85-109.21,8.07-7.61,17.39-13.63,28.51-16.89,28.13-8.24,67.86-1.14,137,58.94,26.51,23.05,50.76,55.26,85,97.07,27.33,33.33,58.81,70.73,93.76,118.85,25.22,34.72,48.71,73.88,69.91,117"/><path class="cls-3" d="M-58.26,580.4c94.37,47.11,218.86,93.89,304,42.39A119,119,0,0,0,263,610.13c47.54-42,49.15-104.69,103.92-125.94,22.85-8.8,44.93-5.91,67,2.12,71.68,26.11,132.06,113.6,212.44,95.47a119.72,119.72,0,0,0,12.92-3.73c148.09-51.36,213.1-405.77,314.62-399.13,30.11,2,46.35,45.44,66.86,75.61,11.68,17.18,24.73,30.47,42,29.62,37.07-1.83,46.58-71.89,84.38-106.16,8.07-7.27,17.33-13,28.35-16,28.58-7.77,69.4-.91,134.92,58.87,27.61,25.19,44.14,60.29,78.34,104,26.9,34.4,60.41,70,101.67,118.86,29.28,34.66,55.57,73.8,78.42,116"/><path class="cls-3" d="M-59.64,587.36c90.61,45.7,213.51,94.48,300.48,45.08a113.72,113.72,0,0,0,17.25-12c46.86-39.58,51.07-99.38,105.48-120.87,22.49-8.8,44.17-6.45,65.8.15C500.43,521.38,555,599.44,633.2,579.43a129.81,129.81,0,0,0,12.61-4c143.91-52.88,213-382.39,320.69-377.81,30.2,1.29,46.83,42.29,67.5,70.29,11.8,16,24.89,28.31,41.81,27.06,37.5-2.77,47.18-70.53,84.91-103.11,8-6.95,17.28-12.45,28.18-15.19,29-7.29,70.76-.42,132.88,58.81,28.71,27.37,37.53,65.3,71.64,111,26.48,35.45,61.94,69.3,109.58,118.87a629.45,629.45,0,0,1,86.92,115"/><path class="cls-3" d="M-61,594.31c86.86,44.29,208.11,95,297,47.78a109.26,109.26,0,0,0,17.27-11.39c46.14-37.18,52.94-94.19,107-115.81,22.12-8.84,43.44-7,64.62-1.81,70.54,17.24,119.22,85.9,195.22,64,4.12-1.18,8.2-2.63,12.31-4.23,139.74-54.37,213.25-365.25,326.76-356.49,30.2,2.33,47.32,39.15,68.14,65,11.92,14.78,25,26.12,41.61,24.49,37.94-3.73,47.84-69.12,85.44-100.06,8-6.62,17.23-11.85,28-14.33,29.52-6.8,72,.28,130.85,58.74,29.81,29.59,30.93,70.29,64.93,117.91,26.07,36.5,63.42,68.63,117.5,118.87a604.62,604.62,0,0,1,95.43,114"/><path class="cls-3" d="M-62.4,601.26c83.1,42.88,202.66,95.57,293.47,50.47A105.57,105.57,0,0,0,248.35,641c45.39-34.79,54.85-88.9,108.58-110.75,21.77-8.85,42.74-7.56,63.44-3.78,70.1,12.77,112.8,72.05,186.62,48.27,4-1.29,8-2.83,12-4.48,135.57-55.83,213.06-342.78,332.84-335.16,30.3,1.93,47.83,36,68.77,59.65,12,13.59,25.21,23.92,41.41,21.93,38.4-4.72,48.5-67.7,86-97,8-6.29,17.18-11.24,27.85-13.48,30-6.3,73,1.16,128.81,58.68,30.9,31.86,24.34,75.28,58.23,124.86,25.66,37.53,64.86,68,125.41,118.88a599.52,599.52,0,0,1,103.93,113"/><path class="cls-3" d="M-63.79,608.21c79.35,41.47,197.15,96.06,290,53.16a102.61,102.61,0,0,0,17.32-10.12c44.61-32.43,56.76-83.62,110.14-105.68,21.42-8.85,42.05-8.14,62.26-5.75,69.75,8.25,106.37,58.21,178,32.54,3.88-1.39,7.75-3,11.7-4.74C737,510.38,818.41,247.6,944.5,253.79c30.4,1.49,48.34,32.88,69.41,54.33,12.18,12.39,25.37,21.7,41.21,19.37,38.86-5.74,49.17-66.29,86.5-94,8-6,17.14-10.63,27.69-12.63,30.49-5.78,74,2.18,126.77,58.61,32,34.16,17.76,80.26,51.53,131.81,25.27,38.56,66.27,67.37,133.32,118.89,45.13,34.67,83,73.49,112.44,112"/><path class="cls-3" d="M-65.17,615.17c75.59,40.05,191.6,96.49,286.45,55.86a100.32,100.32,0,0,0,17.34-9.48c43.79-30.09,58.67-78.33,111.69-100.62,21.06-8.86,41.42-6.33,61.08-7.72,69.42-4.91,100,44.36,169.4,16.8,3.76-1.49,7.53-3.21,11.39-5,127.23-58.63,212.55-287.9,345-292.52,30.5-1.06,48.88,29.75,70,49,12.32,11.21,25.53,19.47,41,16.8,39.32-6.78,49.84-64.87,87-90.91a67.42,67.42,0,0,1,27.52-11.78c31-5.25,74.78,3.32,124.73,58.55,33,36.51,11.19,85.23,44.83,138.75,24.88,39.58,67.66,66.79,141.23,118.9,49,34.73,89.89,73.41,120.94,111"/><path class="cls-3" d="M-66.55,622.12c71.84,38.64,186,96.87,282.95,58.55a98.71,98.71,0,0,0,17.36-8.84c42.94-27.78,60.58-73,113.24-95.55,20.71-8.86,41-6.82,59.9-9.69,68.53-10.37,93.53,30.51,160.79,1.07,3.64-1.59,7.3-3.4,11.08-5.24,123.08-60,212.42-264,351.05-271.2,30.58-1.58,49.43,26.62,70.68,43.68,12.47,10,25.69,17.22,40.8,14.24,39.78-7.85,50.51-63.44,87.56-87.86a67.69,67.69,0,0,1,27.36-10.93c31.48-4.71,75.51,4.57,122.69,58.48,34,38.89,4.63,90.19,38.13,145.7,24.5,40.6,69,66.24,149.14,118.9,52.94,34.8,96.76,73.33,129.44,110"/><path class="cls-3" d="M-67.93,629.07C.15,666.3,112.45,726.25,211.51,690.32a97.79,97.79,0,0,0,17.38-8.21c42.05-25.5,62.49-67.73,114.8-90.49,20.35-8.86,40.13-10.08,58.72-11.66,69.16-5.85,87.11,16.66,152.18-14.67,3.52-1.69,7.08-3.59,10.78-5.49C684.3,498.52,777.66,319.74,922.5,309.93c30.65-2.08,50,23.48,71.32,38.36,12.64,8.83,25.85,15,40.6,11.68,40.25-9,51.19-62,88.09-84.81a68.21,68.21,0,0,1,27.19-10.07c32-4.15,76.16,5.9,120.65,58.42,35,41.32-1.92,95.15,31.42,152.64,24.13,41.61,70.4,65.71,157.06,118.91,56.83,34.89,103.62,73.25,137.95,109"/><path class="cls-3" d="M-69.31,636C-5,671.84,105.4,733.45,206.62,700a97.58,97.58,0,0,0,17.4-7.57C265.15,669.14,288.43,630,340.37,607c20-8.85,39.5-10.81,57.54-13.62,69-10.78,80.69,2.82,143.58-30.4,3.4-1.79,6.85-3.77,10.47-5.75,114.8-62.55,212.16-216,363.2-228.55,30.73-2.55,50.61,20.33,72,33,12.82,7.63,26,12.68,40.4,9.12,40.7-10.09,51.87-60.59,88.62-81.76a69,69,0,0,1,27-9.22c32.48-3.57,76.72,7.3,118.62,58.35,35.94,43.79-8.46,100.1,24.72,159.59,23.76,42.61,71.76,65.2,165,118.92,60.72,35,110.48,73.17,146.45,108"/><path class="cls-3" d="M-70.69,643c60.57,34.41,169,97.59,272.42,66.63a98.17,98.17,0,0,0,17.42-6.94c40.18-21.05,66.32-57.13,117.9-80.36,19.65-8.85,38.88-11.57,56.36-15.59,68.92-15.86,74.27-11,135-46.13,3.28-1.9,6.63-4,10.17-6C649.24,490.8,750.62,362.73,907.83,347.36c30.8-3,51.23,17.17,72.59,27.72,13,6.43,26.17,10.39,40.2,6.55,41.16-11.26,52.55-59.16,89.15-78.71a70.12,70.12,0,0,1,26.86-8.37c33-3,77.22,8.77,116.58,58.29,36.81,46.31-15,105,18,166.54,23.41,43.61,73.11,64.72,172.88,118.93,64.61,35.1,117.35,73.1,155,107"/><path class="cls-3" d="M-72.07,649.93c56.81,33,163.31,97.68,268.92,69.33a99.65,99.65,0,0,0,17.45-6.3c39.19-18.89,68.23-51.82,119.46-75.3,19.3-8.85,38.25-12.37,55.18-17.56,68.75-21.09,67.85-24.88,126.36-61.87,3.16-2,6.41-4.15,9.86-6.25,106.59-65,212-167.61,375.35-185.9,30.88-3.46,51.88,14,73.22,22.4,13.23,5.21,26.32,8.09,40,4,41.6-12.47,53.23-57.72,89.68-75.66a71.59,71.59,0,0,1,26.7-7.52c33.5-2.37,77.64,10.28,114.54,58.22,37.62,48.88-21.5,110,11.32,173.48,23.06,44.61,74.46,64.24,180.79,118.93,68.49,35.23,124.21,73,163.46,106"/><path class="cls-3" d="M-73.45,656.88c53.06,31.59,157.57,97.68,265.41,72a102.22,102.22,0,0,0,17.47-5.66c38.18-16.77,70.15-46.51,121-70.23,18.95-8.84,37.59-13.19,54-19.53C453,607,445.87,594.75,502.19,555.87c3-2.1,6.19-4.33,9.56-6.5,102.51-66.12,211.89-143.27,381.42-164.58,31-3.89,52.54,10.77,73.86,17.08,13.45,4,26.47,5.78,39.8,1.43,42-13.72,53.92-56.28,90.21-72.61a73.47,73.47,0,0,1,26.53-6.66c34-1.74,78,11.84,112.5,58.16,38.35,51.5-28,114.92,4.62,180.43,22.71,45.61,75.81,63.79,188.7,118.94,72.38,35.36,131.08,72.94,172,105"/><path class="cls-3" d="M-74.83,663.83C-25.53,694,77,761.42,187.07,738.55a106.13,106.13,0,0,0,17.49-5c37.15-14.71,72.07-41.19,122.56-65.17,18.6-8.83,36.92-14,52.82-21.5,68.18-31.94,55-52.57,109.14-93.34,2.93-2.2,6-4.51,9.25-6.76,98.47-67.24,211.84-118.85,387.49-143.26,31.06-4.32,53.21,7.51,74.49,11.75,13.67,2.72,26.61,3.46,39.6-1.14,42.43-15,54.61-54.83,90.74-69.56a75.85,75.85,0,0,1,26.37-5.81c34.52-1.08,78.33,13.42,110.46,58.09,39,54.19-34.51,119.85-2.09,187.38,22.38,46.61,77.16,63.34,196.62,118.95,76.27,35.5,137.94,72.86,180.47,104"/><path class="cls-3" d="M-76.21,670.79c45.55,28.76,146.09,97.4,258.4,77.41a111.81,111.81,0,0,0,17.51-4.39c36.11-12.69,74-35.87,124.12-60.11,18.25-8.82,36.22-14.92,51.64-23.47C443.18,622.7,424,593.81,476,551.16c2.81-2.3,5.74-4.69,8.95-7,94.45-68.32,211.81-94.34,393.56-121.94,31.15-4.73,53.88,4.23,75.13,6.43,13.89,1.44,26.75,1.12,39.4-3.7,42.82-16.33,55.3-53.38,91.27-66.52,8-2.93,16.79-5.31,26.2-5,35,1.29,78.59,15,108.42,58,39.51,56.94-41,124.78-8.79,194.32,22,47.6,78.51,62.91,204.53,119,80.15,35.65,144.8,72.78,189,103"/><path class="cls-3" d="M-77.6,677.74c41.79,27.35,140.35,97.11,254.89,80.1a119.94,119.94,0,0,0,17.53-3.75c35-10.74,75.92-30.55,125.67-55,17.9-8.81,35.49-15.8,50.46-25.44,67.15-43.2,42.17-80.27,91.93-124.81,2.69-2.4,5.52-4.87,8.64-7.26,90.47-69.36,211.8-69.75,399.64-100.61,31.24-5.13,54.57,2.41,75.77,1.11,14.08-.86,26.88-1.22,39.2-6.26,43.18-17.69,56-51.91,91.8-63.47,8-2.59,16.76-4.58,26-4.11,35.48,1.82,78.8,16.66,106.38,58,39.91,59.76-47.47,129.71-15.49,201.27,21.72,48.59,79.86,62.49,212.44,119,84,35.8,151.67,72.7,197.48,102"/><path class="cls-3" d="M-79,684.69c38,25.94,134.61,96.73,251.38,82.8A131.65,131.65,0,0,0,190,764.37c34-8.84,77.84-25.22,127.22-50,17.55-8.8,34.73-16.69,49.28-27.4,66.43-48.91,35.74-94.12,83.32-140.54,2.57-2.51,5.31-5.05,8.33-7.51,86.53-70.37,211.83-45.07,405.71-79.29,31.34-5.53,55.17-2.45,76.4-4.21,14.31-1.19,27-3.56,39-8.83,43.52-19.1,56.69-50.45,92.33-60.42a86.94,86.94,0,0,1,25.87-3.25c36,1,79,18.3,104.35,57.9C1242,503.5,1147.84,575.47,1179.59,649c21.4,49.58,81.21,62.07,220.35,119,87.93,36,158.53,72.63,206,101"/><path class="cls-3" d="M-80.36,691.64c34.28,24.53,128.9,96.24,247.88,85.49a149,149,0,0,0,17.58-2.48c32.94-7,79.77-19.89,128.78-44.91,17.21-8.79,33.95-17.58,48.1-29.37,65.59-54.66,29.32-108,74.71-156.27a107.16,107.16,0,0,1,8-7.77C527.34,465,656.6,516,856.5,478.36c31.45-5.92,55.78-5.82,77-9.53,14.5-2.53,27.12-5.92,38.8-11.39,43.83-20.54,57.39-49,92.86-57.37a92.5,92.5,0,0,1,25.71-2.4c36.52,1.74,79.09,19.94,102.31,57.83,40.24,65.66-60.41,139.56-28.89,215.16,21.08,50.58,82.57,61.67,228.26,119,91.82,36.12,165.4,72.55,214.49,100"/><path class="cls-3" d="M-81.74,698.6c30.52,23.12,123.21,95.65,244.37,88.19a176.25,176.25,0,0,0,17.6-1.85c31.91-5.21,81.75-14.48,130.33-39.85,16.87-8.75,33.14-18.46,46.92-31.34,64.63-60.4,22.9-121.81,66.1-172a94.78,94.78,0,0,1,7.72-8c78.77-72.32,212,4.51,417.85-36.65,31.55-6.31,56.35-9.2,77.67-14.85,14.66-3.88,27.23-8.28,38.6-14,44.1-22,58.08-47.49,93.39-54.32a99.41,99.41,0,0,1,25.55-1.55c37,2.5,79.16,21.57,100.27,57.77,40.1,68.75-66.86,144.48-35.6,222.11,20.77,51.57,83.82,61.53,236.18,119,95.65,36.45,172.26,72.47,223,99"/><path class="cls-3" d="M-83.12,705.55c26.77,21.7,117.56,95,240.86,90.88,5.83-.19,11.71-.54,17.62-1.21,30.91-3.48,83.66-9.17,131.88-34.79,16.52-8.74,32.31-19.33,45.74-33.31,63.57-66.13,16.48-135.66,57.5-187.74a85.53,85.53,0,0,1,7.42-8.27c75-73.26,212.07,29.42,423.93-15.32,31.67-6.69,56.9-12.59,78.31-20.17a282.07,282.07,0,0,0,38.4-16.51c44.34-23.55,58.77-45.94,93.92-51.27a108.75,108.75,0,0,1,25.38-.7c37.49,3.29,79.19,23.19,98.23,57.7,39.7,72-73.22,149.37-42.3,229.05,20.52,52.53,85.23,61,244.09,119,99.57,36.54,179.12,72.39,231.5,98"/><path class="cls-3" d="M-84.5,712.5c24.08,21.23,120.31,101.12,255,93,40.08-2.42,126.1-5.28,178-65,65.78-75.7,4.08-157.91,56-212,71.2-74.18,212.21,54.4,430,6,31.78-7.06,57.41-16,78.95-25.5,76.7-33.9,89.19-62.68,132.65-67.3,43.06-4.57,100.49,17.43,121.41,57.79,39,75.27-79.75,154.33-49,236,20.16,53.55,86.63,60.48,252,119,103.5,36.63,186,72.31,240,97"/></g></svg>