<svg id="Layer_1" data-name="Layer 1" xmlns="http://www.w3.org/2000/svg" xmlns:xlink="http://www.w3.org/1999/xlink" viewBox="0 0 2512.76 1412.74"><defs><style>.cls-1,.cls-10,.cls-11,.cls-12,.cls-3,.cls-4,.cls-5,.cls-6,.cls-7,.cls-8,.cls-9{fill:none;}.cls-2{clip-path:url(#clip-path);}.cls-10,.cls-11,.cls-12,.cls-3,.cls-4,.cls-5,.cls-6,.cls-7,.cls-8,.cls-9{stroke:#c4a69d;stroke-miterlimit:10;}.cls-3{stroke-width:0.25px;}.cls-4{stroke-width:0.31px;}.cls-5{stroke-width:0.36px;}.cls-6{stroke-width:0.42px;}.cls-7{stroke-width:0.47px;}.cls-8{stroke-width:0.53px;}.cls-9{stroke-width:0.58px;}.cls-10{stroke-width:0.64px;}.cls-11{stroke-width:0.69px;}.cls-12{stroke-width:0.75px;}</style><clipPath id="clip-path"><rect class="cls-1" x="9.38" y="-24.25" width="2498" height="1403.41"/></clipPath></defs><title>Artboard 1 copy 16</title><g class="cls-2"><path class="cls-3" d="M-61.08,1000.76c246.31-80.82,442.92-107.27,579.39-116.1,91.68-5.93,226-8.42,554.84-26.59,68.23-3.77,102.36-5.55,108-6.16,362.69-38.85,453-199.13,683-215.82,148.4-10.77,369.86,12.27,702.22,346.8"/><path class="cls-4" d="M-62,1013.49c231.09-73.27,418.4-98.07,552.65-107,93-6.27,224.22-9.34,528.57-26.19,62.94-3.48,95.58-5.15,102.9-5.85,357.68-34.26,471.13-180.32,707-193.08,172.68-9.34,407.08,15,736.07,316.29"/><path class="cls-5" d="M-63,1026.23c215.86-65.72,393.88-88.87,525.92-98,94.28-6.6,222.39-10.26,502.3-25.8,57.65-3.2,88.8-4.76,97.8-5.55C1415.58,866,1552.3,736,1794.1,726.55c197-7.66,444.31,17.79,769.93,285.78"/><path class="cls-6" d="M-63.93,1039A2372.76,2372.76,0,0,1,435.25,950c95.58-6.94,220.55-11.19,476-25.4,52.35-2.91,82-4.38,92.7-5.25,347.34-28.16,507.43-141.19,755.08-147.61,221.35-5.74,481.53,20.54,803.78,255.27"/><path class="cls-7" d="M-64.88,1051.7c185.41-50.61,344.84-70.48,472.44-79.87,96.88-7.28,218.72-12.11,449.77-25,47.06-2.63,75.23-4,87.6-4.94C1287,916.07,1470.53,820.71,1724,817c245.71-3.59,518.75,23.3,837.63,224.76"/><path class="cls-8" d="M-65.83,1064.43c170.18-43.06,320.32-61.28,445.71-70.81,98.18-7.61,216.89-13,423.5-24.61,41.77-2.34,68.44-3.65,82.5-4.64,336.84-23.71,543.78-104.83,803.12-102.14,270,2.81,556,26.06,871.48,194.25"/><path class="cls-9" d="M-66.78,1077.16c155-35.51,295.8-52.08,419-61.75,99.48-7.95,215.06-13.95,397.24-24.21,36.48-2.05,61.66-3.3,77.4-4.34,331.58-21.77,562-83.79,827.14-79.4,294.37,4.88,593.2,28.82,905.34,163.74"/><path class="cls-10" d="M-67.72,1089.9c139.73-28,271.28-42.88,392.24-52.7,100.78-8.29,213.23-14.87,371-23.81,31.19-1.77,54.87-3,72.3-4,326.32-19.95,580.09-60.11,851.16-56.66,318.75,4.06,630.42,31.58,939.19,133.23"/><path class="cls-11" d="M-68.67,1102.63c124.5-20.4,246.76-33.68,365.5-43.64,102.08-8.62,211.4-15.79,344.71-23.41,25.89-1.48,48.09-2.65,67.2-3.73,321.05-18.21,598.24-39.55,875.19-33.92,343.08,7,667.64,34.34,973,102.72"/><path class="cls-12" d="M-69.62,1115.37c224.58-26.41,464.76-47.69,719.3-61,726-38,1371.55-1.13,1906.1,61"/></g></svg>