<?xml version="1.0" encoding="utf-8"?>
<!-- Generator: Adobe Illustrator 23.0.3, SVG Export Plug-In . SVG Version: 6.00 Build 0)  -->
<svg version="1.1" id="Layer_1" xmlns="http://www.w3.org/2000/svg" xmlns:xlink="http://www.w3.org/1999/xlink" x="0px" y="0px"
	 viewBox="0 0 105 116.2" style="enable-background:new 0 0 105 116.2;" xml:space="preserve">
<style type="text/css">
	.st0{opacity:0.2;fill:#B3403B;}
	.st1{fill:#BF433F;}
	.st2{fill:#CC7371;}
	.st3{fill:#E1C2C2;}
	.st4{opacity:0.3;fill:#B43F3A;}
</style>
<ellipse class="st0" cx="52" cy="104" rx="47.7" ry="12.2"/>
<g>
	<path class="st1" d="M2.3,88.5c16.8,4.6,33.6,9.2,50.4,13.8c16.8-4.5,33.6-9,50.4-13.5c0-21.8,0-43.5,0-65.3
		C86.4,28,69.7,32.5,53,37c-16.8-3.7-33.7-7.4-50.5-11.2C2.4,46.7,2.4,67.6,2.3,88.5z"/>
	<path class="st2" d="M52.7,102.3c16.8-4.5,33.6-9,50.4-13.5c0-21.8,0-43.5,0-65.3C86.4,28,69.7,32.5,53,37
		C52.9,58.7,52.8,80.5,52.7,102.3z"/>
	<path class="st1" d="M0,20.6C0,26,0,31.4,0,36.8c17.4,4.9,34.8,9.8,52.3,14.8C69.9,46.8,87.4,42,105,37.3c-0.1-5.5-0.2-11-0.2-16.5
		C87.6,16.2,70.4,11.6,53.2,7C35.5,11.5,17.7,16.1,0,20.6z"/>
	<path class="st2" d="M52,34.9c0.1,5.6,0.2,11.2,0.3,16.8c17.5-4.8,35.1-9.6,52.6-14.4c0-5.5,0-11,0-16.5
		C87.3,25.5,69.6,30.2,52,34.9z"/>
	<path class="st2" d="M34.4,0.6c1.4-0.4,5.8-1.4,10.1,0.8c5.2,2.6,8.4,8.7,7.9,15.4c-1.3,0.2-2.7,0.4-4,0.6c0-1,0.1-4.8-2.6-8.1
		C42.1,4.8,36.3,5,35.7,5C35.3,3.5,34.8,2.1,34.4,0.6z"/>
	<path class="st2" d="M69.4,0.6C68,0.2,63.6-0.8,59.3,1.4C54,4,50.9,10.1,51.4,16.8c1.3,0.2,2.7,0.4,4,0.6c0-1-0.1-4.8,2.6-8.1
		c3.7-4.6,9.5-4.5,10.1-4.4C68.5,3.5,68.9,2,69.4,0.6z"/>
	<g>
		<path class="st3" d="M30.8,96.3c0-16.9,0-33.9,0-50.8c-3.8-1.1-7.5-2.2-11.3-3.2c0,17,0,34,0,51C23.3,94.2,27,95.3,30.8,96.3"/>
		<path class="st3" d="M74,96.5c0-16.9,0-33.9,0-50.8c3.8-1.1,7.5-2.2,11.3-3.2c0,17,0,34,0,51C81.5,94.5,77.7,95.5,74,96.5"/>
		<path class="st3" d="M70.6,11.7c-17.7,4.5-35.5,9-53.2,13.6c0,5.5,0,10.9,0,16.4c3.8,1.1,7.5,2.2,11.3,3.2c0-5.3,0-10.6,0-15.9
			c17.3-4.9,34.5-9.8,51.8-14.6C77.2,13.5,73.9,12.6,70.6,11.7z"/>
		<path class="st3" d="M34,12c17.9,4.5,35.7,9,53.6,13.5c0,5.5,0,10.9,0,16.4c-3.8,1.1-7.5,2.2-11.3,3.2c0-5.3,0-10.6,0-15.9
			c-17.4-4.9-34.9-9.8-52.3-14.7C27.2,13.7,30.6,12.8,34,12z"/>
		<path class="st3" d="M50.5,21.2c-7.9-3.8-13.2-7.5-16.5-10.1c-1.9-1.5-3.9-3.3-3.8-5.5c0.1-1.9,1.8-4,3.9-4.8
			c0.6-0.2,1.1-0.3,1.4-0.3c0.2,1,0.5,1.9,0.8,2.7c3.2,8.6,12.4,12.4,16.1,13.7C51.7,18.3,51.1,19.8,50.5,21.2z"/>
		<path class="st3" d="M53.3,21.1c7.9-3.8,13.2-7.5,16.5-10.1c1.9-1.5,3.9-3.3,3.8-5.5c-0.1-1.9-1.8-4-3.9-4.8
			c-0.6-0.2-1.1-0.3-1.4-0.3c-0.2,1-0.5,1.9-0.8,2.7c-3.2,8.6-12.4,12.4-16.1,13.7C52,18.2,52.7,19.7,53.3,21.1z"/>
	</g>
	<path class="st4" d="M2.4,44.7c16.8,4.6,33.5,9.2,50.3,13.8c16.7-4.7,33.5-9.4,50.2-14.1c0.1-2.2,0.2-4.4,0.3-6.5
		C86.5,42.4,69.7,47,52.9,51.6c-16.7-4.8-33.5-9.6-50.2-14.3C2.6,39.8,2.5,42.2,2.4,44.7z"/>
</g>
</svg>
