<?xml version="1.0" encoding="utf-8"?>
<!-- Generator: Adobe Illustrator 23.0.3, SVG Export Plug-In . SVG Version: 6.00 Build 0)  -->
<svg version="1.1" id="Layer_1" xmlns="http://www.w3.org/2000/svg" xmlns:xlink="http://www.w3.org/1999/xlink" x="0px" y="0px"
	 viewBox="0 0 109.8 33.5" style="enable-background:new 0 0 109.8 33.5;" xml:space="preserve">
<style type="text/css">
	.st0{opacity:0.2;fill:#BF433F;}
	.st1{fill-rule:evenodd;clip-rule:evenodd;fill:#BF433F;}
	.st2{fill:#BF433F;}
	.st3{font-family:'ProximaNova-Bold';}
	.st4{font-size:9.3653px;}
	.st5{fill:none;stroke:#BF433F;stroke-miterlimit:10;}
</style>
<title>18.5</title>
<desc>Created with Sketch.</desc>
<g>
	<circle class="st0" cx="16.7" cy="16.7" r="16.7"/>
	<g>
		<g>
			<path class="st1" d="M18.9,8.6c1.4,0,2.6,0.9,3.1,2.1c0.8,0,1.6,0.4,2.1,1c1.1,1.1,0.9,2.5,1,2.6c0,0.1,0.5,0.7,0.5,1.7
				c0,0.9-0.4,1.7-1,2.3c-0.7,0.7-1.8,1.1-2.8,0.9c-0.2,0.5-0.6,1-1,1.4c-0.8,0.7-1.9,0.9-3,0.6c-0.6,0.8-1.3,1.1-1.3,1.1l-1,2.4
				c-0.1,0.2-0.3,0.3-0.5,0.3v0h-1.8c-0.3,0-0.5-0.2-0.5-0.5l-0.1-1.8c-1,0.1-1.9-0.3-2.5-0.9c-0.5-0.5-0.9-1.2-1-2
				c0-0.1-1-0.9-1-2.4c0-0.7,0.2-1.4,0.7-2c-0.6-1.3-0.3-2.7,0.7-3.7c0.6-0.6,1.5-1,2.5-1c0.5-1.3,1.7-2.2,3.1-2.2
				c0.7,0,1.4,0.2,2,0.7C17.5,8.8,18.2,8.6,18.9,8.6L18.9,8.6z M10.1,12.4c-0.7,0.7-0.9,1.9-0.3,2.8l0,0c0.4,0.6-0.7,0.7-0.7,2.2
				c0,0.5,0.2,1,0.5,1.4l1.5-1.6l-0.7-2.3c-0.2-0.6,0.8-0.9,1-0.3l0.7,2.2c0.7-0.1,2-0.3,2.3-0.7c0.4-0.6,1.2,0,0.8,0.5
				c-0.6,0.9-2.6,1.2-3.2,1.2L10,19.7c0.1,0.5,0.3,1,0.7,1.4c0.5,0.5,1.4,0.8,2.1,0.6c0.3-0.1,0.6,0.1,0.6,0.4l0.1,1.9h1l1-2.3l0,0
				c0.2-0.4,0.8-0.2,1.4-1.1c-1.1-1.9-3.2-0.7-3.2-0.7c-0.6,0.3-1.1-0.5-0.5-0.9c0,0,3-1.9,4.6,1.1c0.1,0.1,0.6,0.1,0.8,0.1
				c0.5,0,1-0.2,1.4-0.5c0.4-0.3,0.6-0.7,0.8-1.2c-0.2-0.7-0.6-1.2-0.9-1.5c-1-0.9-1.9-0.9-2.1-0.9c-0.7,0-0.6-1,0-1
				c0,0,0.9,0,1.8,0.5c0.2-1.3,1.3-2.2,1.3-2.2c0.5-0.4,1.1,0.4,0.6,0.8c0,0-1.1,0.9-0.9,2.2c0.4,0.4,0.8,1,1,1.7c0,0,0.1,0,0.1,0
				l0,0c0.7,0.1,1.5-0.1,2-0.6c0.8-0.8,0.9-2,0.3-2.9l0,0C23.9,14.4,24,14.2,24,14c0-0.6-0.3-1.2-0.7-1.6c-0.5-0.5-1.1-0.7-1.7-0.7
				c-0.2,0-0.5-0.1-0.5-0.4c-0.2-1-1.2-1.7-2.2-1.7c-0.7,0-1.2,0.2-1.6,0.7c-0.2,0.2-0.5,0.2-0.7,0c-0.4-0.4-1-0.7-1.6-0.7
				c-0.9,0-1.7,0.5-2.1,1.4c0.4,0.1,1.1,0.4,1.7,0.8c0.6-0.7,1.7-1.1,1.8-1.1c0.6-0.2,0.9,0.7,0.3,0.9c0,0-1,0.3-1.3,0.8
				c0.6,0.5,1,1.3,1.2,2.3c0.1,0.7-0.9,0.8-1,0.2c-0.3-1.8-2.1-2.7-3.4-2.9C11.3,11.7,10.6,11.8,10.1,12.4L10.1,12.4z"/>
		</g>
	</g>
</g>
<g>
	<circle class="st0" cx="93.1" cy="16.7" r="16.7"/>
	<text transform="matrix(1 0 0 1 84.7365 19.6672)" class="st2 st3 st4">3 hr</text>
</g>
<g>
	<circle class="st0" cx="54.9" cy="16.7" r="16.7"/>
	<g>
		<g>
			<g>
				<path class="st5" d="M55.9,19.4c0-0.6-0.4-1-1-1l0,0c-0.6,0-1,0.4-1,1v3c0,0.9-0.7,1.7-1.7,1.7h-2c-0.9,0-1.7-0.7-1.7-1.7v-5.7
					c0-0.9,0.5-2.2,1.2-2.8l4-4c0.6-0.6,1.7-0.6,2.3,0l4,4c0.6,0.6,1.2,1.9,1.2,2.8v5.7c0,0.9-0.7,1.7-1.7,1.7h-2
					c-0.9,0-1.7-0.7-1.7-1.7V19.4z"/>
			</g>
		</g>
	</g>
</g>
</svg>
