<?xml version="1.0" encoding="utf-8"?>
<!-- Generator: Adobe Illustrator 23.0.3, SVG Export Plug-In . SVG Version: 6.00 Build 0)  -->
<svg version="1.1" id="Layer_1" xmlns="http://www.w3.org/2000/svg" xmlns:xlink="http://www.w3.org/1999/xlink" x="0px" y="0px"
	 viewBox="0 0 2507.4 342.1" style="enable-background:new 0 0 2507.4 342.1;" xml:space="preserve">
<style type="text/css">
	.st0{fill:#BF433F;}
	.st1{fill:#CC7371;}
	.st2{fill:#E1C2C2;}
	.st3{opacity:0.2;fill:#B43F3A;enable-background:new    ;}
</style>
<g id="box">
	<path class="st0" d="M3429.7,306.8c398.7,109.2,797.4,218.3,1196.1,327.5c398.7-106.8,797.4-213.6,1196.1-320.4
		c0-498.7,0-997.4,0-1496.1c-395.9,107-791.7,214.1-1187.5,321.2c-400-106.7-800-213.5-1200-320.2
		C3432-685.2,3432-189.2,3429.7,306.8z"/>
	<path class="st1" d="M4625.8,634.3c398.7-106.8,797.4-213.6,1196.1-320.4c0-498.7,0-997.4,0-1496.1
		c-395.9,107-791.7,214.1-1187.5,321.2C4631.5-362.6,4628.6,135.9,4625.8,634.3z"/>
	<path class="st2" d="M4106,491.9c0.3-497.9,0.6-995.8,0.9-1493.7c-89.6-23.9-179.2-47.9-268.8-71.8
		c-0.1,497.4-0.2,994.9-0.4,1492.3L4106,491.9z"/>
	<path class="st2" d="M5131.2,498.9c-1-497.8-2-995.6-3-1493.4c90.7-24.5,181.4-49.1,272.1-73.6c-0.3,498.4-0.5,996.8-0.8,1495.3
		L5131.2,498.9z"/>
	<rect class="st0" width="2507.4" height="342.1"/>
</g>
<g id="lid">
	<path class="st3" d="M3432.8-796.7c399.7,112.9,799.3,225.9,1199,338.8c396.8-112.1,793.6-224.2,1190.4-336.3
		c-0.1-132.6-0.2-265.2-0.3-397.8c-395.9,107-791.7,214.1-1187.5,321.1c-400-106.7-800-213.5-1200-320.2
		C3433.9-1059.6,3433.3-928.1,3432.8-796.7z"/>
	<path class="st0" d="M3375.1-1304.6c0,128.2,0,256.3,0,384.5C3788-803.8,4201-687.5,4616.3-568.9c208.4-57.1,416.8-114,625.3-170.6
		c215.1-58.4,430.2-116.5,645.3-174.3c0-129.7,0-259.5,0-389.2c-418.6-107.9-837.2-215.8-1255.8-323.7
		c-208.2,53.8-416.5,107.4-624.8,160.8C3796-1412,3585.5-1358.2,3375.1-1304.6z"/>
	<path class="st1" d="M4632.7-950.5c0,127.1-0.1,254.2-0.1,381.3c202.5-56.4,405.1-112.5,607.8-168.2
		c215.4-59.2,430.9-118,646.5-176.4c0-129.7,0-259.5,0-389.2C5468.9-1185.5,5050.8-1068,4632.7-950.5z"/>
	<path class="st2" d="M4177.5-1509.9c211.1,51.5,424.7,105.3,640.5,161.4c215.3,56,427.4,112.9,636.3,170.6
		c-0.1,127.3-0.2,254.7-0.3,382c-89.4,24.5-178.8,49-268.2,73.5c-0.1-127.5-0.1-255-0.2-382.4c-205.8-55.7-412.6-112.4-620.4-170.1
		c-208.7-57.9-416.1-116.2-622.1-174.9C4021.3-1469.9,4099.4-1489.9,4177.5-1509.9z"/>
	<path class="st2" d="M5301.1-1454.1c-206,58.6-413.4,116.9-622.1,174.9c-207.7,57.7-414.5,114.4-620.4,170.1
		c-0.1,127.2-0.2,254.4-0.2,381.7c-90.2-23.8-178-49.9-268.2-76c-0.1-126.3-0.2-252.6-0.3-378.8c208.9-57.7,421-114.6,636.3-170.6
		c215.9-56.1,429.4-109.9,640.5-161.4C5144.9-1494.1,5223-1474.1,5301.1-1454.1z"/>
</g>
<g id="ribbon">
	<path class="st1" d="M4215.5-1726.4c42.9,10.8,96.8,30.9,150.5,69.7c87,62.9,133.1,145.6,157.7,211.2
		c47.3,21.9,89.9,38.3,118.6,48.7c-30.5-131.4-96.2-295.2-239.6-385.8c-14.8-9.4-136.9-86.5-180.7-48.1
		c-27.3,23.9-12.2,82.3-6.7,103.6C4215.4-1726.9,4215.5-1726.7,4215.5-1726.4z"/>
	<path class="st1" d="M5044.2-1726.4c-42.9,10.8-96.8,30.9-150.5,69.7c-87,62.9-133.1,145.6-157.7,211.2
		c-47.3,21.9-89.9,38.3-118.6,48.7c30.5-131.4,96.2-295.2,239.6-385.8c14.8-9.4,136.9-86.5,180.7-48.1
		c27.3,23.9,12.2,82.3,6.7,103.6C5044.4-1726.9,5044.3-1726.7,5044.2-1726.4z"/>
	<path class="st2" d="M4607.8-1278.2c-218.8-84.9-377.5-178.8-449.1-248.3c-20.8-20.2-58.9-57.1-81.9-118.4
		c-11.1-29.4-15.9-56.9-17.7-79.7c-1.5-18.6,8.9-36.1,25.7-44.2c29-21,67.1-43.3,114.5-59.3c13.1-4.4,25.7-8,37.8-10.8
		c-6.4,2.8-14.8,7.6-20.9,16.4c-29.7,42.9,30.7,131.8,56.5,168.3c97.3,137.4,304.2,228.7,385.6,261.7
		C4649.6-1374.1,4640.8-1355,4607.8-1278.2z"/>
	<path class="st2" d="M4601.4-1392.5c81.4-33,288.3-124.3,385.6-261.7c25.8-36.4,86.2-125.4,56.5-168.3
		c-6.1-8.8-14.6-13.6-20.9-16.4c12.1,2.9,24.8,6.4,37.8,10.8c47.4,16,85.5,38.3,114.5,59.3c16.8,8.1,27.2,25.6,25.7,44.2
		c-1.8,22.8-6.6,50.3-17.7,79.7c-23.1,61.3-61.1,98.2-81.9,118.4c-71.6,69.4-230.2,163.4-449.1,248.3
		C4619-1355,4610.2-1374.1,4601.4-1392.5z"/>
</g>
</svg>
