<?xml version="1.0" encoding="utf-8"?>
<!-- Generator: Adobe Illustrator 23.0.3, SVG Export Plug-In . SVG Version: 6.00 Build 0)  -->
<svg version="1.1" id="Layer_1" xmlns="http://www.w3.org/2000/svg" xmlns:xlink="http://www.w3.org/1999/xlink" x="0px" y="0px"
	 viewBox="0 0 148.4 135.8" style="enable-background:new 0 0 148.4 135.8;" xml:space="preserve">
<style type="text/css">
	.st0{fill:#BF433F;}
	.st1{opacity:0.75;}
</style>
<title>18.5</title>
<desc>Created with Sketch.</desc>
<g>
	<g>
		<path class="st0" d="M3.1,89.6v-7.5c18.2-13.4,23.5-18,23.5-23.4c0-3.9-3.5-5.8-7.2-5.8c-5.1,0-8.9,2-11.9,5.1l-5.4-6.3
			c4.3-5,10.9-7.3,17.1-7.3c9.5,0,17,5.3,17,14.2c0,7.6-6.3,14.2-17.8,22.6h18.1v8.3H3.1z"/>
		<path class="st0" d="M42.2,67.5c0-11.4,5.7-22.9,18.4-22.9c12.7,0,18.4,11.4,18.4,22.9s-5.7,23-18.4,23
			C47.8,90.4,42.2,78.9,42.2,67.5z M69.3,67.5c0-8.2-2.3-14.5-8.7-14.5c-6.3,0-8.7,6.3-8.7,14.5S54.2,82,60.5,82
			C66.9,82,69.3,75.6,69.3,67.5z"/>
		<path class="st0" d="M84.3,89.6v-7.5c18.2-13.4,23.5-18,23.5-23.4c0-3.9-3.5-5.8-7.2-5.8c-5.1,0-8.9,2-11.9,5.1l-5.4-6.3
			c4.3-5,10.9-7.3,17.1-7.3c9.5,0,17,5.3,17,14.2c0,7.6-6.3,14.2-17.8,22.6h18.1v8.3H84.3z"/>
		<path class="st0" d="M134.6,89.6V57.4l-7.4,7.5l-5.4-5.7l14-14h8.2v44.4H134.6z"/>
	</g>
	<g class="st1">
		<path class="st0" d="M38.6,26.7l-5.4-5.5l3.3,7.6l-0.7,0.7l-7.6-3.3l5.4,5.5L32,33.2l-7.5-7.6l2.3-2.2l6.5,2.9l-2.9-6.6l2.3-2.3
			l7.5,7.6L38.6,26.7z"/>
		<path class="st0" d="M45.2,21.9l-0.5-0.7c-0.1,0.8-0.6,1.6-1.5,2.2c-1,0.7-2.7,0.8-3.6-0.6c-1-1.5-0.2-2.9,0.8-3.6
			c0.9-0.6,1.8-0.8,2.6-0.6l-0.5-0.8c-0.4-0.6-1.3-0.7-2.1-0.1c-0.7,0.5-1.1,1.2-1.3,2L37.5,19c0.3-1.2,1.1-2.2,2.1-2.9
			c1.5-1,3.2-1.3,4.4,0.5l2.8,4.1L45.2,21.9z M44.1,20.4l-0.5-0.8c-0.5-0.2-1.2,0-1.7,0.3c-0.7,0.4-1,1.2-0.6,1.8
			c0.4,0.6,1.2,0.6,1.9,0.1C43.7,21.5,44.1,20.9,44.1,20.4z"/>
		<path class="st0" d="M48.2,20.1l-3.5-6.9l1.8-0.9l0.5,0.9c0.2-0.9,0.8-1.8,1.6-2.2l0.9,1.8c-0.1,0-0.3,0.1-0.5,0.2
			c-0.6,0.3-1.2,1.1-1.3,1.6l2.3,4.5L48.2,20.1z"/>
		<path class="st0" d="M57.5,16l-2.9-2.1L54,15.2l0.7,1.9l-1.9,0.7l-3.7-10L51.1,7l2.2,6l1.6-4.2l2.3-0.9l-1.7,4.3l4.4,2.9L57.5,16z
			"/>
		<path class="st0" d="M70.4,13.4c-0.2-0.2-0.5-0.4-0.9-0.7c-0.7,0.7-1.6,1.2-2.8,1.3c-1.9,0.2-3.6-0.6-3.9-2.6
			c-0.2-1.6,0.8-2.6,1.9-3.3c-0.5-0.7-0.9-1.5-1-2.2c-0.2-1.4,1-2.7,2.7-2.9c1.5-0.2,2.9,0.5,3,1.9c0.2,1.6-1,2.5-2.2,3.2
			c0.4,0.4,0.7,0.8,1,1c0.3,0.3,0.7,0.7,1,1c0.4-0.8,0.6-1.5,0.7-2.2l1.7,0.6c-0.3,0.9-0.6,1.8-1.2,2.7c0.7,0.6,1.5,1.2,2.3,1.9
			L70.4,13.4z M68.3,11.7c-0.5-0.5-1-0.9-1.3-1.2c-0.4-0.4-0.8-0.8-1.2-1.3c-0.5,0.5-0.8,1-0.7,1.7c0.1,1,1,1.6,1.8,1.5
			C67.4,12.4,67.9,12.1,68.3,11.7z M66.5,7.1C67.4,6.5,68,6,67.9,5.2c-0.1-0.6-0.5-0.8-1-0.8c-0.6,0.1-1.1,0.6-1,1.3
			C65.9,6.1,66.2,6.6,66.5,7.1z"/>
		<path class="st0" d="M77.2,13.2l1.3-10.6l5.6,0.7c2,0.3,2.9,1.7,2.7,3.1c-0.2,1.3-1.1,2.1-2.1,2.2c1.1,0.3,1.9,1.5,1.7,2.8
			C86.2,13.1,85,14.2,83,14L77.2,13.2z M84.1,10.9c0.1-0.7-0.3-1.3-1.2-1.4L80,9.1l-0.3,2.4l2.9,0.4C83.5,12,84,11.6,84.1,10.9z
			 M84.5,6.5c0.1-0.7-0.3-1.2-1.1-1.3l-2.8-0.4l-0.3,2.2l2.8,0.4C83.9,7.6,84.4,7.2,84.5,6.5z"/>
		<path class="st0" d="M87.6,10.8c0.6-2.1,2.6-3.4,5.1-2.7c2.5,0.7,3.4,3,2.8,5.1c-0.6,2.1-2.6,3.4-5.1,2.7
			C87.9,15.1,86.9,12.9,87.6,10.8z M93.4,12.5c0.3-1.1,0-2.3-1.3-2.7c-1.2-0.4-2.2,0.4-2.5,1.6c-0.4,1.2,0,2.4,1.2,2.7
			C92,14.5,93,13.7,93.4,12.5z"/>
		<path class="st0" d="M99.7,19.4l2-4.2c0.5-1,0.1-1.5-0.7-1.9c-0.7-0.3-1.5-0.2-2,0l-2.3,4.7L95,17.2l3.4-7l1.8,0.9L99.8,12
			c0.7-0.3,1.8-0.4,3,0.1c1.5,0.7,1.9,2,1.2,3.3l-2.4,4.9L99.7,19.4z"/>
		<path class="st0" d="M106.9,23.9l2.7-3.8c0.6-0.9,0.4-1.5-0.3-2c-0.7-0.5-1.4-0.4-2-0.3l-3,4.3l-1.7-1.2l4.4-6.3l1.7,1.2l-0.6,0.8
			c0.7-0.2,1.9-0.1,2.9,0.6c1.4,1,1.5,2.2,0.7,3.5l-3.1,4.5L106.9,23.9z"/>
		<path class="st0" d="M111.9,22.8c1.5-1.6,4-1.8,5.7-0.2c1.7,1.6,1.6,3.9-0.1,5.7l-0.3,0.3l-4.2-4c-0.5,0.8-0.5,1.9,0.4,2.8
			c0.5,0.5,1.3,0.9,2,0.9l-0.3,1.6c-1,0-2.2-0.6-3-1.4C110.4,27,110.2,24.6,111.9,22.8z M116.5,23.8c-0.9-0.9-1.9-0.6-2.5-0.1
			l2.8,2.6C117.2,25.8,117.4,24.8,116.5,23.8z"/>
		<path class="st0" d="M114.6,32.5c0,0.2,0.2,0.4,0.3,0.6c0.3,0.4,0.7,0.6,1.1,0.5l0.7-0.2l4.2-7.3l1.3,1.7l-3,4.9l5.5-1.7l1.3,1.7
			l-9.3,2.7c-1.5,0.5-2.4-0.1-3.3-1.1c-0.1-0.2-0.4-0.6-0.5-0.9L114.6,32.5z"/>
	</g>
	<g class="st1">
		<path class="st0" d="M29.6,114.2l3-3.2l1.3-7.4l1.9,1.8l-1,4.9l4.8-1.3l1.9,1.8l-7.3,1.8l-3,3.2L29.6,114.2z"/>
		<path class="st0" d="M35.9,114.8c1.3-1.8,3.7-2.3,5.6-0.9c1.9,1.4,2.1,3.7,0.7,5.7l-0.3,0.4l-4.7-3.4c-0.4,0.8-0.3,1.9,0.8,2.7
			c0.5,0.4,1.4,0.7,2.1,0.6l0,1.6c-1,0.1-2.2-0.3-3.2-1C35,119.1,34.5,116.8,35.9,114.8z M40.6,115.2c-1-0.7-2-0.3-2.5,0.2l3.1,2.2
			C41.5,117,41.7,116,40.6,115.2z"/>
		<path class="st0" d="M46.1,125.8l0.4-0.7c-0.8,0.3-1.7,0.2-2.6-0.2c-1.1-0.6-2-2-1.2-3.5c0.8-1.6,2.4-1.6,3.5-1
			c0.9,0.5,1.6,1.2,1.7,2l0.4-0.9c0.4-0.7,0-1.5-0.9-1.9c-0.7-0.4-1.6-0.4-2.4-0.2l-0.1-1.6c1.2-0.3,2.5-0.1,3.6,0.5
			c1.6,0.8,2.7,2.2,1.7,4.2l-2.3,4.4L46.1,125.8z M47,124.2l0.4-0.9c-0.1-0.6-0.6-1.1-1.1-1.4c-0.7-0.4-1.5-0.3-1.8,0.4
			s0.1,1.3,0.8,1.7C45.8,124.3,46.5,124.4,47,124.2z"/>
		<path class="st0" d="M50.4,127.8l2.7-7.3l1.9,0.7l-0.4,1c0.8-0.4,1.8-0.6,2.7-0.3l-0.7,1.9c-0.1-0.1-0.3-0.2-0.5-0.2
			c-0.6-0.2-1.6-0.2-2.1,0.2l-1.8,4.8L50.4,127.8z"/>
		<path class="st0" d="M60.9,127.1c0.3-2.2,2.2-3.8,4.7-3.4c2.5,0.4,3.8,2.5,3.4,4.6c-0.3,2.2-2.2,3.8-4.7,3.4
			C61.8,131.4,60.6,129.3,60.9,127.1z M66.9,128.1c0.2-1.2-0.3-2.3-1.6-2.5c-1.2-0.2-2.1,0.7-2.3,1.9c-0.2,1.2,0.3,2.3,1.6,2.5
			C65.9,130.2,66.7,129.3,66.9,128.1z"/>
		<path class="st0" d="M71.1,132.3l0.2-5.9l-1.3,0l0.1-1.8l1.3,0l0-0.3c0.1-1.7,1.1-2.7,2.7-2.7c0.8,0,1.5,0.3,2,0.8l-0.8,1.2
			c-0.2-0.2-0.5-0.3-0.8-0.3c-0.6,0-1,0.3-1,1.1l0,0.3l1.6,0.1l-0.1,1.8l-1.6-0.1l-0.2,5.9L71.1,132.3z"/>
		<path class="st0" d="M81.1,132.2l-1.8-10.5l4.1-0.7c3.3-0.6,5.9,1.1,6.5,4.3c0.6,3.2-1.4,5.7-4.6,6.2L81.1,132.2z M87.6,125.7
			c-0.3-1.8-1.7-3.1-3.8-2.7l-1.9,0.3l1.1,6.6l1.9-0.3C87,129.2,88,127.5,87.6,125.7z"/>
		<path class="st0" d="M97.6,128.2l-0.3-0.8c-0.3,0.8-1,1.4-2,1.8c-1.2,0.4-2.8,0.1-3.4-1.5c-0.6-1.7,0.5-2.8,1.7-3.3
			c1-0.4,1.9-0.3,2.6,0.1l-0.3-0.9c-0.3-0.7-1.1-1-2-0.6c-0.8,0.3-1.4,0.8-1.8,1.6l-1.2-1.1c0.6-1.1,1.6-1.9,2.8-2.3
			c1.7-0.6,3.4-0.5,4.2,1.6l1.7,4.7L97.6,128.2z M97,126.4l-0.3-0.9c-0.5-0.3-1.2-0.3-1.8-0.1c-0.8,0.3-1.2,0.9-1,1.6
			c0.2,0.7,1,0.9,1.8,0.6C96.3,127.4,96.8,127,97,126.4z"/>
		<path class="st0" d="M101.4,124.4l-1.8-3.6l-1.1,0.6l-0.8-1.6l1.1-0.6l-0.9-1.9l1.8-0.9l0.9,1.9l1.4-0.7l0.8,1.6l-1.4,0.7l1.6,3.1
			c0.2,0.4,0.6,0.7,1,0.5c0.3-0.1,0.5-0.4,0.5-0.5l1.1,1.2c-0.2,0.4-0.5,0.8-1.3,1.2C103,126,102,125.7,101.4,124.4z"/>
		<path class="st0" d="M104.7,120.6c-1.2-1.9-0.8-4.3,1.1-5.6c1.9-1.3,4.2-0.7,5.6,1.4l0.3,0.4l-4.8,3.2c0.6,0.7,1.7,0.9,2.8,0.2
			c0.5-0.4,1.1-1.1,1.3-1.8l1.5,0.6c-0.3,1-1.1,2-2.1,2.7C108.5,123,106.1,122.7,104.7,120.6z M106.8,116.4c-1.1,0.7-1,1.7-0.7,2.4
			l3.2-2.1C108.8,116.2,107.9,115.7,106.8,116.4z"/>
		<path class="st0" d="M114,117.8l-0.3-1.7c0.8,0,2-0.3,2.7-1c0.7-0.6,0.7-1.1,0.4-1.5c-0.8-0.9-3.6,2.9-5.6,0.6
			c-0.9-1-0.8-2.6,0.8-3.9c1-0.9,2-1.2,3-1.3l0.3,1.6c-0.7-0.1-1.6,0.2-2.3,0.8c-0.6,0.5-0.7,1-0.4,1.4c0.8,0.9,3.6-2.9,5.6-0.6
			c0.9,1.1,0.7,2.7-0.9,4.1C116.4,117.3,115.1,117.8,114,117.8z"/>
	</g>
</g>
</svg>
