<?xml version="1.0" encoding="utf-8"?>
<!-- Generator: Adobe Illustrator 23.0.3, SVG Export Plug-In . SVG Version: 6.00 Build 0)  -->
<svg version="1.1" id="Layer_1" xmlns="http://www.w3.org/2000/svg" xmlns:xlink="http://www.w3.org/1999/xlink" x="0px" y="0px"
	 viewBox="0 0 105.8 104.3" style="enable-background:new 0 0 105.8 104.3;" xml:space="preserve">
<style type="text/css">
	.st0{fill:#BF433F;}
	.st1{fill:#CC7371;}
	.st2{opacity:0.3;fill:#B43F3A;enable-background:new    ;}
	.st3{fill:#E1C2C2;}
</style>
<g id="BoxBase">
	<path class="st0" d="M2.3,90.5c16.8,4.6,33.6,9.2,50.4,13.8c16.8-4.5,33.6-9,50.4-13.5c0-21.8,0-43.5,0-65.3
		C86.4,30,69.7,34.5,53,39c-16.8-3.7-33.7-7.4-50.5-11.2C2.4,48.7,2.4,69.6,2.3,90.5z"/>
</g>
<g id="BoxHighlight">
	<path class="st1" d="M52.7,104.3c16.8-4.5,33.6-9,50.4-13.5c0-21.8,0-43.5,0-65.3C86.4,30,69.7,34.5,53,39
		C52.9,60.8,52.8,82.6,52.7,104.3z"/>
</g>
<g id="LidTop">
	<path class="st0" d="M0,22.6C0,28,0,33.4,0,38.8c17.4,4.9,34.8,9.8,52.3,14.8c8.8-2.4,17.6-4.8,26.4-7.2c9.1-2.5,18.1-4.9,27.2-7.3
		c0-5.5,0-10.9,0-16.4C88.2,18.1,70.6,13.6,52.9,9c-8.8,2.3-17.5,4.5-26.3,6.8C17.7,18.1,8.9,20.4,0,22.6z"/>
</g>
<g id="LidHighlight">
	<path class="st1" d="M52.9,37.6c0,5.4,0,10.7,0,16.1c8.5-2.4,17.1-4.7,25.7-7.1c9.1-2.5,18.2-5,27.2-7.4c0-5.5,0-10.9,0-16.4
		C88.2,27.6,70.5,32.6,52.9,37.6z"/>
</g>
<g id="Shadow">
	<path class="st2" d="M2.4,44.3c16.8,4.7,33.7,9.5,50.5,14.2c16.7-4.9,33.4-9.8,50.1-14.7c0-1.3,0-2.6,0-4
		c-16.7,4.5-33.5,9-50.2,13.5c-16.8-4.6-33.6-9.2-50.4-13.8C2.4,41.1,2.4,42.7,2.4,44.3z"/>
</g>
<g id="LeftBoxRib">
	<path class="st3" d="M30.8,98.3V47.5c-3.8-1.1-7.5-2.2-11.3-3.2l0,50.9L30.8,98.3z"/>
</g>
<g id="RightBoxRib">
	<path class="st3" d="M74,98.6c0-17,0-34,0-50.9c3.8-1.1,7.6-2.1,11.3-3.2c0,17,0,34,0,51.1L74,98.6z"/>
</g>
<g id="LeftRibBack">
	<path class="st1" d="M35.4,4.8c1.8,0.5,4.1,1.3,6.3,2.9c3.7,2.6,5.6,6.1,6.6,8.9c2,0.9,3.8,1.6,5,2.1c-1.3-5.5-4.1-12.4-10.1-16.3
		c-0.6-0.4-5.8-3.6-7.6-2C34.5,1.5,35.2,3.9,35.4,4.8C35.4,4.8,35.4,4.8,35.4,4.8z"/>
</g>
<g id="RightRibBack">
	<path class="st1" d="M70.3,4.8c-1.8,0.5-4.1,1.3-6.3,2.9c-3.7,2.6-5.6,6.1-6.6,8.9c-2,0.9-3.8,1.6-5,2.1
		c1.3-5.5,4.1-12.4,10.1-16.3c0.6-0.4,5.8-3.6,7.6-2C71.2,1.5,70.6,3.9,70.3,4.8C70.3,4.8,70.3,4.8,70.3,4.8z"/>
</g>
<g id="LeftRibFront">
	<path class="st3" d="M51.9,23.7C42.7,20.2,36,16.2,33,13.3c-0.9-0.9-2.5-2.4-3.5-5c-0.5-1.2-0.7-2.4-0.7-3.4
		c-0.1-0.8,0.4-1.5,1.1-1.9c1.2-0.9,2.8-1.8,4.8-2.5c0.6-0.2,1.1-0.3,1.6-0.5c-0.3,0.1-0.6,0.3-0.9,0.7c-1.3,1.8,1.3,5.6,2.4,7.1
		c4.1,5.8,12.8,9.6,16.2,11C53.7,19.7,53.3,20.5,51.9,23.7z"/>
</g>
<g id="RightRibFront">
	<path class="st3" d="M51.7,18.9c3.4-1.4,12.1-5.2,16.2-11c1.1-1.5,3.6-5.3,2.4-7.1c-0.3-0.4-0.6-0.6-0.9-0.7c0.5,0.1,1,0.3,1.6,0.5
		c2,0.7,3.6,1.6,4.8,2.5c0.7,0.3,1.1,1.1,1.1,1.9c-0.1,1-0.3,2.1-0.7,3.4c-1,2.6-2.6,4.1-3.5,5c-3,2.9-9.7,6.9-18.9,10.5
		C52.4,20.5,52,19.7,51.7,18.9z"/>
</g>
<g id="RightLidRibbon">
	<path class="st3" d="M33.8,14c8.9,2.2,17.9,4.4,27,6.8c9.1,2.4,18,4.8,26.8,7.2c0,5.3,0,10.6,0,16c-3.8,1.1-7.5,2.2-11.3,3.2
		c0-5.4,0-10.7,0-16.1c-8.7-2.3-17.4-4.7-26.1-7.2c-8.8-2.4-17.5-4.9-26.2-7.4C27.2,15.7,30.5,14.8,33.8,14z"/>
</g>
<g id="LeftLidRibbon">
	<path class="st3" d="M81.2,16.3c-8.7,2.5-17.4,4.9-26.2,7.4c-8.8,2.4-17.5,4.8-26.1,7.2c0,5.4,0,10.7,0,16.1
		c-3.8-1-7.5-2.1-11.3-3.2c0-5.3,0-10.6,0-16c8.8-2.4,17.7-4.8,26.8-7.2c9.1-2.4,18.1-4.6,27-6.8C74.6,14.6,77.9,15.5,81.2,16.3z"/>
</g>
</svg>
