<?xml version="1.0" encoding="utf-8"?>
<!-- Generator: Adobe Illustrator 23.0.3, SVG Export Plug-In . SVG Version: 6.00 Build 0)  -->
<svg version="1.1" xmlns="http://www.w3.org/2000/svg" xmlns:xlink="http://www.w3.org/1999/xlink" x="0px" y="0px"
	 viewBox="0 0 2511.9 2475.8" style="enable-background:new 0 0 2511.9 2475.8;" xml:space="preserve">
<style type="text/css">
	.st0{fill:#BF433F;}
	.st1{fill:#CC7371;}
	.st2{fill:#E1C2C2;}
	.st3{opacity:0.2;fill:#B43F3A;enable-background:new    ;}
</style>
<g id="box">
</g>
<g id="lid">
</g>
<g id="ribbon">
	<path class="st0" d="M54.6,2148.2c398.7,109.2,797.4,218.3,1196.1,327.5c398.7-106.8,797.4-213.6,1196.1-320.4
		c0-498.7,0-997.4,0-1496.1C2051,766.3,1655.1,873.3,1259.3,980.4c-400-106.7-800-213.5-1200-320.2C57,1156.2,57,1652.2,54.6,2148.2
		z"/>
	<path class="st1" d="M1250.7,2475.8c398.7-106.8,797.4-213.6,1196.1-320.4c0-498.7,0-997.4,0-1496.1
		C2051,766.3,1655.1,873.3,1259.3,980.4C1256.4,1478.9,1253.6,1977.3,1250.7,2475.8z"/>
	<path class="st2" d="M731,2333.4c0.3-497.9,0.6-995.8,0.9-1493.7c-89.6-23.9-179.2-47.9-268.8-71.8
		c-0.1,497.4-0.2,994.9-0.4,1492.3L731,2333.4z"/>
	<path class="st2" d="M1756.2,2340.3c-1-497.8-2-995.6-3-1493.4c90.7-24.5,181.4-49.1,272.1-73.6c-0.3,498.4-0.5,996.8-0.8,1495.3
		L1756.2,2340.3z"/>
	<path class="st3" d="M57.7,1044.8c399.7,113.5,799.5,227,1199.2,340.5c396.7-112.7,793.4-225.4,1190.2-338
		c-0.1-132.6-0.2-265.2-0.3-397.8C2051,756.4,1655.1,863.5,1259.3,970.6c-400-106.7-800-213.5-1200-320.2
		C58.8,781.8,58.3,913.3,57.7,1044.8z"/>
	<path class="st0" d="M0,536.8C0,665,0,793.1,0,921.3c412.9,116.3,825.9,232.6,1241.2,351.2c208.4-57.1,416.8-114,625.3-170.6
		c215.1-58.4,430.2-116.5,645.3-174.3c0-129.7,0-259.5,0-389.2c-418.6-107.9-837.2-215.8-1255.8-323.7
		C1047.8,268.4,839.6,322,631.3,375.4C420.9,429.4,210.5,483.2,0,536.8z"/>
	<path class="st1" d="M1257.7,891c0,127.1-0.1,254.2-0.1,381.3c202.5-56.4,405.1-112.5,607.8-168.2
		c215.4-59.2,430.9-118,646.5-176.4c0-129.7,0-259.5,0-389.2C2093.8,655.9,1675.7,773.4,1257.7,891z"/>
	<path class="st2" d="M802.4,331.5c211.1,51.5,424.7,105.3,640.5,161.4c215.3,56,427.4,112.9,636.3,170.6
		c-0.1,127.3-0.2,254.7-0.3,382c-89.4,24.5-178.8,49-268.2,73.5c-0.1-127.5-0.1-255-0.2-382.4c-205.8-55.7-412.6-112.4-620.4-170.1
		c-208.7-57.9-416.1-116.2-622.1-174.9C646.2,371.6,724.3,351.6,802.4,331.5z"/>
	<path class="st2" d="M1926.1,387.4C1720,446,1512.7,504.3,1304,562.2c-207.7,57.7-414.5,114.4-620.4,170.1
		c-0.1,127.2-0.2,254.4-0.2,381.7c-90.2-23.7-178-49.8-268.2-75.9c-0.1-126.3-0.2-252.6-0.3-378.8c208.9-57.7,421-114.6,636.3-170.6
		c215.9-56.1,429.4-109.9,640.5-161.4C1769.8,347.3,1847.9,367.3,1926.1,387.4z"/>
	<path class="st1" d="M840.5,115c42.9,10.8,96.8,30.9,150.5,69.7c87,62.9,133.1,145.6,157.7,211.2c47.3,21.9,89.9,38.3,118.6,48.7
		c-30.5-131.4-96.2-295.2-239.6-385.8c-14.8-9.4-136.9-86.5-180.7-48.1c-27.3,23.9-12.2,82.3-6.7,103.6
		C840.3,114.5,840.4,114.7,840.5,115z"/>
	<path class="st1" d="M1669.2,115c-42.9,10.8-96.8,30.9-150.5,69.7c-87,62.9-133.1,145.6-157.7,211.2
		c-47.3,21.9-89.9,38.3-118.6,48.7c30.5-131.4,96.2-295.2,239.6-385.8c14.8-9.4,136.9-86.5,180.7-48.1
		c27.3,23.9,12.2,82.3,6.7,103.6C1669.4,114.5,1669.2,114.7,1669.2,115z"/>
	<path class="st2" d="M1232.8,563.2C1013.9,478.3,855.3,384.4,783.7,315c-20.8-20.2-58.9-57.1-81.9-118.4
		c-11.1-29.4-15.9-56.9-17.7-79.7c-1.5-18.6,8.9-36.1,25.7-44.2c29-21,67.1-43.3,114.5-59.3c13.1-4.4,25.7-8,37.8-10.8
		c-6.4,2.8-14.8,7.6-20.9,16.4c-29.7,42.9,30.7,131.8,56.5,168.3c97.3,137.4,304.2,228.7,385.6,261.7
		C1274.5,467.3,1265.7,486.4,1232.8,563.2z"/>
	<path class="st2" d="M1226.4,448.9c81.4-33,288.3-124.3,385.6-261.7c25.8-36.4,86.2-125.4,56.5-168.3c-6.1-8.8-14.6-13.6-20.9-16.4
		c12.1,2.9,24.8,6.4,37.8,10.8c47.4,16,85.5,38.3,114.5,59.3c16.8,8.1,27.2,25.6,25.7,44.2c-1.8,22.8-6.6,50.3-17.7,79.7
		c-23.1,61.3-61.1,98.2-81.9,118.4c-71.6,69.4-230.2,163.4-449.1,248.3C1243.9,486.4,1235.2,467.3,1226.4,448.9z"/>
</g>
</svg>
